<?xml version="1.0" standalone="no"?>
<!DOCTYPE svg PUBLIC "-//W3C//DTD SVG 1.1//EN" "http://www.w3.org/Graphics/SVG/1.1/DTD/svg11.dtd" >
<svg xmlns="http://www.w3.org/2000/svg" xmlns:xlink="http://www.w3.org/1999/xlink" version="1.1">
<metadata>
Created by FontForge 20161003 at Sun Aug  6 13:42:40 2017
 By www-data
Copyright (c) 2010 Linotype GmbH, www.linotype.com. All rights reserved. This font software may not be reproduced, modified, disclosed or transferred without the express written approval of Linotype GmbH.
</metadata>
<defs>
<font id="DINNextCYRLight" horiz-adv-x="532" >
  <font-face 
    font-family="DINNextCYRLight"
    font-weight="300"
    font-stretch="normal"
    units-per-em="1000"
    panose-1="2 11 3 3 2 2 3 5 2 3"
    ascent="750"
    descent="-250"
    x-height="477"
    cap-height="680"
    bbox="-146.562 -213 985 914"
    underline-thickness="50"
    underline-position="-150"
    unicode-range="U+000D-FB04"
  />
<missing-glyph horiz-adv-x="470" 
d="M0 10v660q0 10 10 10h450q10 0 10 -10v-660q0 -10 -10 -10h-450q-10 0 -10 10zM39 43q0 -6 6 -6h380q6 0 6 6v594q0 6 -6 6h-380q-6 0 -6 -6v-594zM215 224q-10 0 -10 10v24q0 40 22 67l37 48q37 44 37 80q0 31 -20 50.5t-52 19.5q-62 0 -77 -67q-2 -9 -12 -8l-21 4
q-10 2 -8 11q8 44 40 71.5t79 27.5q50 0 81 -31t31 -78q0 -49 -38 -94l-37 -48q-20 -25 -20 -55v-22q0 -10 -10 -10h-22zM200 123v39q0 10 10 10h31q10 0 10 -10v-39q0 -10 -10 -10h-31q-10 0 -10 10z" />
    <glyph glyph-name="IJ" unicode="IJ" horiz-adv-x="719" 
d="M94 10v660q0 10 10 10h37q10 0 10 -10v-660q0 -10 -10 -10h-37q-10 0 -10 10zM285 46q-7 8 -1 14l27 25q7 7 15 0q49 -41 107 -41q141 0 141 160v466q0 10 10 10h37q10 0 10 -10v-466q0 -107 -52.5 -160.5t-146.5 -53.5q-89 0 -147 56z" />
    <glyph glyph-name="ij" unicode="ij" horiz-adv-x="476" 
d="M141 604h-44q-10 0 -10 10v56q0 10 10 10h44q10 0 10 -10v-56q0 -10 -10 -10zM136 0h-34q-10 0 -10 10v457q0 10 10 10h34q10 0 10 -10v-457q0 -10 -10 -10zM379 604h-44q-10 0 -10 10v56q0 10 10 10h44q10 0 10 -10v-56q0 -10 -10 -10zM261 -180h-11q-10 0 -10 10v32
q0 10 10 10h9q41 0 56 14.5t15 58.5v522q0 10 10 10h34q10 0 10 -10v-521q0 -69 -28 -97.5t-95 -28.5z" />
    <glyph glyph-name="napostrophe" unicode="&#x22;n" horiz-adv-x="541" 
d="M40 535q-9 0 -9 10v125q0 10 10 10h37q10 0 10 -10v-48q0 -11 -5 -21l-32 -57q-5 -9 -11 -9zM445 0h-34q-10 0 -10 10v282q0 143 -125 143q-56 0 -93 -36t-37 -97v-292q0 -10 -10 -10h-34q-10 0 -10 10v457q0 10 10 10h34q10 0 10 -10v-57h1q39 77 141 77
q80 0 123.5 -47.5t43.5 -134.5v-295q0 -10 -10 -10z" />
    <glyph glyph-name="f_f" unicode="ff" horiz-adv-x="616" 
d="M152 0h-34q-10 0 -10 10v413q0 6 -6 6h-51q-10 0 -10 10v28q0 10 10 10h51q6 0 6 6v51q0 84 29.5 115t103.5 31h28q10 0 10 -10v-32q0 -10 -10 -10h-21q-54 0 -70 -16.5t-16 -70.5v-58q0 -6 6 -6h101q10 0 10 -10v-28q0 -10 -10 -10h-101q-6 0 -6 -6v-413q0 -10 -10 -10z
M460 0h-34q-10 0 -10 10v413q0 6 -6 6h-51q-10 0 -10 10v28q0 10 10 10h51q6 0 6 6v51q0 84 29.5 115t103.5 31h28q10 0 10 -10v-32q0 -10 -10 -10h-21q-54 0 -70 -16.5t-16 -70.5v-58q0 -6 6 -6h101q10 0 10 -10v-28q0 -10 -10 -10h-101q-6 0 -6 -6v-413q0 -10 -10 -10z
" />
    <glyph glyph-name="fi" unicode="fi" horiz-adv-x="546" 
d="M152 0h-34q-10 0 -10 10v413q0 6 -6 6h-51q-10 0 -10 10v28q0 10 10 10h51q6 0 6 6v51q0 84 29.5 115t103.5 31h28q10 0 10 -10v-32q0 -10 -10 -10h-21q-54 0 -70 -16.5t-16 -70.5v-58q0 -6 6 -6h101q10 0 10 -10v-28q0 -10 -10 -10h-101q-6 0 -6 -6v-413q0 -10 -10 -10z
M449 604h-44q-10 0 -10 10v56q0 10 10 10h44q10 0 10 -10v-56q0 -10 -10 -10zM444 0h-34q-10 0 -10 10v457q0 10 10 10h34q10 0 10 -10v-457q0 -10 -10 -10z" />
    <glyph glyph-name="fl" unicode="fl" horiz-adv-x="570" 
d="M152 0h-34q-10 0 -10 10v413q0 6 -6 6h-51q-10 0 -10 10v28q0 10 10 10h51q6 0 6 6v51q0 84 29.5 115t103.5 31h28q10 0 10 -10v-32q0 -10 -10 -10h-21q-54 0 -70 -16.5t-16 -70.5v-58q0 -6 6 -6h101q10 0 10 -10v-28q0 -10 -10 -10h-101q-6 0 -6 -6v-413q0 -10 -10 -10z
M521 -3h-23q-54 0 -76.5 26t-22.5 86v561q0 10 10 10h34q10 0 10 -10v-559q0 -35 11.5 -48.5t39.5 -13.5h17q10 0 10 -10v-32q0 -10 -10 -10z" />
    <glyph glyph-name="f_f_i" unicode="ffi" horiz-adv-x="854" 
d="M152 0h-34q-10 0 -10 10v413q0 6 -6 6h-51q-10 0 -10 10v28q0 10 10 10h51q6 0 6 6v51q0 84 29.5 115t103.5 31h28q10 0 10 -10v-32q0 -10 -10 -10h-21q-54 0 -70 -16.5t-16 -70.5v-58q0 -6 6 -6h101q10 0 10 -10v-28q0 -10 -10 -10h-101q-6 0 -6 -6v-413q0 -10 -10 -10z
M460 0h-34q-10 0 -10 10v413q0 6 -6 6h-51q-10 0 -10 10v28q0 10 10 10h51q6 0 6 6v51q0 84 29.5 115t103.5 31h28q10 0 10 -10v-32q0 -10 -10 -10h-21q-54 0 -70 -16.5t-16 -70.5v-58q0 -6 6 -6h101q10 0 10 -10v-28q0 -10 -10 -10h-101q-6 0 -6 -6v-413q0 -10 -10 -10z
M757 604h-44q-10 0 -10 10v56q0 10 10 10h44q10 0 10 -10v-56q0 -10 -10 -10zM752 0h-34q-10 0 -10 10v457q0 10 10 10h34q10 0 10 -10v-457q0 -10 -10 -10z" />
    <glyph glyph-name="f_f_l" unicode="ffl" horiz-adv-x="878" 
d="M152 0h-34q-10 0 -10 10v413q0 6 -6 6h-51q-10 0 -10 10v28q0 10 10 10h51q6 0 6 6v51q0 84 29.5 115t103.5 31h28q10 0 10 -10v-32q0 -10 -10 -10h-21q-54 0 -70 -16.5t-16 -70.5v-58q0 -6 6 -6h101q10 0 10 -10v-28q0 -10 -10 -10h-101q-6 0 -6 -6v-413q0 -10 -10 -10z
M460 0h-34q-10 0 -10 10v413q0 6 -6 6h-51q-10 0 -10 10v28q0 10 10 10h51q6 0 6 6v51q0 84 29.5 115t103.5 31h28q10 0 10 -10v-32q0 -10 -10 -10h-21q-54 0 -70 -16.5t-16 -70.5v-58q0 -6 6 -6h101q10 0 10 -10v-28q0 -10 -10 -10h-101q-6 0 -6 -6v-413q0 -10 -10 -10z
M829 -3h-23q-54 0 -76.5 26t-22.5 86v561q0 10 10 10h34q10 0 10 -10v-559q0 -35 11.5 -48.5t39.5 -13.5h17q10 0 10 -10v-32q0 -10 -10 -10z" />
    <glyph glyph-name=".notdef" horiz-adv-x="470" 
d="M0 10v660q0 10 10 10h450q10 0 10 -10v-660q0 -10 -10 -10h-450q-10 0 -10 10zM39 43q0 -6 6 -6h380q6 0 6 6v594q0 6 -6 6h-380q-6 0 -6 -6v-594zM215 224q-10 0 -10 10v24q0 40 22 67l37 48q37 44 37 80q0 31 -20 50.5t-52 19.5q-62 0 -77 -67q-2 -9 -12 -8l-21 4
q-10 2 -8 11q8 44 40 71.5t79 27.5q50 0 81 -31t31 -78q0 -49 -38 -94l-37 -48q-20 -25 -20 -55v-22q0 -10 -10 -10h-22zM200 123v39q0 10 10 10h31q10 0 10 -10v-39q0 -10 -10 -10h-31q-10 0 -10 10z" />
    <glyph glyph-name=".null" horiz-adv-x="500" 
 />
    <glyph glyph-name=".null" horiz-adv-x="500" 
 />
    <glyph glyph-name="nonmarkingreturn" horiz-adv-x="333" 
 />
    <glyph glyph-name="CR" unicode="&#xd;" horiz-adv-x="0" 
 />
    <glyph glyph-name="space" unicode=" " horiz-adv-x="246" 
 />
    <glyph glyph-name="exclam" unicode="!" horiz-adv-x="266" 
d="M122 177q-10 0 -10 10l-8 483q0 10 10 10h39q10 0 10 -10l-8 -483q0 -10 -10 -10h-23zM98 10v67q0 10 10 10h50q10 0 10 -10v-67q0 -10 -10 -10h-50q-10 0 -10 10z" />
    <glyph glyph-name="quotedbl" unicode="&#x22;" horiz-adv-x="314" 
d="M204 520q-10 0 -10 10v140q0 10 10 10h26q10 0 10 -10v-140q0 -10 -10 -10h-26zM84 520q-10 0 -10 10v140q0 10 10 10h26q10 0 10 -10v-140q0 -10 -10 -10h-26z" />
    <glyph glyph-name="numbersign" unicode="#" horiz-adv-x="518" 
d="M89 10l28 209h-80q-10 0 -10 10v24q0 10 10 10h86l23 169h-84q-10 0 -10 10v25q0 10 10 10h90l27 193q2 10 11 10h27q11 0 9 -10l-27 -193h150l27 193q2 10 11 10h27q11 0 9 -10l-27 -193h85q10 0 10 -10v-25q0 -10 -10 -10h-91l-23 -169h90q10 0 10 -10v-24
q0 -10 -10 -10h-96l-28 -209q-2 -10 -11 -10h-27q-11 0 -9 10l28 209h-150l-28 -209q-2 -10 -11 -10h-27q-11 0 -9 10zM170 263h150l23 169h-150z" />
    <glyph glyph-name="dollar" unicode="$" 
d="M65 50q-9 6 -1 14l21 28q5 6 14 1q74 -47 153 -51v277q-88 14 -131.5 61t-43.5 120q0 81 48.5 132t126.5 57v52q0 10 10 10h19q10 0 10 -10v-52q79 -4 145 -45q10 -6 3 -14l-17 -27q-6 -8 -14 -3q-61 33 -117 37v-268q181 -26 181 -182q0 -82 -48 -135t-133 -60v-53
q0 -10 -10 -10h-19q-10 0 -10 10v51q-107 3 -187 60zM252 374v263q-56 -5 -89 -41t-33 -91q0 -53 28 -85.5t94 -45.5zM291 43q60 7 94 43.5t34 97.5q0 109 -128 129v-270z" />
    <glyph glyph-name="percent" unicode="%" horiz-adv-x="770" 
d="M164 0l394 680q6 10 14 10h27q11 0 6 -10l-394 -680q-6 -10 -14 -10h-27q-11 0 -6 10zM205 330q-85 0 -109 74q-8 32 -8 105t8 105q24 74 109 74q40 0 68.5 -19.5t39.5 -54.5q8 -32 8 -105t-8 -105q-11 -35 -39.5 -54.5t-68.5 -19.5zM205 371q51 0 64 43q7 18 7 95t-7 95
q-13 43 -64 43q-52 0 -65 -43q-7 -18 -7 -95t7 -95q13 -43 65 -43zM458 66q-8 24 -8 105q0 79 8 105q11 35 39.5 54.5t68.5 19.5t68.5 -19.5t39.5 -54.5q8 -26 8 -105q0 -81 -8 -105q-11 -35 -39.5 -54.5t-68.5 -19.5t-68.5 19.5t-39.5 54.5zM501 76q15 -43 65 -43t65 43
q7 23 7 95q0 73 -7 94q-15 43 -65 43t-65 -43q-7 -21 -7 -94q0 -72 7 -95z" />
    <glyph glyph-name="ampersand" unicode="&#x26;" horiz-adv-x="618" 
d="M76 162q0 57 34.5 108.5t106.5 109.5q-54 70 -73.5 104.5t-19.5 68.5q0 60 41 98.5t104 38.5t103 -39t40 -97q0 -45 -26.5 -84.5t-97.5 -97.5l152 -197l71 89q6 8 14 2l21 -18q9 -6 2 -14l-78 -99l47 -61q17 -22 39 -22h14q10 0 10 -10v-32q0 -10 -10 -10h-21
q-25 0 -40.5 8.5t-32.5 31.5l-40 53q-47 -54 -90.5 -78.5t-95.5 -24.5q-80 0 -127 47.5t-47 124.5zM257 413q64 51 84 80t20 61q0 37 -26 61.5t-66 24.5t-66 -24t-26 -62q0 -24 14.5 -49t65.5 -92zM128 164q0 -56 33 -90t90 -34q42 0 77.5 22t77.5 71l-159 207
q-61 -50 -90 -90.5t-29 -85.5z" />
    <glyph glyph-name="quotesingle" unicode="'" horiz-adv-x="194" 
d="M84 520q-10 0 -10 10v140q0 10 10 10h26q10 0 10 -10v-140q0 -10 -10 -10h-26z" />
    <glyph glyph-name="parenleft" unicode="(" horiz-adv-x="276" 
d="M185 -74q-110 187 -110 402q0 216 110 402q7 10 15 10h20q12 0 7 -10q-99 -192 -99 -402q0 -209 99 -402q5 -10 -7 -10h-20q-8 0 -15 10z" />
    <glyph glyph-name="parenright" unicode=")" horiz-adv-x="276" 
d="M49 -74q99 190 99 402q0 210 -99 402q-5 10 7 10h21q7 0 14 -10q110 -186 110 -402q0 -215 -110 -402q-7 -10 -14 -10h-21q-12 0 -7 10z" />
    <glyph glyph-name="asterisk" unicode="*" horiz-adv-x="349" 
d="M166 402q-10 0 -10 10v96l-84 -48q-9 -5 -14 4l-8 15q-6 9 4 14l83 48l-83 48q-10 5 -4 14l8 15q5 9 14 4l84 -49v97q0 10 10 10h17q10 0 10 -10v-97l84 49q9 5 14 -4l8 -15q6 -9 -4 -14l-84 -48l84 -48q10 -5 4 -14l-8 -15q-5 -9 -14 -4l-84 49v-97q0 -10 -10 -10h-17z
" />
    <glyph glyph-name="plus" unicode="+" 
d="M240 85v160q0 6 -6 6h-158q-10 0 -10 10v30q0 10 10 10h158q6 0 6 6v160q0 10 10 10h32q10 0 10 -10v-160q0 -6 6 -6h158q10 0 10 -10v-30q0 -10 -10 -10h-158q-6 0 -6 -6v-160q0 -10 -10 -10h-32q-10 0 -10 10z" />
    <glyph glyph-name="comma" unicode="," horiz-adv-x="213" 
d="M75 77q0 10 10 10h43q10 0 10 -10v-75q0 -12 -5 -22l-39 -77q-4 -8 -12 -8q-7 0 -7 9v173z" />
    <glyph glyph-name="hyphen" unicode="-" horiz-adv-x="374" 
d="M59 241q-10 0 -10 10v31q0 10 10 10h256q10 0 10 -10v-31q0 -10 -10 -10h-256z" />
    <glyph glyph-name="period" unicode="." horiz-adv-x="219" 
d="M75 10v67q0 10 10 10h49q10 0 10 -10v-67q0 -10 -10 -10h-49q-10 0 -10 10z" />
    <glyph glyph-name="slash" unicode="/" horiz-adv-x="407" 
d="M68 0l221 680q3 10 13 10h30q10 0 7 -10l-221 -680q-3 -10 -13 -10h-30q-10 0 -7 10z" />
    <glyph glyph-name="zero" unicode="0" 
d="M91 112q-15 45 -15 228t15 228q19 59 64.5 90.5t110.5 31.5t110.5 -31.5t64.5 -90.5q15 -45 15 -228t-15 -228q-19 -59 -64.5 -90.5t-110.5 -31.5t-110.5 31.5t-64.5 90.5zM144 124q28 -83 122 -83t122 83q14 44 14 216t-14 216q-28 83 -122 83t-122 -83
q-14 -44 -14 -216t14 -216z" />
    <glyph glyph-name="one" unicode="1" 
d="M257 10v597h-2l-123 -87q-4 -3 -7.5 -1.5t-3.5 7.5v42q0 9 7 15l126 91q8 6 15 6h32q10 0 10 -10v-660q0 -10 -10 -10h-34q-10 0 -10 10z" />
    <glyph glyph-name="two" unicode="2" 
d="M83 10v26q0 8 4 13l251 329q56 72 56 133q0 56 -36 91.5t-94 35.5q-55 0 -88 -31t-42 -86q-2 -9 -12 -8l-31 8q-10 2 -8 11q9 67 56.5 112.5t125.5 45.5q82 0 132.5 -50t50.5 -129q0 -76 -69 -166l-224 -292v-1h283q10 0 10 -10v-32q0 -10 -10 -10h-345q-10 0 -10 10z
" />
    <glyph glyph-name="three" unicode="3" 
d="M73 130q-3 10 7 13l32 8q10 3 13 -7q30 -102 140 -102q63 0 101 39.5t38 101.5q0 64 -39.5 104.5t-103.5 40.5h-31q-10 0 -10 10v32q0 10 10 10h30q58 0 93.5 36.5t35.5 94.5q0 57 -34.5 92t-93.5 35q-55 0 -86.5 -27.5t-41.5 -70.5q-2 -10 -11 -8l-33 9q-10 2 -8 12
q11 57 58 97t123 40q83 0 132.5 -49.5t49.5 -128.5q0 -101 -91 -153v-2q41 -17 73 -61t32 -111q0 -86 -54 -140.5t-139 -54.5q-80 0 -129.5 40.5t-62.5 99.5z" />
    <glyph glyph-name="four" unicode="4" 
d="M67 136q-10 0 -10 10v30q0 3 2 11l221 485q4 8 13 8h37q11 0 7 -9l-219 -482v-1h210q6 0 6 6v186q0 10 10 10h34q10 0 10 -10v-186q0 -6 6 -6h75q10 0 10 -10v-32q0 -10 -10 -10h-75q-6 0 -6 -6v-120q0 -10 -10 -10h-34q-10 0 -10 10v120q0 6 -6 6h-261z" />
    <glyph glyph-name="five" unicode="5" 
d="M91 134q-2 9 7 12l32 8q9 3 13 -8q8 -47 41.5 -75.5t88.5 -28.5q92 0 119 78q10 31 10 98q0 66 -12 100q-24 76 -115 76q-46 0 -78 -23.5t-42 -57.5q-3 -10 -10 -10h-33q-10 0 -10 10v357q0 10 10 10h321q10 0 10 -10v-32q0 -10 -10 -10h-273q-6 0 -6 -6v-235h2
q14 24 47 41.5t77 17.5q125 0 160 -108q16 -50 16 -120q0 -72 -14 -114q-18 -54 -62.5 -84t-105.5 -30q-77 0 -126 40t-57 104z" />
    <glyph glyph-name="six" unicode="6" 
d="M68 195q0 70 44 153l169 325q4 7 13 7h37q11 0 6 -9l-153 -295l2 -1q29 24 88 24q83 0 137 -55.5t54 -146.5q0 -94 -55.5 -150.5t-142.5 -56.5q-88 0 -143.5 56t-55.5 149zM122 194q0 -68 40.5 -110t104.5 -42t104 42.5t40 109.5q0 68 -40 110.5t-104 42.5t-104.5 -42.5
t-40.5 -110.5z" />
    <glyph glyph-name="seven" unicode="7" 
d="M157 11l243 614v3h-246q-6 0 -6 -6v-93q0 -10 -10 -10h-34q-10 0 -10 10v141q0 10 10 10h344q10 0 10 -10v-37q0 -4 -2 -10l-244 -614q-4 -9 -13 -9h-37q-10 0 -5 11z" />
    <glyph glyph-name="eight" unicode="8" 
d="M66 184q0 61 29.5 106.5t79.5 66.5v2q-41 20 -66 60t-25 92q0 77 50.5 128t131.5 51t131.5 -51t50.5 -128q0 -52 -25 -92t-66 -60v-2q50 -21 79.5 -66.5t29.5 -106.5q0 -85 -56 -139.5t-144 -54.5t-144 54.5t-56 139.5zM266 384q57 0 92.5 36t35.5 91t-35.5 91t-92.5 36
t-92.5 -36t-35.5 -91t35 -91t93 -36zM120 186q0 -63 40 -103.5t106 -40.5t106 40.5t40 103.5q0 64 -40.5 105t-105.5 41t-105.5 -41t-40.5 -105z" />
    <glyph glyph-name="nine" unicode="9" 
d="M195 9l153 295l-2 1q-29 -24 -88 -24q-83 0 -137 55.5t-54 146.5q0 94 55.5 150.5t142.5 56.5q88 0 143.5 -56t55.5 -149q0 -70 -44 -153l-169 -325q-4 -7 -13 -7h-37q-11 0 -6 9zM265 333q64 0 104.5 42.5t40.5 110.5t-40.5 110t-104.5 42t-104 -42.5t-40 -109.5
q0 -68 40 -110.5t104 -42.5z" />
    <glyph glyph-name="colon" unicode=":" horiz-adv-x="227" 
d="M89 389q-10 0 -10 10v68q0 10 10 10h49q10 0 10 -10v-68q0 -10 -10 -10h-49zM79 10v67q0 10 10 10h49q10 0 10 -10v-67q0 -10 -10 -10h-49q-10 0 -10 10z" />
    <glyph glyph-name="semicolon" unicode=";" horiz-adv-x="227" 
d="M89 389q-10 0 -10 10v68q0 10 10 10h49q10 0 10 -10v-68q0 -10 -10 -10h-49zM82 77q0 10 10 10h43q10 0 10 -10v-75q0 -12 -5 -22l-39 -77q-4 -8 -12 -8q-7 0 -7 9v173z" />
    <glyph glyph-name="less" unicode="&#x3c;" 
d="M76 250q-10 4 -10 13v26q0 9 10 13l380 155q10 3 10 -7v-35q0 -9 -10 -13l-316 -125v-2l316 -125q10 -4 10 -13v-35q0 -10 -10 -7z" />
    <glyph glyph-name="equal" unicode="=" 
d="M76 348q-10 0 -10 10v30q0 10 10 10h380q10 0 10 -10v-30q0 -10 -10 -10h-380zM76 154q-10 0 -10 10v30q0 10 10 10h380q10 0 10 -10v-30q0 -10 -10 -10h-380z" />
    <glyph glyph-name="greater" unicode="&#x3e;" 
d="M66 102v35q0 9 10 13l316 125v2l-316 125q-10 4 -10 13v35q0 10 10 7l380 -155q10 -4 10 -13v-26q0 -9 -10 -13l-380 -155q-10 -3 -10 7z" />
    <glyph glyph-name="question" unicode="?" horiz-adv-x="446" 
d="M196 184v39q0 57 32 98l55 73q37 45 49 72t12 59q0 53 -33 83t-85 30q-49 0 -81 -29t-43 -83q-2 -10 -11 -8l-34 6q-10 2 -8 12q11 69 58 111.5t120 42.5q77 0 124.5 -46t47.5 -119q0 -40 -13.5 -72t-47.5 -72l-55 -74q-20 -24 -26 -41.5t-6 -46.5v-35q0 -10 -10 -10h-35
q-10 0 -10 10zM188 10v67q0 10 10 10h50q10 0 10 -10v-67q0 -10 -10 -10h-50q-10 0 -10 10z" />
    <glyph glyph-name="at" unicode="@" horiz-adv-x="884" 
d="M49 267q0 174 109.5 283.5t283.5 109.5t284 -109.5t110 -283.5q0 -106 -43 -158.5t-111 -52.5q-42 0 -72.5 21t-44.5 57h-1q-35 -78 -137 -78q-108 0 -141 100q-13 42 -13 106t13 106q33 100 139 100q88 0 122 -59h2v39q0 10 9 10h30q9 0 9 -10v-245q0 -49 25.5 -75
t61.5 -26q45 0 74 38.5t29 126.5q0 155 -95 251t-250 96t-249.5 -95.5t-94.5 -251.5t94.5 -252t249.5 -96q128 0 219 48q8 5 13 -4l10 -23q4 -9 -5 -13q-95 -54 -237 -54q-174 0 -283.5 109.5t-109.5 284.5zM332 174q23 -71 103 -71q81 0 104 71q10 30 10 88t-10 88
q-23 71 -104 71q-80 0 -103 -71q-10 -30 -10 -88t10 -88z" />
    <glyph glyph-name="A" unicode="A" horiz-adv-x="596" 
d="M31 10l238 660q3 10 12 10h36q9 0 12 -10l236 -660q3 -10 -7 -10h-39q-11 0 -13 10l-60 167h-296l-60 -167q-4 -10 -13 -10h-39q-10 0 -7 10zM169 232h258l-127 356h-3z" />
    <glyph glyph-name="B" unicode="B" horiz-adv-x="601" 
d="M94 10v660q0 10 10 10h228q95 0 146.5 -47t51.5 -129q0 -121 -105 -153v-2q44 -9 80 -51.5t36 -110.5q0 -88 -54.5 -137.5t-154.5 -49.5h-228q-10 0 -10 10zM157 373h174q67 0 104.5 34.5t37.5 91.5q0 59 -37 93t-105 34h-174q-6 0 -6 -6v-241q0 -6 6 -6zM151 60
q0 -6 6 -6h179q71 0 109.5 35.5t38.5 96.5t-38.5 97t-109.5 36h-179q-6 0 -6 -6v-253z" />
    <glyph glyph-name="C" unicode="C" horiz-adv-x="556" 
d="M83 142q-18 56 -18 198t18 198q51 152 215 152q146 0 205 -126q4 -9 -3 -13l-33 -16q-8 -5 -13 4q-52 97 -156 97q-120 0 -160 -113q-15 -45 -15 -183t15 -183q40 -113 160 -113q104 0 156 97q5 9 13 4l33 -16q7 -4 3 -13q-59 -126 -205 -126q-164 0 -215 152z" />
    <glyph glyph-name="D" unicode="D" horiz-adv-x="620" 
d="M94 10v660q0 10 10 10h213q172 0 217 -138q19 -58 19 -202t-19 -202q-45 -138 -217 -138h-213q-10 0 -10 10zM151 60q0 -6 6 -6h152q136 0 170 103q16 48 16 183t-16 183q-34 103 -170 103h-152q-6 0 -6 -6v-560z" />
    <glyph glyph-name="E" unicode="E" horiz-adv-x="556" 
d="M94 10v660q0 10 10 10h389q10 0 10 -10v-34q0 -10 -10 -10h-336q-6 0 -6 -6v-242q0 -6 6 -6h289q10 0 10 -10v-34q0 -10 -10 -10h-289q-6 0 -6 -6v-252q0 -6 6 -6h336q10 0 10 -10v-34q0 -10 -10 -10h-389q-10 0 -10 10z" />
    <glyph glyph-name="F" unicode="F" horiz-adv-x="551" 
d="M94 10v660q0 10 10 10h389q10 0 10 -10v-34q0 -10 -10 -10h-336q-6 0 -6 -6v-249q0 -6 6 -6h289q10 0 10 -10v-34q0 -10 -10 -10h-289q-6 0 -6 -6v-295q0 -10 -10 -10h-37q-10 0 -10 10z" />
    <glyph glyph-name="G" unicode="G" horiz-adv-x="609" 
d="M84 143q-19 59 -19 197t19 197q50 153 222 153q79 0 132.5 -34.5t80.5 -91.5q4 -9 -4 -13l-32 -16q-9 -3 -13 4q-53 97 -165 97q-128 0 -166 -115q-16 -46 -16 -181t16 -181q38 -115 166 -115t166 113q16 46 16 130q0 6 -6 6h-154q-10 0 -10 10v33q0 10 10 10h207
q10 0 10 -10v-41q0 -95 -18 -151q-24 -75 -81 -114.5t-139 -39.5q-172 0 -222 153z" />
    <glyph glyph-name="H" unicode="H" horiz-adv-x="650" 
d="M94 10v660q0 10 10 10h37q10 0 10 -10v-292q0 -6 6 -6h336q6 0 6 6v292q0 10 10 10h37q10 0 10 -10v-660q0 -10 -10 -10h-37q-10 0 -10 10v302q0 6 -6 6h-336q-6 0 -6 -6v-302q0 -10 -10 -10h-37q-10 0 -10 10z" />
    <glyph glyph-name="I" unicode="I" horiz-adv-x="245" 
d="M94 10v660q0 10 10 10h37q10 0 10 -10v-660q0 -10 -10 -10h-37q-10 0 -10 10z" />
    <glyph glyph-name="J" unicode="J" horiz-adv-x="474" 
d="M40 46q-8 8 -1 14l27 25q7 7 15 0q49 -41 107 -41q141 0 141 160v466q0 10 10 10h37q10 0 10 -10v-466q0 -107 -52.5 -160.5t-146.5 -53.5q-89 0 -147 56z" />
    <glyph glyph-name="K" unicode="K" horiz-adv-x="597" 
d="M94 10v660q0 10 10 10h37q10 0 10 -10v-392l324 393q9 9 17 9h47q5 0 6.5 -3.5t-2.5 -7.5l-215 -257l232 -401q7 -11 -5 -11h-45q-9 0 -15 9l-205 357l-139 -166v-190q0 -10 -10 -10h-37q-10 0 -10 10z" />
    <glyph glyph-name="L" unicode="L" horiz-adv-x="530" 
d="M94 10v660q0 10 10 10h37q10 0 10 -10v-610q0 -6 6 -6h336q10 0 10 -10v-34q0 -10 -10 -10h-389q-10 0 -10 10z" />
    <glyph glyph-name="M" unicode="M" horiz-adv-x="755" 
d="M94 10v660q0 10 10 10h38q11 0 15 -10l221 -487h4l216 487q4 10 14 10h39q10 0 10 -10v-660q0 -10 -10 -10h-37q-10 0 -10 10v532h-3l-196 -431q-5 -11 -18 -11h-20q-11 0 -17 11l-196 431h-3v-532q0 -10 -10 -10h-37q-10 0 -10 10z" />
    <glyph glyph-name="N" unicode="N" horiz-adv-x="651" 
d="M94 10v660q0 10 10 10h37q12 0 17 -10l339 -559h3v559q0 10 10 10h37q10 0 10 -10v-660q0 -10 -10 -10h-39q-11 0 -17 10l-336 560h-4v-560q0 -10 -10 -10h-37q-10 0 -10 10z" />
    <glyph glyph-name="O" unicode="O" horiz-adv-x="609" 
d="M305 -10q-170 0 -220 153q-20 60 -20 197t20 197q50 153 220 153q169 0 219 -153q20 -60 20 -197t-20 -197q-50 -153 -219 -153zM486 340q0 130 -17 181q-38 115 -164 115q-127 0 -165 -115q-17 -51 -17 -181t17 -181q38 -115 165 -115q126 0 164 115q17 51 17 181z" />
    <glyph glyph-name="P" unicode="P" horiz-adv-x="585" 
d="M141 0h-37q-10 0 -10 10v660q0 10 10 10h227q97 0 153 -52t56 -141t-56 -140.5t-153 -51.5h-174q-6 0 -6 -6v-279q0 -10 -10 -10zM329 349q74 0 114 36t40 102t-40 102.5t-114 36.5h-172q-6 0 -6 -6v-265q0 -6 6 -6h172z" />
    <glyph glyph-name="Q" unicode="Q" horiz-adv-x="609" 
d="M561 -9l-24 -23q-8 -7 -15 0l-66 71q-60 -49 -151 -49q-170 0 -220 153q-20 60 -20 197t20 197q50 153 220 153q169 0 219 -153q20 -60 20 -197t-20 -197q-11 -34 -32 -65l70 -73q7 -7 -1 -14zM305 44q69 0 113 36l-82 88q-7 7 0 14l25 23q8 6 14 -1l77 -83q9 15 17 38
q17 51 17 181t-17 181q-38 115 -164 115q-127 0 -165 -115q-17 -51 -17 -181t17 -181q38 -115 165 -115z" />
    <glyph glyph-name="R" unicode="R" horiz-adv-x="615" 
d="M543 0h-46q-8 0 -12 9l-143 295h-10h-175q-6 0 -6 -6v-288q0 -10 -10 -10h-37q-10 0 -10 10v660q0 10 10 10h228q96 0 151.5 -50.5t55.5 -137.5q0 -70 -36.5 -117t-102.5 -63l148 -301q7 -11 -5 -11zM331 358q73 0 112 34.5t39 99.5q0 64 -39 99t-112 35h-174q-6 0 -6 -6
v-256q0 -6 6 -6h174z" />
    <glyph glyph-name="S" unicode="S" horiz-adv-x="596" 
d="M290 -10q-64 0 -125.5 23t-99.5 56q-7 7 -1 14l24 30q7 8 14 1q90 -70 195 -70q81 0 128.5 38t47.5 101q0 54 -37 87.5t-126 44.5l-31 4q-196 25 -196 180q0 88 58 139.5t156 51.5q115 0 194 -57q9 -5 2 -14l-20 -31q-6 -7 -14 -2q-82 50 -165 50q-72 0 -113 -36.5
t-41 -96.5q0 -54 38 -86t122 -43l31 -4q199 -26 199 -183q0 -89 -62.5 -143t-177.5 -54z" />
    <glyph glyph-name="T" unicode="T" horiz-adv-x="525" 
d="M281 0h-37q-10 0 -10 10v610q0 6 -6 6h-196q-10 0 -10 10v34q0 10 10 10h461q10 0 10 -10v-34q0 -10 -10 -10h-196q-6 0 -6 -6v-610q0 -10 -10 -10z" />
    <glyph glyph-name="U" unicode="U" horiz-adv-x="635" 
d="M144 670v-436q0 -94 45 -142t128 -48t128.5 48t45.5 142v436q0 10 10 10h37q10 0 10 -10v-435q0 -122 -61 -183.5t-170 -61.5q-108 0 -169 62t-61 183v435q0 10 10 10h37q10 0 10 -10z" />
    <glyph glyph-name="V" unicode="V" horiz-adv-x="560" 
d="M297 0h-34q-8 0 -11 10l-225 656q-6 14 7 14h35q11 0 15 -10l197 -575h2l192 575q4 10 14 10h36q13 0 8 -14l-224 -656q-3 -10 -12 -10z" />
    <glyph glyph-name="W" unicode="W" horiz-adv-x="817" 
d="M613 0h-33q-8 0 -11 10l-159 557h-2l-160 -557q-3 -10 -11 -10h-32q-9 0 -12 10l-161 659q-3 11 8 11h36q12 0 13 -10l134 -560h2l157 560q3 10 12 10h30q9 0 12 -10l159 -560h2l131 560q2 10 13 10h36q11 0 8 -11l-161 -659q-2 -10 -11 -10z" />
    <glyph glyph-name="X" unicode="X" horiz-adv-x="545" 
d="M506 0h-45q-9 0 -13 9l-175 291h-1l-176 -291q-4 -9 -13 -9h-45q-10 0 -5 11l207 346l-186 312q-7 11 5 11h45q8 0 13 -9l155 -257h1l155 257q6 9 13 9h45q10 0 5 -11l-187 -312l208 -346q6 -11 -6 -11z" />
    <glyph glyph-name="Y" unicode="Y" horiz-adv-x="515" 
d="M276 0h-37q-10 0 -10 10v269l-204 390q-4 11 8 11h39q10 0 15 -10l171 -325h3l168 325q5 10 15 10h38q12 0 8 -11l-204 -390v-269q0 -10 -10 -10z" />
    <glyph glyph-name="Z" unicode="Z" horiz-adv-x="540" 
d="M476 0h-413q-10 0 -10 10v33q0 7 5 15l361 567v1h-343q-10 0 -10 10v34q0 10 10 10h400q10 0 10 -10v-33q0 -7 -5 -15l-361 -567v-1h356q10 0 10 -10v-34q0 -10 -10 -10z" />
    <glyph glyph-name="bracketleft" unicode="[" horiz-adv-x="283" 
d="M229 -84h-119q-10 0 -10 10v804q0 10 10 10h119q10 0 10 -10v-27q0 -10 -10 -10h-71q-6 0 -6 -6v-718q0 -6 6 -6h71q10 0 10 -10v-27q0 -10 -10 -10z" />
    <glyph glyph-name="backslash" unicode="\" horiz-adv-x="407" 
d="M332 -10h-30q-10 0 -13 10l-221 680q-3 10 7 10h30q10 0 13 -10l221 -680q3 -10 -7 -10z" />
    <glyph glyph-name="bracketright" unicode="]" horiz-adv-x="283" 
d="M173 -84h-119q-10 0 -10 10v27q0 10 10 10h71q6 0 6 6v718q0 6 -6 6h-71q-10 0 -10 10v27q0 10 10 10h119q10 0 10 -10v-804q0 -10 -10 -10z" />
    <glyph glyph-name="asciicircum" unicode="^" 
d="M458 282h-32q-9 0 -13 10l-146 318h-2l-147 -318q-4 -10 -13 -10h-31q-12 0 -7 10l173 378q5 10 14 10h24q9 0 14 -10l172 -378q5 -10 -6 -10z" />
    <glyph glyph-name="underscore" unicode="_" horiz-adv-x="459" 
d="M459 -123h-459v41h459v-41z" />
    <glyph glyph-name="grave" unicode="`" horiz-adv-x="421" 
d="M273 558h-25q-9 0 -18 10l-88 122q-3 4 -1.5 7t6.5 3h38q10 0 16 -10l77 -122q7 -10 -5 -10z" />
    <glyph glyph-name="a" unicode="a" horiz-adv-x="513" 
d="M250 437q-76 0 -120 -36q-9 -7 -15 1l-17 25q-5 8 3 14q54 46 152 46q94 0 134 -35.5t40 -122.5v-319q0 -10 -10 -10h-32q-10 0 -10 10v50h-1q-15 -31 -53.5 -50.5t-94.5 -19.5q-74 0 -117 36.5t-43 104.5q0 141 181 141h121q6 0 6 6v49q0 60 -26.5 85t-97.5 25zM237 40
q62 0 99.5 29t37.5 78v73q0 6 -6 6h-114q-70 0 -102.5 -23t-32.5 -71q0 -45 30.5 -68.5t87.5 -23.5z" />
    <glyph glyph-name="b" unicode="b" horiz-adv-x="531" 
d="M292 -10q-105 0 -145 78h-1v-58q0 -10 -10 -10h-34q-10 0 -10 10v660q0 10 10 10h34q10 0 10 -10v-261h1q40 78 145 78q124 0 162 -114q17 -55 17 -135q0 -79 -17 -134q-38 -114 -162 -114zM281 42q94 0 122 84q13 39 13 112q0 74 -13 113q-28 84 -122 84q-95 0 -122 -84
q-13 -38 -13 -113q0 -74 13 -112q27 -84 122 -84z" />
    <glyph glyph-name="c" unicode="c" horiz-adv-x="470" 
d="M60 238q0 75 15 125q19 59 65.5 91.5t112.5 32.5q107 0 161 -90q5 -8 -3 -13l-28 -18q-8 -5 -13 4q-41 65 -117 65q-96 0 -125 -90q-13 -38 -13 -107q0 -68 13 -106q29 -90 125 -90q76 0 117 65q5 9 13 4l28 -18q8 -5 3 -13q-54 -90 -161 -90q-66 0 -112.5 32.5
t-65.5 91.5q-15 50 -15 124z" />
    <glyph glyph-name="d" unicode="d" horiz-adv-x="531" 
d="M429 0h-34q-10 0 -10 10v58h-1q-40 -78 -145 -78q-126 0 -162 114q-17 51 -17 134q0 84 17 135q36 114 162 114q105 0 145 -78h1v261q0 10 10 10h34q10 0 10 -10v-660q0 -10 -10 -10zM250 42q95 0 122 84q13 38 13 112q0 75 -13 113q-27 84 -122 84q-94 0 -122 -84
q-13 -39 -13 -113q0 -73 13 -112q28 -84 122 -84z" />
    <glyph glyph-name="e" unicode="e" horiz-adv-x="502" 
d="M257 -10q-142 0 -183 126q-14 45 -14 123q0 79 14 124q19 60 65.5 92t111.5 32t112 -32t66 -92q14 -42 14 -127q0 -10 -11 -10h-311q-6 0 -6 -7q0 -53 10 -84q32 -93 135 -93q84 0 133 61q6 8 14 2l23 -21q7 -6 1 -14q-60 -80 -174 -80zM121 272h261q6 0 6 6q0 40 -9 69
q-29 90 -128 90q-98 0 -127 -90q-9 -29 -9 -69q0 -6 6 -6z" />
    <glyph glyph-name="f" unicode="f" horiz-adv-x="308" 
d="M152 0h-34q-10 0 -10 10v413q0 6 -6 6h-51q-10 0 -10 10v28q0 10 10 10h51q6 0 6 6v51q0 84 29.5 115t103.5 31h28q10 0 10 -10v-32q0 -10 -10 -10h-21q-54 0 -70 -16.5t-16 -70.5v-58q0 -6 6 -6h101q10 0 10 -10v-28q0 -10 -10 -10h-101q-6 0 -6 -6v-413q0 -10 -10 -10z
" />
    <glyph glyph-name="g" unicode="g" horiz-adv-x="522" 
d="M239 -190q-51 0 -94.5 19.5t-63.5 49.5q-5 8 2 14l25 22q8 6 14 -2q45 -51 118 -51q136 0 136 145v69h-1q-37 -78 -141 -78q-122 0 -159 114q-16 49 -16 130t16 130q38 115 159 115q104 0 141 -78h1v58q0 10 10 10h34q10 0 10 -10v-458q0 -98 -50 -148.5t-141 -50.5z
M245 49q91 0 119 84q12 36 12 109t-12 109q-28 84 -119 84q-89 0 -117 -83q-14 -39 -14 -110t14 -109q27 -84 117 -84z" />
    <glyph glyph-name="h" unicode="h" horiz-adv-x="541" 
d="M445 0h-34q-10 0 -10 10v282q0 143 -125 143q-56 0 -93 -36t-37 -97v-292q0 -10 -10 -10h-34q-10 0 -10 10v660q0 10 10 10h34q10 0 10 -10v-260h1q39 77 141 77q80 0 123.5 -47.5t43.5 -134.5v-295q0 -10 -10 -10z" />
    <glyph glyph-name="i" unicode="i" horiz-adv-x="238" 
d="M141 604h-44q-10 0 -10 10v56q0 10 10 10h44q10 0 10 -10v-56q0 -10 -10 -10zM136 0h-34q-10 0 -10 10v457q0 10 10 10h34q10 0 10 -10v-457q0 -10 -10 -10z" />
    <glyph glyph-name="j" unicode="j" horiz-adv-x="238" 
d="M141 604h-44q-10 0 -10 10v56q0 10 10 10h44q10 0 10 -10v-56q0 -10 -10 -10zM23 -180h-11q-10 0 -10 10v32q0 10 10 10h9q41 0 56 14.5t15 58.5v522q0 10 10 10h34q10 0 10 -10v-521q0 -69 -28 -97.5t-95 -28.5z" />
    <glyph glyph-name="k" unicode="k" horiz-adv-x="500" 
d="M456 0h-41q-9 0 -15 10l-152 247l-102 -120v-127q0 -10 -10 -10h-34q-10 0 -10 10v660q0 10 10 10h34q10 0 10 -10v-458l216 255q9 10 17 10h41q4 0 6 -3.5t-1 -6.5l-141 -167l178 -290q2 -4 0 -7t-6 -3z" />
    <glyph glyph-name="l" unicode="l" horiz-adv-x="262" 
d="M213 -3h-23q-54 0 -76.5 26t-22.5 86v561q0 10 10 10h34q10 0 10 -10v-559q0 -35 11.5 -48.5t39.5 -13.5h17q10 0 10 -10v-32q0 -10 -10 -10z" />
    <glyph glyph-name="m" unicode="m" horiz-adv-x="850" 
d="M754 0h-34q-10 0 -10 10v282q0 143 -126 143q-56 0 -92.5 -36t-36.5 -97v-292q0 -10 -10 -10h-34q-10 0 -10 10v282q0 143 -125 143q-56 0 -93 -36t-37 -97v-292q0 -10 -10 -10h-34q-10 0 -10 10v457q0 10 10 10h34q10 0 10 -10v-57h1q39 77 141 77q111 0 148 -89h1
q45 89 157 89q81 0 125.5 -47.5t44.5 -134.5v-295q0 -10 -10 -10z" />
    <glyph glyph-name="n" unicode="n" horiz-adv-x="541" 
d="M445 0h-34q-10 0 -10 10v282q0 143 -125 143q-56 0 -93 -36t-37 -97v-292q0 -10 -10 -10h-34q-10 0 -10 10v457q0 10 10 10h34q10 0 10 -10v-57h1q39 77 141 77q80 0 123.5 -47.5t43.5 -134.5v-295q0 -10 -10 -10z" />
    <glyph glyph-name="o" unicode="o" horiz-adv-x="509" 
d="M254 -10q-65 0 -112 32.5t-66 91.5q-16 51 -16 125q0 73 16 124q19 59 66 91.5t112 32.5q66 0 113 -32.5t66 -91.5q16 -51 16 -124q0 -74 -16 -125q-19 -59 -66 -91.5t-113 -32.5zM254 42q97 0 127 89q13 39 13 108q0 68 -13 107q-30 89 -127 89q-96 0 -126 -89
q-13 -39 -13 -107q0 -69 13 -108q30 -89 126 -89z" />
    <glyph glyph-name="p" unicode="p" horiz-adv-x="531" 
d="M136 -180h-34q-10 0 -10 10v637q0 10 10 10h34q10 0 10 -10v-58h1q40 78 145 78q124 0 162 -114q17 -55 17 -135q0 -79 -17 -134q-38 -114 -162 -114q-105 0 -145 78h-1v-238q0 -10 -10 -10zM281 42q94 0 122 84q13 39 13 112q0 74 -13 113q-28 84 -122 84
q-95 0 -122 -84q-13 -38 -13 -113q0 -74 13 -112q27 -84 122 -84z" />
    <glyph glyph-name="q" unicode="q" horiz-adv-x="531" 
d="M429 -180h-34q-10 0 -10 10v238h-1q-40 -78 -145 -78q-124 0 -162 114q-17 55 -17 134q0 80 17 135q38 114 162 114q105 0 145 -78h1v58q0 10 10 10h34q10 0 10 -10v-637q0 -10 -10 -10zM250 42q95 0 122 84q13 38 13 112q0 75 -13 113q-27 84 -122 84q-94 0 -122 -84
q-13 -39 -13 -113q0 -73 13 -112q28 -84 122 -84z" />
    <glyph glyph-name="r" unicode="r" horiz-adv-x="396" 
d="M136 0h-34q-10 0 -10 10v457q0 10 10 10h34q10 0 10 -10v-61h1q31 81 128 81q58 0 96 -33q8 -5 2 -13l-20 -28q-5 -7 -15 -2q-38 24 -76 24q-59 0 -87.5 -44.5t-28.5 -116.5v-264q0 -10 -10 -10z" />
    <glyph glyph-name="s" unicode="s" horiz-adv-x="481" 
d="M241 -10q-106 0 -186 67q-7 7 0 14l22 25q6 6 14 0q69 -56 155 -56q61 0 92.5 25t31.5 67q0 38 -23 57.5t-86 26.5l-48 5q-139 14 -139 127q0 65 44.5 102t123.5 37q89 0 159 -46q8 -6 2 -14l-18 -24q-5 -8 -14 -3q-64 37 -132 37q-54 0 -82.5 -22.5t-28.5 -62.5
q0 -36 25 -55t85 -25l48 -5q138 -13 138 -128q0 -69 -47.5 -109t-135.5 -40z" />
    <glyph glyph-name="t" unicode="t" horiz-adv-x="311" 
d="M255 -3h-26q-68 0 -96 29.5t-28 99.5v297q0 6 -6 6h-50q-10 0 -10 10v28q0 10 10 10h50q6 0 6 6v137q0 10 10 10h34q10 0 10 -10v-137q0 -6 6 -6h90q10 0 10 -10v-28q0 -10 -10 -10h-90q-6 0 -6 -6v-294q0 -47 17 -63.5t60 -16.5h19q10 0 10 -10v-32q0 -10 -10 -10z" />
    <glyph glyph-name="u" unicode="u" horiz-adv-x="535" 
d="M433 0h-34q-10 0 -10 10v56h-1q-39 -76 -139 -76q-79 0 -122 47.5t-43 133.5v296q0 10 10 10h34q10 0 10 -10v-282q0 -143 123 -143q55 0 91.5 36t36.5 97v292q0 10 10 10h34q10 0 10 -10v-457q0 -10 -10 -10z" />
    <glyph glyph-name="v" unicode="v" horiz-adv-x="468" 
d="M250 0h-32q-9 0 -12 10l-173 457q-3 10 8 10h37q9 0 13 -10l144 -382h1l141 382q4 10 13 10h37q11 0 8 -10l-173 -457q-3 -10 -12 -10z" />
    <glyph glyph-name="w" unicode="w" horiz-adv-x="736" 
d="M536 0h-31q-9 0 -12 10l-124 381h-1l-126 -381q-3 -10 -12 -10h-30q-9 0 -12 10l-149 457q-3 10 7 10h36q9 0 13 -10l122 -381h1l124 381q3 10 12 10h29q9 0 12 -10l126 -381h1l119 381q4 10 13 10h36q10 0 7 -10l-149 -457q-3 -10 -12 -10z" />
    <glyph glyph-name="x" unicode="x" horiz-adv-x="463" 
d="M419 0h-41q-9 0 -14 8l-132 194h-1l-133 -194q-5 -8 -14 -8h-40q-12 0 -6 10l163 240l-147 217q-6 10 6 10h41q9 0 14 -8l116 -172h1l117 172q5 8 14 8h40q12 0 6 -10l-148 -217l164 -240q6 -10 -6 -10z" />
    <glyph glyph-name="y" unicode="y" horiz-adv-x="467" 
d="M103 -180h-21q-10 0 -10 10v32q0 10 10 10h18q32 0 51 18t39 71l19 49l-176 457q-3 10 7 10h38q9 0 13 -10l145 -383h1l141 383q3 10 12 10h38q10 0 7 -10l-195 -513q-30 -80 -59 -107t-78 -27z" />
    <glyph glyph-name="z" unicode="z" horiz-adv-x="467" 
d="M401 0h-333q-10 0 -10 10v30q0 7 5 13l283 371v1h-265q-10 0 -10 10v32q0 10 10 10h320q10 0 10 -10v-32q0 -7 -5 -13l-282 -369v-2h277q10 0 10 -10v-31q0 -10 -10 -10z" />
    <glyph glyph-name="braceleft" unicode="{" horiz-adv-x="318" 
d="M264 -84h-34q-48 0 -70 25t-22 80v199q0 81 -57 84q-10 2 -10 10v32q0 8 10 10q57 3 57 84v195q0 55 22 80t70 25h34q10 0 10 -10v-27q0 -10 -10 -10h-26q-49 0 -49 -56v-191q0 -55 -11.5 -79.5t-39.5 -35.5v-2q28 -11 39.5 -35t11.5 -80v-195q0 -56 49 -56h26
q10 0 10 -10v-27q0 -10 -10 -10z" />
    <glyph glyph-name="bar" unicode="|" horiz-adv-x="246" 
d="M137 -84h-28q-10 0 -10 10v804q0 10 10 10h28q10 0 10 -10v-804q0 -10 -10 -10z" />
    <glyph glyph-name="braceright" unicode="}" horiz-adv-x="318" 
d="M88 -84h-34q-10 0 -10 10v27q0 10 10 10h26q49 0 49 56v195q0 56 11.5 80t39.5 35v2q-28 11 -39.5 35.5t-11.5 79.5v191q0 56 -49 56h-26q-10 0 -10 10v27q0 10 10 10h34q48 0 70 -25t22 -80v-195q0 -81 57 -84q10 -2 10 -10v-32q0 -8 -10 -10q-57 -3 -57 -84v-199
q0 -55 -22 -80t-70 -25z" />
    <glyph glyph-name="asciitilde" unicode="~" 
d="M351 216q-43 0 -98 39q-46 32 -74 32q-47 0 -81 -57q-5 -8 -14 -2l-20 13q-7 5 -3 14q19 37 50.5 58t68.5 21q43 0 98 -39q46 -32 74 -32q46 0 81 57q5 9 15 2l19 -12q8 -5 3 -14q-41 -80 -119 -80z" />
    <glyph glyph-name="uni00A0" unicode="&#xa0;" horiz-adv-x="246" 
 />
    <glyph glyph-name="exclamdown" unicode="&#xa1;" horiz-adv-x="266" 
d="M144 300q10 0 10 -10l8 -483q0 -10 -10 -10h-39q-10 0 -10 10l8 483q0 10 10 10h23zM168 467v-67q0 -10 -10 -10h-50q-10 0 -10 10v67q0 10 10 10h50q10 0 10 -10z" />
    <glyph glyph-name="cent" unicode="&#xa2;" 
d="M296 568v-81q105 -6 150 -89q5 -8 -3 -14l-24 -20q-8 -8 -14 3q-21 34 -45.5 50t-63.5 18v-393q39 2 64 18.5t45 49.5q6 11 14 3l24 -20q7 -7 3 -15q-49 -82 -150 -88v-82q0 -10 -10 -10h-18q-10 0 -10 10v84q-121 11 -155 122q-16 52 -16 124t16 125q17 53 57 85t98 37
v83q0 10 10 10h18q10 0 10 -10zM142 238q0 -67 14 -107q24 -77 102 -88v390q-78 -11 -102 -88q-14 -40 -14 -107z" />
    <glyph glyph-name="sterling" unicode="&#xa3;" 
d="M440 0h-328q-10 0 -10 10v31q0 6 5 11q24 24 31.5 43.5t7.5 58.5v137q0 6 -6 6h-50q-10 0 -10 10v27q0 10 10 10h50q6 0 6 6v169q0 81 41 126t111 45q57 0 95 -32.5t51 -87.5q1 -9 -8 -12l-32 -9q-10 -3 -12 7q-19 82 -95 82q-44 0 -70 -28t-26 -84v-176q0 -6 6 -6h136
q10 0 10 -10v-27q0 -10 -10 -10h-136q-6 0 -6 -6v-131q0 -71 -32 -107v-1h271q10 0 10 -10v-32q0 -10 -10 -10z" />
    <glyph glyph-name="currency" unicode="&#xa4;" 
d="M482 129l-20 -23q-8 -6 -14 0l-65 65q-51 -38 -116 -38q-66 0 -117 38l-64 -64q-7 -7 -14 0l-20 22q-7 7 0 14l63 63q-37 49 -37 117q0 66 38 117l-64 64q-7 7 0 14l20 22q7 7 14 0l65 -65q49 38 116 38q64 0 115 -38l65 65q8 8 14 0l20 -22q8 -8 0 -14l-64 -64
q38 -51 38 -117t-37 -116l64 -64q6 -8 0 -14zM267 180q60 0 99.5 41t39.5 102t-39.5 102t-99.5 41t-100 -41.5t-40 -101.5t40 -101.5t100 -41.5z" />
    <glyph glyph-name="yen" unicode="&#xa5;" 
d="M283 0h-34q-10 0 -10 10v145q0 6 -6 6h-132q-10 0 -10 10v25q0 10 10 10h132q6 0 6 6v60q0 6 -6 6h-132q-10 0 -10 10v25q0 10 10 10h120v1l-161 343q-6 13 8 13h35q11 0 15 -10l148 -327h2l147 327q4 10 15 10h34q14 0 8 -13l-161 -343v-1h120q10 0 10 -10v-25
q0 -10 -10 -10h-132q-6 0 -6 -6v-60q0 -6 6 -6h132q10 0 10 -10v-25q0 -10 -10 -10h-132q-6 0 -6 -6v-145q0 -10 -10 -10z" />
    <glyph glyph-name="brokenbar" unicode="&#xa6;" horiz-adv-x="246" 
d="M137 388h-28q-10 0 -10 10v332q0 10 10 10h28q10 0 10 -10v-332q0 -10 -10 -10zM137 -84h-28q-10 0 -10 10v336q0 10 10 10h28q10 0 10 -10v-336q0 -10 -10 -10z" />
    <glyph glyph-name="section" unicode="&#xa7;" horiz-adv-x="530" 
d="M262 -190q-73 0 -115 39t-44 107q0 10 8 11l32 7q9 3 11 -7q0 -55 29.5 -81.5t78.5 -26.5t78.5 26t29.5 75q0 48 -31.5 74t-106.5 41q-140 29 -140 178q0 59 27.5 103.5t81.5 59.5v1q-46 22 -66.5 52t-20.5 79q0 62 43 102t110 40q70 0 109.5 -39t40.5 -96q0 -10 -7 -11
l-32 -7q-10 -3 -10 7q-2 45 -28 71t-72 26q-47 0 -74 -24.5t-27 -68.5q0 -48 29 -75t102 -42q140 -32 140 -178q0 -60 -27.5 -103.5t-78.5 -59.5v-1q90 -36 90 -131q0 -68 -45.5 -108t-114.5 -40zM265 124q54 0 87.5 34t33.5 95t-33.5 94.5t-87.5 33.5q-55 0 -88 -33.5
t-33 -94.5q0 -62 33 -95.5t88 -33.5z" />
    <glyph glyph-name="dieresis" unicode="&#xa8;" horiz-adv-x="421" 
d="M330 604h-40q-10 0 -10 10v56q0 10 10 10h40q10 0 10 -10v-56q0 -10 -10 -10zM131 604h-40q-10 0 -10 10v56q0 10 10 10h40q10 0 10 -10v-56q0 -10 -10 -10z" />
    <glyph glyph-name="copyright" unicode="&#xa9;" horiz-adv-x="830" 
d="M415 -10q-149 0 -249.5 100.5t-100.5 249.5t100.5 249.5t249.5 100.5t249.5 -100.5t100.5 -249.5t-100.5 -249.5t-249.5 -100.5zM415 32q131 0 219 88t88 220t-88 220t-219 88t-219 -88t-88 -220t88 -220t219 -88zM422 144q-53 0 -90.5 26t-53.5 76q-11 33 -11 94t11 94
q16 50 53.5 76t90.5 26q89 0 131 -70q5 -8 -4 -13l-17 -16q-8 -3 -14 3q-35 53 -96 53q-77 0 -101 -72q-9 -27 -9 -81t9 -81q24 -72 101 -72q61 0 96 53q6 6 14 3l17 -16q9 -5 4 -13q-42 -70 -131 -70z" />
    <glyph glyph-name="ordfeminine" unicode="&#xaa;" horiz-adv-x="340" 
d="M275 392h-24q-10 0 -10 10v20h-2q-25 -36 -93 -36q-45 0 -73 22.5t-28 63.5q0 91 120 91h69q6 0 6 6v20q0 31 -16 43.5t-60 12.5q-46 0 -75 -19q-8 -7 -14 1l-10 19q-6 9 2 14q35 27 101 27q64 0 90.5 -22t26.5 -75v-188q0 -10 -10 -10zM158 426q36 0 59 15.5t23 38.5v39
q0 6 -6 6h-65q-79 0 -79 -49q0 -24 18 -37t50 -13z" />
    <glyph glyph-name="guillemotleft" unicode="&#xab;" horiz-adv-x="528" 
d="M442 81l-171 176q-7 7 0 14l171 176q3 3 6.5 1.5t3.5 -5.5v-45q0 -11 -7 -18l-111 -112q-4 -4 0 -8l111 -112q7 -7 7 -18v-45q0 -4 -3.5 -5.5t-6.5 1.5zM240 81l-171 176q-7 7 0 14l171 176q3 3 6.5 1.5t3.5 -5.5v-45q0 -11 -7 -18l-111 -112q-4 -4 0 -8l111 -112
q7 -7 7 -18v-45q0 -4 -3.5 -5.5t-6.5 1.5z" />
    <glyph glyph-name="logicalnot" unicode="&#xac;" 
d="M456 117h-32q-10 0 -10 10v118q0 6 -6 6h-332q-10 0 -10 10v30q0 10 10 10h380q10 0 10 -10v-164q0 -10 -10 -10z" />
    <glyph glyph-name="uni00AD" unicode="&#xad;" horiz-adv-x="373" 
d="M315 241h-256q-10 0 -10 10v31q0 10 10 10h256q10 0 10 -10v-31q0 -10 -10 -10z" />
    <glyph glyph-name="registered" unicode="&#xae;" horiz-adv-x="459" 
d="M230 300q-82 0 -137.5 55t-55.5 138q0 82 55.5 137t137.5 55t137 -55t55 -137t-55 -137.5t-137 -55.5zM230 329q69 0 115.5 46.5t46.5 117.5q0 70 -46.5 116.5t-115.5 46.5q-70 0 -116.5 -46t-46.5 -117t46 -117.5t117 -46.5zM181 386h-15q-9 0 -9 9v198q0 9 9 9h79
q32 0 50 -17t18 -46q0 -47 -42 -59l42 -84q6 -10 -6 -10h-17q-5 0 -10 7l-42 83h-45q-3 0 -3 -2v-79q0 -9 -9 -9zM244 506q38 0 38 33q0 34 -38 34h-51q-3 0 -3 -2v-63q0 -2 3 -2h51z" />
    <glyph glyph-name="macron" unicode="&#xaf;" horiz-adv-x="421" 
d="M330 618h-240q-10 0 -10 10v26q0 10 10 10h240q10 0 10 -10v-26q0 -10 -10 -10z" />
    <glyph glyph-name="degree" unicode="&#xb0;" horiz-adv-x="448" 
d="M223 401q-61 0 -101.5 41t-40.5 102t40.5 102t101.5 41t102 -40.5t41 -102.5t-41 -102.5t-102 -40.5zM223 439q44 0 73 30t29 75t-28.5 75t-73.5 30q-44 0 -72.5 -30t-28.5 -75t28.5 -75t72.5 -30z" />
    <glyph glyph-name="plusminus" unicode="&#xb1;" 
d="M282 108h-32q-10 0 -10 10v160q0 6 -6 6h-158q-10 0 -10 10v30q0 10 10 10h158q6 0 6 6v160q0 10 10 10h32q10 0 10 -10v-160q0 -6 6 -6h158q10 0 10 -10v-30q0 -10 -10 -10h-158q-6 0 -6 -6v-160q0 -10 -10 -10zM456 0h-380q-10 0 -10 10v30q0 10 10 10h380q10 0 10 -10
v-30q0 -10 -10 -10z" />
    <glyph glyph-name="twosuperior" unicode="&#xb2;" horiz-adv-x="331" 
d="M278 430h-225q-10 0 -10 10v23q0 7 6 14l156 181q34 39 34 74q0 30 -19 49t-51 19q-60 0 -75 -60q-2 -10 -12 -8l-23 5q-10 2 -9 12q7 38 38.5 66t80.5 28q54 0 85 -31.5t31 -79.5t-44 -101l-137 -156v-2h174q10 0 10 -10v-23q0 -10 -10 -10z" />
    <glyph glyph-name="threesuperior" unicode="&#xb3;" horiz-adv-x="331" 
d="M166 423q-49 0 -81.5 22.5t-43.5 60.5q-3 9 6 12l25 7q8 3 12 -6q23 -53 81 -53q36 0 57.5 21.5t21.5 54.5t-22.5 55t-58.5 22h-18q-10 0 -10 10v23q0 10 10 10h15q34 0 54.5 19t20.5 51q0 31 -19.5 49.5t-53.5 18.5q-54 0 -73 -47q-3 -9 -11 -8l-23 6q-10 2 -8 11
q8 34 38 57.5t78 23.5q54 0 86 -30.5t32 -78.5q0 -57 -52 -90v-1q24 -10 42.5 -36t18.5 -64q0 -53 -34.5 -86.5t-89.5 -33.5z" />
    <glyph glyph-name="acute" unicode="&#xb4;" horiz-adv-x="421" 
d="M173 558h-25q-11 0 -6 10l77 122q6 10 17 10h38q5 0 6.5 -3t-1.5 -7l-88 -122q-9 -10 -18 -10z" />
    <glyph glyph-name="mu" unicode="&#xb5;" horiz-adv-x="541" 
d="M401 76h-1q-13 -33 -47.5 -59.5t-90.5 -26.5q-80 0 -114 53h-2v-213q0 -10 -10 -10h-34q-10 0 -10 10v637q0 10 10 10h34q10 0 10 -10v-292q0 -65 31.5 -99t91.5 -34q56 0 92 37t36 99v289q0 10 10 10h35q9 0 9 -10v-386q0 -20 7 -26t22 -6q11 0 11 -10v-32
q0 -10 -11 -10h-4q-36 0 -52 15t-21 48z" />
    <glyph glyph-name="paragraph" unicode="&#xb6;" horiz-adv-x="570" 
d="M471 -180h-31q-10 0 -10 10v794q0 6 -6 6h-96q-6 0 -6 -6v-794q0 -10 -10 -10h-31q-10 0 -10 10v436q-89 5 -141 62.5t-52 144.5q0 91 58 149t162 58h173q10 0 10 -10v-840q0 -10 -10 -10z" />
    <glyph glyph-name="periodcentered" unicode="&#xb7;" horiz-adv-x="219" 
d="M134 222h-49q-10 0 -10 10v67q0 10 10 10h49q10 0 10 -10v-67q0 -10 -10 -10z" />
    <glyph glyph-name="cedilla" unicode="&#xb8;" horiz-adv-x="421" 
d="M200 -148h-31q-10 0 -7 10l54 138q4 10 13 10h26q10 0 7 -10l-46 -138q-4 -10 -16 -10z" />
    <glyph glyph-name="onesuperior" unicode="&#xb9;" horiz-adv-x="331" 
d="M196 430h-26q-10 0 -10 10v339h-1l-69 -47q-10 -6 -10 5v32q0 10 7 14l68 47q9 6 16 6h25q10 0 10 -10v-386q0 -10 -10 -10z" />
    <glyph glyph-name="ordmasculine" unicode="&#xba;" horiz-adv-x="346" 
d="M173 385q-92 0 -119 80q-10 30 -10 71t10 71q27 80 119 80t119 -80q10 -30 10 -71t-10 -71q-27 -80 -119 -80zM173 428q57 0 73 52q8 22 8 56t-8 56q-16 52 -73 52t-73 -52q-8 -22 -8 -56t8 -56q16 -52 73 -52z" />
    <glyph glyph-name="guillemotright" unicode="&#xbb;" horiz-adv-x="528" 
d="M288 81q-3 -3 -6.5 -1.5t-3.5 5.5v45q0 11 7 18l111 112q4 4 0 8l-111 112q-7 7 -7 18v45q0 4 3.5 5.5t6.5 -1.5l171 -176q7 -7 0 -14zM86 81q-3 -3 -6.5 -1.5t-3.5 5.5v45q0 11 7 18l111 112q4 4 0 8l-111 112q-7 7 -7 18v45q0 4 3.5 5.5t6.5 -1.5l171 -176q7 -7 0 -14z
" />
    <glyph glyph-name="onequarter" unicode="&#xbc;" horiz-adv-x="828" 
d="M214 274h-26q-10 0 -10 10v339h-1l-69 -47q-10 -6 -10 5v32q0 10 7 14l68 47q9 6 16 6h25q10 0 10 -10v-386q0 -10 -10 -10zM669 0h-25q-10 0 -10 10v60q0 6 -6 6h-161q-10 0 -10 10v22q0 8 4 16l133 272q4 10 13 10h29q4 0 6 -3t0 -7l-133 -276v-1h119q6 0 6 6v98
q0 10 10 10h25q10 0 10 -10v-98q0 -6 6 -6h36q10 0 10 -10v-23q0 -10 -10 -10h-36q-6 0 -6 -6v-60q0 -10 -10 -10zM212 -10h-27q-11 0 -6 10l394 680q6 10 14 10h27q11 0 6 -10l-394 -680q-6 -10 -14 -10z" />
    <glyph glyph-name="onehalf" unicode="&#xbd;" horiz-adv-x="859" 
d="M214 274h-26q-10 0 -10 10v339h-1l-69 -47q-10 -6 -10 5v32q0 10 7 14l68 47q9 6 16 6h25q10 0 10 -10v-386q0 -10 -10 -10zM751 0h-225q-10 0 -10 10v23q0 7 6 14l156 181q34 39 34 74q0 30 -19 49t-51 19q-60 0 -75 -60q-2 -10 -12 -8l-23 5q-10 2 -9 12q7 38 38.5 66
t80.5 28q54 0 85 -31.5t31 -79.5t-44 -101l-137 -156v-2h174q10 0 10 -10v-23q0 -10 -10 -10zM212 -10h-27q-11 0 -6 10l394 680q6 10 14 10h27q11 0 6 -10l-394 -680q-6 -10 -14 -10z" />
    <glyph glyph-name="threequarters" unicode="&#xbe;" horiz-adv-x="897" 
d="M737 0h-25q-10 0 -10 10v60q0 6 -6 6h-161q-10 0 -10 10v22q0 8 4 16l133 272q4 10 13 10h29q5 0 6.5 -3t-0.5 -7l-133 -276v-1h119q6 0 6 6v98q0 10 10 10h25q10 0 10 -10v-98q0 -6 6 -6h36q10 0 10 -10v-23q0 -10 -10 -10h-36q-6 0 -6 -6v-60q0 -10 -10 -10zM223 267
q-49 0 -81.5 22.5t-43.5 60.5q-3 9 6 12l25 7q8 3 12 -6q23 -53 81 -53q36 0 57.5 21.5t21.5 54.5t-22.5 55t-58.5 22h-18q-10 0 -10 10v23q0 10 10 10h15q34 0 54.5 19t20.5 51q0 31 -19.5 49.5t-53.5 18.5q-54 0 -73 -47q-3 -9 -11 -8l-23 6q-10 2 -8 11q8 34 38 57.5
t78 23.5q54 0 86 -30.5t32 -78.5q0 -57 -52 -90v-1q24 -10 42.5 -36t18.5 -64q0 -53 -34.5 -86.5t-89.5 -33.5zM281 -10h-27q-11 0 -6 10l394 680q6 10 14 10h27q11 0 6 -10l-394 -680q-6 -10 -14 -10z" />
    <glyph glyph-name="questiondown" unicode="&#xbf;" horiz-adv-x="446" 
d="M253 293v-39q0 -57 -32 -98l-55 -73q-37 -45 -49 -72t-12 -59q0 -53 33 -83t85 -30q49 0 81 29t43 83q2 10 11 8l34 -6q10 -2 8 -12q-11 -69 -58 -111.5t-120 -42.5q-77 0 -124.5 46t-47.5 119q0 40 13.5 72t47.5 72l55 74q20 24 26 41.5t6 46.5v35q0 10 10 10h35
q10 0 10 -10zM261 467v-67q0 -10 -10 -10h-50q-10 0 -10 10v67q0 10 10 10h50q10 0 10 -10z" />
    <glyph glyph-name="Agrave" unicode="&#xc0;" horiz-adv-x="596" 
d="M31 10l238 660q3 10 12 10h36q9 0 12 -10l236 -660q3 -10 -7 -10h-39q-11 0 -13 10l-60 167h-296l-60 -167q-4 -10 -13 -10h-39q-10 0 -7 10zM169 232h258l-127 356h-3zM311 764h-26q-10 0 -18 9l-96 105q-3 4 -2 7t6 3h40q11 0 18 -10l82 -104q8 -10 -4 -10z" />
    <glyph glyph-name="Aacute" unicode="&#xc1;" horiz-adv-x="596" 
d="M31 10l238 660q3 10 12 10h36q9 0 12 -10l236 -660q3 -10 -7 -10h-39q-11 0 -13 10l-60 167h-296l-60 -167q-4 -10 -13 -10h-39q-10 0 -7 10zM169 232h258l-127 356h-3zM314 764h-26q-12 0 -4 10l82 104q7 10 18 10h40q4 0 5.5 -3t-1.5 -7l-96 -105q-8 -9 -18 -9z" />
    <glyph glyph-name="Acircumflex" unicode="&#xc2;" horiz-adv-x="596" 
d="M31 10l238 660q3 10 12 10h36q9 0 12 -10l236 -660q3 -10 -7 -10h-39q-11 0 -13 10l-60 167h-296l-60 -167q-4 -10 -13 -10h-39q-10 0 -7 10zM169 232h258l-127 356h-3zM411 754h-25q-10 0 -17 10l-71 85h-2l-70 -85q-9 -10 -17 -10h-25q-4 0 -5.5 3t1.5 7l90 123
q6 9 16 9h23q9 0 15 -9l91 -123q3 -4 2 -7t-6 -3z" />
    <glyph glyph-name="Atilde" unicode="&#xc3;" horiz-adv-x="596" 
d="M31 10l238 660q3 10 12 10h36q9 0 12 -10l236 -660q3 -10 -7 -10h-39q-11 0 -13 10l-60 167h-296l-60 -167q-4 -10 -13 -10h-39q-10 0 -7 10zM169 232h258l-127 356h-3zM350 782q-26 0 -60 21q-29 18 -49 18q-25 0 -58 -33q-9 -7 -9 3v30q0 7 8 15q27 30 61 30
q26 0 60 -20q26 -18 49 -18q28 0 59 33q3 3 5.5 2t2.5 -5v-30q0 -8 -7 -16q-30 -30 -62 -30z" />
    <glyph glyph-name="Adieresis" unicode="&#xc4;" horiz-adv-x="596" 
d="M31 10l238 660q3 10 12 10h36q9 0 12 -10l236 -660q3 -10 -7 -10h-39q-11 0 -13 10l-60 167h-296l-60 -167q-4 -10 -13 -10h-39q-10 0 -7 10zM169 232h258l-127 356h-3zM417 786h-39q-10 0 -10 10v56q0 10 10 10h39q10 0 10 -10v-56q0 -10 -10 -10zM217 786h-39
q-10 0 -10 10v56q0 10 10 10h39q10 0 10 -10v-56q0 -10 -10 -10z" />
    <glyph glyph-name="Aring" unicode="&#xc5;" horiz-adv-x="596" 
d="M31 10l238 660q3 10 12 10h36q9 0 12 -10l236 -660q3 -10 -7 -10h-39q-11 0 -13 10l-60 167h-296l-60 -167q-4 -10 -13 -10h-39q-10 0 -7 10zM169 232h258l-127 356h-3zM385 826q0 -38 -25 -63t-63 -25t-63 25t-25 63t25 63t63 25t63 -25t25 -63zM350 826q0 24 -14.5 40
t-38.5 16t-38.5 -16t-14.5 -40t14.5 -40t38.5 -16t38.5 16t14.5 40z" />
    <glyph glyph-name="AE" unicode="&#xc6;" horiz-adv-x="941" 
d="M878 0h-389q-10 0 -10 10v161q0 6 -6 6h-273l-104 -167q-5 -10 -14 -10h-44q-4 0 -6 3t0 7l407 661q6 9 15 9h424q10 0 10 -10v-34q0 -10 -10 -10h-336q-6 0 -6 -6v-242q0 -6 6 -6h289q10 0 10 -10v-34q0 -10 -10 -10h-289q-6 0 -6 -6v-252q0 -6 6 -6h336q10 0 10 -10
v-34q0 -10 -10 -10zM477 625l-243 -393h239q6 0 6 6v387h-2z" />
    <glyph glyph-name="Ccedilla" unicode="&#xc7;" horiz-adv-x="556" 
d="M262 -148h-31q-10 0 -7 10l50 129q-144 9 -191 151q-18 56 -18 198t18 198q51 152 215 152q146 0 205 -126q4 -9 -3 -13l-33 -16q-8 -5 -13 4q-52 97 -156 97q-120 0 -160 -113q-15 -45 -15 -183t15 -183q40 -113 160 -113q104 0 156 97q5 9 13 4l33 -16q7 -4 3 -13
q-53 -113 -182 -125l-43 -129q-4 -10 -16 -10z" />
    <glyph glyph-name="Egrave" unicode="&#xc8;" horiz-adv-x="556" 
d="M328 764h-26q-10 0 -18 9l-96 105q-3 4 -1.5 7t5.5 3h40q11 0 18 -10l82 -104q8 -10 -4 -10zM94 10v660q0 10 10 10h389q10 0 10 -10v-34q0 -10 -10 -10h-336q-6 0 -6 -6v-242q0 -6 6 -6h289q10 0 10 -10v-34q0 -10 -10 -10h-289q-6 0 -6 -6v-252q0 -6 6 -6h336
q10 0 10 -10v-34q0 -10 -10 -10h-389q-10 0 -10 10z" />
    <glyph glyph-name="Eacute" unicode="&#xc9;" horiz-adv-x="556" 
d="M283 764h-26q-12 0 -4 10l82 104q7 10 18 10h40q5 0 6 -3t-2 -7l-96 -105q-8 -9 -18 -9zM94 10v660q0 10 10 10h389q10 0 10 -10v-34q0 -10 -10 -10h-336q-6 0 -6 -6v-242q0 -6 6 -6h289q10 0 10 -10v-34q0 -10 -10 -10h-289q-6 0 -6 -6v-252q0 -6 6 -6h336q10 0 10 -10
v-34q0 -10 -10 -10h-389q-10 0 -10 10z" />
    <glyph glyph-name="Ecircumflex" unicode="&#xca;" horiz-adv-x="556" 
d="M94 10v660q0 10 10 10h389q10 0 10 -10v-34q0 -10 -10 -10h-336q-6 0 -6 -6v-242q0 -6 6 -6h289q10 0 10 -10v-34q0 -10 -10 -10h-289q-6 0 -6 -6v-252q0 -6 6 -6h336q10 0 10 -10v-34q0 -10 -10 -10h-389q-10 0 -10 10zM412 754h-25q-9 0 -17 10l-71 85h-2l-70 -85
q-9 -10 -17 -10h-25q-5 0 -6 3t2 7l90 123q6 9 16 9h23q9 0 15 -9l91 -123q3 -4 1.5 -7t-5.5 -3z" />
    <glyph glyph-name="Edieresis" unicode="&#xcb;" horiz-adv-x="556" 
d="M413 786h-39q-10 0 -10 10v56q0 10 10 10h39q10 0 10 -10v-56q0 -10 -10 -10zM213 786h-39q-10 0 -10 10v56q0 10 10 10h39q10 0 10 -10v-56q0 -10 -10 -10zM94 10v660q0 10 10 10h389q10 0 10 -10v-34q0 -10 -10 -10h-336q-6 0 -6 -6v-242q0 -6 6 -6h289q10 0 10 -10
v-34q0 -10 -10 -10h-289q-6 0 -6 -6v-252q0 -6 6 -6h336q10 0 10 -10v-34q0 -10 -10 -10h-389q-10 0 -10 10z" />
    <glyph glyph-name="Igrave" unicode="&#xcc;" horiz-adv-x="245" 
d="M94 10v660q0 10 10 10h37q10 0 10 -10v-660q0 -10 -10 -10h-37q-10 0 -10 10zM140 764h-26q-10 0 -18 9l-96 105q-3 4 -1.5 7t5.5 3h40q11 0 18 -10l82 -104q8 -10 -4 -10z" />
    <glyph glyph-name="Iacute" unicode="&#xcd;" horiz-adv-x="245" 
d="M94 10v660q0 10 10 10h37q10 0 10 -10v-660q0 -10 -10 -10h-37q-10 0 -10 10zM138 764h-26q-12 0 -4 10l82 104q7 10 18 10h40q4 0 5.5 -3t-1.5 -7l-96 -105q-8 -9 -18 -9z" />
    <glyph glyph-name="Icircumflex" unicode="&#xce;" horiz-adv-x="245" 
d="M94 10v660q0 10 10 10h37q10 0 10 -10v-660q0 -10 -10 -10h-37q-10 0 -10 10zM237 754h-25q-10 0 -17 10l-71 85h-2l-70 -85q-9 -10 -17 -10h-25q-4 0 -5.5 3t1.5 7l90 123q6 9 16 9h23q9 0 15 -9l91 -123q3 -4 2 -7t-6 -3z" />
    <glyph glyph-name="Idieresis" unicode="&#xcf;" horiz-adv-x="245" 
d="M94 10v660q0 10 10 10h37q10 0 10 -10v-660q0 -10 -10 -10h-37q-10 0 -10 10zM243 786h-39q-10 0 -10 10v56q0 10 10 10h39q10 0 10 -10v-56q0 -10 -10 -10zM43 786h-39q-10 0 -10 10v56q0 10 10 10h39q10 0 10 -10v-56q0 -10 -10 -10z" />
    <glyph glyph-name="Eth" unicode="&#xd0;" horiz-adv-x="620" 
d="M317 0h-213q-10 0 -10 10v304q0 6 -6 6h-40q-10 0 -10 10v30q0 10 10 10h40q6 0 6 6v294q0 10 10 10h213q172 0 217 -138q19 -58 19 -202t-19 -202q-45 -138 -217 -138zM309 54q136 0 170 103q16 48 16 183t-16 183q-34 103 -170 103h-152q-6 0 -6 -6v-244q0 -6 6 -6h130
q10 0 10 -10v-30q0 -10 -10 -10h-130q-6 0 -6 -6v-254q0 -6 6 -6h152z" />
    <glyph glyph-name="Ntilde" unicode="&#xd1;" horiz-adv-x="651" 
d="M378 782q-26 0 -60 21q-29 18 -49 18q-25 0 -58 -33q-9 -7 -9 3v30q0 7 8 15q27 30 61 30q26 0 60 -20q26 -18 49 -18q28 0 59 33q3 3 5.5 2t2.5 -5v-30q0 -8 -7 -16q-30 -30 -62 -30zM94 10v660q0 10 10 10h37q12 0 17 -10l339 -559h3v559q0 10 10 10h37q10 0 10 -10
v-660q0 -10 -10 -10h-39q-11 0 -17 10l-336 560h-4v-560q0 -10 -10 -10h-37q-10 0 -10 10z" />
    <glyph glyph-name="Ograve" unicode="&#xd2;" horiz-adv-x="609" 
d="M334 764h-26q-10 0 -18 9l-96 105q-3 4 -1.5 7t5.5 3h40q11 0 18 -10l82 -104q8 -10 -4 -10zM305 -10q-170 0 -220 153q-20 60 -20 197t20 197q50 153 220 153q169 0 219 -153q20 -60 20 -197t-20 -197q-50 -153 -219 -153zM486 340q0 130 -17 181q-38 115 -164 115
q-127 0 -165 -115q-17 -51 -17 -181t17 -181q38 -115 165 -115q126 0 164 115q17 51 17 181z" />
    <glyph glyph-name="Oacute" unicode="&#xd3;" horiz-adv-x="609" 
d="M300 764h-26q-12 0 -4 10l82 104q7 10 18 10h40q4 0 5.5 -3t-1.5 -7l-96 -105q-8 -9 -18 -9zM305 -10q-170 0 -220 153q-20 60 -20 197t20 197q50 153 220 153q169 0 219 -153q20 -60 20 -197t-20 -197q-50 -153 -219 -153zM486 340q0 130 -17 181q-38 115 -164 115
q-127 0 -165 -115q-17 -51 -17 -181t17 -181q38 -115 165 -115q126 0 164 115q17 51 17 181z" />
    <glyph glyph-name="Ocircumflex" unicode="&#xd4;" horiz-adv-x="609" 
d="M305 -10q-170 0 -220 153q-20 60 -20 197t20 197q50 153 220 153q169 0 219 -153q20 -60 20 -197t-20 -197q-50 -153 -219 -153zM486 340q0 130 -17 181q-38 115 -164 115q-127 0 -165 -115q-17 -51 -17 -181t17 -181q38 -115 165 -115q126 0 164 115q17 51 17 181z
M418 754h-25q-9 0 -17 10l-71 85h-2l-70 -85q-9 -10 -17 -10h-25q-5 0 -6 3t2 7l90 123q6 9 16 9h23q9 0 15 -9l91 -123q3 -4 1.5 -7t-5.5 -3z" />
    <glyph glyph-name="Otilde" unicode="&#xd5;" horiz-adv-x="609" 
d="M358 782q-26 0 -60 21q-29 18 -49 18q-25 0 -58 -33q-9 -7 -9 3v30q0 7 8 15q27 30 61 30q26 0 60 -20q26 -18 49 -18q28 0 59 33q3 3 5.5 2t2.5 -5v-30q0 -8 -7 -16q-30 -30 -62 -30zM305 -10q-170 0 -220 153q-20 60 -20 197t20 197q50 153 220 153q169 0 219 -153
q20 -60 20 -197t-20 -197q-50 -153 -219 -153zM486 340q0 130 -17 181q-38 115 -164 115q-127 0 -165 -115q-17 -51 -17 -181t17 -181q38 -115 165 -115q126 0 164 115q17 51 17 181z" />
    <glyph glyph-name="Odieresis" unicode="&#xd6;" horiz-adv-x="609" 
d="M424 786h-39q-10 0 -10 10v56q0 10 10 10h39q10 0 10 -10v-56q0 -10 -10 -10zM224 786h-39q-10 0 -10 10v56q0 10 10 10h39q10 0 10 -10v-56q0 -10 -10 -10zM305 -10q-170 0 -220 153q-20 60 -20 197t20 197q50 153 220 153q169 0 219 -153q20 -60 20 -197t-20 -197
q-50 -153 -219 -153zM486 340q0 130 -17 181q-38 115 -164 115q-127 0 -165 -115q-17 -51 -17 -181t17 -181q38 -115 165 -115q126 0 164 115q17 51 17 181z" />
    <glyph glyph-name="multiply" unicode="&#xd7;" 
d="M432 131l-20 -22q-7 -7 -14 0l-127 127q-4 4 -8 0l-128 -127q-7 -7 -14 0l-20 22q-7 7 0 14l127 127q4 4 0 8l-127 127q-7 7 0 14l20 22q7 7 14 0l128 -127q4 -4 8 0l127 127q7 7 14 0l20 -22q7 -7 0 -14l-127 -127q-4 -4 0 -8l127 -127q7 -7 0 -14z" />
    <glyph glyph-name="Oslash" unicode="&#xd8;" horiz-adv-x="609" 
d="M305 -10q-92 0 -151 48l-33 -58q-5 -10 -15 -10h-24q-11 0 -6 10l49 86q-25 33 -40 77q-20 60 -20 197t20 197q50 153 220 153q91 0 150 -48l33 58q5 10 15 10h24q11 0 6 -10l-50 -87q26 -32 41 -76q20 -60 20 -197t-20 -197q-50 -153 -219 -153zM140 159q6 -20 17 -38
l269 471q-46 44 -121 44q-127 0 -165 -115q-17 -51 -17 -181t17 -181zM486 340q0 130 -17 181q-10 26 -17 37l-269 -471q44 -43 122 -43q126 0 164 115q17 51 17 181z" />
    <glyph glyph-name="Ugrave" unicode="&#xd9;" horiz-adv-x="635" 
d="M346 764h-26q-10 0 -18 9l-96 105q-3 4 -1.5 7t5.5 3h40q11 0 18 -10l82 -104q8 -10 -4 -10zM144 670v-436q0 -94 45 -142t128 -48t128.5 48t45.5 142v436q0 10 10 10h37q10 0 10 -10v-435q0 -122 -61 -183.5t-170 -61.5q-108 0 -169 62t-61 183v435q0 10 10 10h37
q10 0 10 -10z" />
    <glyph glyph-name="Uacute" unicode="&#xda;" horiz-adv-x="635" 
d="M312 764h-26q-12 0 -4 10l82 104q7 10 18 10h40q4 0 5.5 -3t-1.5 -7l-96 -105q-8 -9 -18 -9zM144 670v-436q0 -94 45 -142t128 -48t128.5 48t45.5 142v436q0 10 10 10h37q10 0 10 -10v-435q0 -122 -61 -183.5t-170 -61.5q-108 0 -169 62t-61 183v435q0 10 10 10h37
q10 0 10 -10z" />
    <glyph glyph-name="Ucircumflex" unicode="&#xdb;" horiz-adv-x="635" 
d="M144 670v-436q0 -94 45 -142t128 -48t128.5 48t45.5 142v436q0 10 10 10h37q10 0 10 -10v-435q0 -122 -61 -183.5t-170 -61.5q-108 0 -169 62t-61 183v435q0 10 10 10h37q10 0 10 -10zM431 754h-25q-10 0 -17 10l-71 85h-2l-70 -85q-9 -10 -17 -10h-25q-4 0 -5.5 3t1.5 7
l90 123q6 9 16 9h23q9 0 15 -9l91 -123q3 -4 2 -7t-6 -3z" />
    <glyph glyph-name="Udieresis" unicode="&#xdc;" horiz-adv-x="635" 
d="M437 786h-39q-10 0 -10 10v56q0 10 10 10h39q10 0 10 -10v-56q0 -10 -10 -10zM237 786h-39q-10 0 -10 10v56q0 10 10 10h39q10 0 10 -10v-56q0 -10 -10 -10zM144 670v-436q0 -94 45 -142t128 -48t128.5 48t45.5 142v436q0 10 10 10h37q10 0 10 -10v-435
q0 -122 -61 -183.5t-170 -61.5q-108 0 -169 62t-61 183v435q0 10 10 10h37q10 0 10 -10z" />
    <glyph glyph-name="Yacute" unicode="&#xdd;" horiz-adv-x="515" 
d="M276 0h-37q-10 0 -10 10v269l-204 390q-4 11 8 11h39q10 0 15 -10l171 -325h3l168 325q5 10 15 10h38q12 0 8 -11l-204 -390v-269q0 -10 -10 -10zM261 764h-26q-12 0 -4 10l82 104q7 10 18 10h40q5 0 6 -3t-2 -7l-96 -105q-8 -9 -18 -9z" />
    <glyph glyph-name="Thorn" unicode="&#xde;" horiz-adv-x="585" 
d="M141 0h-37q-10 0 -10 10v660q0 10 10 10h37q10 0 10 -10v-125q0 -6 6 -6h174q97 0 153 -51.5t56 -140.5t-56 -141t-153 -52h-174q-6 0 -6 -6v-138q0 -10 -10 -10zM329 208q74 0 114 36.5t40 102.5t-40 102t-114 36h-172q-6 0 -6 -6v-265q0 -6 6 -6h172z" />
    <glyph glyph-name="germandbls" unicode="&#xdf;" horiz-adv-x="539" 
d="M297 -5h-15q-10 0 -10 10v32q0 10 10 10h14q47 0 73.5 14.5t38.5 49.5q9 26 9 110q0 86 -10 113q-20 63 -113 65h-12q-10 0 -10 10v32q0 10 10 10h15q57 0 83.5 22t26.5 70q0 46 -32 71t-92 25q-74 0 -105.5 -33t-31.5 -110v-486q0 -10 -10 -10h-34q-10 0 -10 10v486
q0 97 44.5 145.5t145.5 48.5q88 0 133.5 -38.5t45.5 -108.5q0 -86 -71 -116v-2q52 -19 70 -74q11 -34 11 -130q0 -92 -11 -132q-31 -94 -163 -94z" />
    <glyph glyph-name="agrave" unicode="&#xe0;" horiz-adv-x="513" 
d="M250 437q-76 0 -120 -36q-9 -7 -15 1l-17 25q-5 8 3 14q54 46 152 46q94 0 134 -35.5t40 -122.5v-319q0 -10 -10 -10h-32q-10 0 -10 10v50h-1q-15 -31 -53.5 -50.5t-94.5 -19.5q-74 0 -117 36.5t-43 104.5q0 141 181 141h121q6 0 6 6v49q0 60 -26.5 85t-97.5 25zM237 40
q62 0 99.5 29t37.5 78v73q0 6 -6 6h-114q-70 0 -102.5 -23t-32.5 -71q0 -45 30.5 -68.5t87.5 -23.5zM307 558h-25q-9 0 -18 10l-88 122q-3 4 -1.5 7t6.5 3h38q10 0 16 -10l77 -122q7 -10 -5 -10z" />
    <glyph glyph-name="aacute" unicode="&#xe1;" horiz-adv-x="513" 
d="M250 437q-76 0 -120 -36q-9 -7 -15 1l-17 25q-5 8 3 14q54 46 152 46q94 0 134 -35.5t40 -122.5v-319q0 -10 -10 -10h-32q-10 0 -10 10v50h-1q-15 -31 -53.5 -50.5t-94.5 -19.5q-74 0 -117 36.5t-43 104.5q0 141 181 141h121q6 0 6 6v49q0 60 -26.5 85t-97.5 25zM237 40
q62 0 99.5 29t37.5 78v73q0 6 -6 6h-114q-70 0 -102.5 -23t-32.5 -71q0 -45 30.5 -68.5t87.5 -23.5zM261 558h-25q-11 0 -6 10l77 122q6 10 17 10h38q5 0 6.5 -3t-1.5 -7l-88 -122q-9 -10 -18 -10z" />
    <glyph glyph-name="acircumflex" unicode="&#xe2;" horiz-adv-x="513" 
d="M250 437q-76 0 -120 -36q-9 -7 -15 1l-17 25q-5 8 3 14q54 46 152 46q94 0 134 -35.5t40 -122.5v-319q0 -10 -10 -10h-32q-10 0 -10 10v50h-1q-15 -31 -53.5 -50.5t-94.5 -19.5q-74 0 -117 36.5t-43 104.5q0 141 181 141h121q6 0 6 6v49q0 60 -26.5 85t-97.5 25zM237 40
q62 0 99.5 29t37.5 78v73q0 6 -6 6h-114q-70 0 -102.5 -23t-32.5 -71q0 -45 30.5 -68.5t87.5 -23.5zM370 558h-25q-9 0 -17 10l-71 85h-2l-70 -85q-9 -10 -17 -10h-25q-5 0 -6 3t2 7l90 123q6 9 16 9h23q9 0 15 -9l91 -123q3 -4 1.5 -7t-5.5 -3z" />
    <glyph glyph-name="atilde" unicode="&#xe3;" horiz-adv-x="513" 
d="M250 437q-76 0 -120 -36q-9 -7 -15 1l-17 25q-5 8 3 14q54 46 152 46q94 0 134 -35.5t40 -122.5v-319q0 -10 -10 -10h-32q-10 0 -10 10v50h-1q-15 -31 -53.5 -50.5t-94.5 -19.5q-74 0 -117 36.5t-43 104.5q0 141 181 141h121q6 0 6 6v49q0 60 -26.5 85t-97.5 25zM237 40
q62 0 99.5 29t37.5 78v73q0 6 -6 6h-114q-70 0 -102.5 -23t-32.5 -71q0 -45 30.5 -68.5t87.5 -23.5zM309 596q-26 0 -60 21q-29 18 -49 18q-25 0 -58 -33q-9 -7 -9 3v30q0 7 8 15q27 30 61 30q26 0 60 -20q26 -18 49 -18q28 0 59 33q3 3 5.5 2t2.5 -5v-30q0 -8 -7 -16
q-30 -30 -62 -30z" />
    <glyph glyph-name="adieresis" unicode="&#xe4;" horiz-adv-x="513" 
d="M250 437q-76 0 -120 -36q-9 -7 -15 1l-17 25q-5 8 3 14q54 46 152 46q94 0 134 -35.5t40 -122.5v-319q0 -10 -10 -10h-32q-10 0 -10 10v50h-1q-15 -31 -53.5 -50.5t-94.5 -19.5q-74 0 -117 36.5t-43 104.5q0 141 181 141h121q6 0 6 6v49q0 60 -26.5 85t-97.5 25zM237 40
q62 0 99.5 29t37.5 78v73q0 6 -6 6h-114q-70 0 -102.5 -23t-32.5 -71q0 -45 30.5 -68.5t87.5 -23.5zM375 604h-40q-10 0 -10 10v56q0 10 10 10h40q10 0 10 -10v-56q0 -10 -10 -10zM176 604h-40q-10 0 -10 10v56q0 10 10 10h40q10 0 10 -10v-56q0 -10 -10 -10z" />
    <glyph glyph-name="aring" unicode="&#xe5;" horiz-adv-x="513" 
d="M250 437q-76 0 -120 -36q-9 -7 -15 1l-17 25q-5 8 3 14q54 46 152 46q94 0 134 -35.5t40 -122.5v-319q0 -10 -10 -10h-32q-10 0 -10 10v50h-1q-15 -31 -53.5 -50.5t-94.5 -19.5q-74 0 -117 36.5t-43 104.5q0 141 181 141h121q6 0 6 6v49q0 60 -26.5 85t-97.5 25zM237 40
q62 0 99.5 29t37.5 78v73q0 6 -6 6h-114q-70 0 -102.5 -23t-32.5 -71q0 -45 30.5 -68.5t87.5 -23.5zM346 629q0 -38 -25 -63t-63 -25t-63 25t-25 63t25 63t63 25t63 -25t25 -63zM311 629q0 24 -14.5 40t-38.5 16t-38.5 -16t-14.5 -40t14.5 -40t38.5 -16t38.5 16t14.5 40z
" />
    <glyph glyph-name="ae" unicode="&#xe6;" horiz-adv-x="814" 
d="M250 437q-76 0 -120 -36q-9 -7 -15 1l-17 25q-5 8 3 14q54 46 152 46q132 0 157 -80h2q47 80 151 80q65 0 112 -32t66 -92q14 -42 14 -127q0 -10 -11 -10h-311q-6 0 -6 -7q0 -53 10 -84q32 -93 135 -93q84 0 133 61q6 8 14 2l23 -21q7 -6 1 -14q-60 -80 -174 -80
q-119 0 -167 93h-1q-39 -93 -175 -93q-74 0 -117 36.5t-43 104.5q0 141 181 141h121q6 0 6 6v49q0 60 -26.5 85t-97.5 25zM433 272h261q6 0 6 6q0 40 -9 69q-29 90 -128 90q-98 0 -127 -90q-9 -29 -9 -69q0 -6 6 -6zM237 40q62 0 99.5 29t37.5 78v73q0 6 -6 6h-114
q-70 0 -102.5 -23t-32.5 -71q0 -45 30.5 -68.5t87.5 -23.5z" />
    <glyph glyph-name="ccedilla" unicode="&#xe7;" horiz-adv-x="470" 
d="M217 -148h-31q-10 0 -7 10l50 130q-57 5 -97.5 37t-56.5 85q-15 50 -15 124q0 75 15 125q19 59 65.5 91.5t112.5 32.5q107 0 161 -90q5 -8 -3 -13l-28 -18q-8 -5 -13 4q-41 65 -117 65q-96 0 -125 -90q-13 -38 -13 -107q0 -68 13 -106q29 -90 125 -90q76 0 117 65
q5 9 13 4l28 -18q8 -5 3 -13q-49 -80 -138 -89l-43 -129q-4 -10 -16 -10z" />
    <glyph glyph-name="egrave" unicode="&#xe8;" horiz-adv-x="502" 
d="M257 -10q-142 0 -183 126q-14 45 -14 123q0 79 14 124q19 60 65.5 92t111.5 32t112 -32t66 -92q14 -42 14 -127q0 -10 -11 -10h-311q-6 0 -6 -7q0 -53 10 -84q32 -93 135 -93q84 0 133 61q6 8 14 2l23 -21q7 -6 1 -14q-60 -80 -174 -80zM121 272h261q6 0 6 6q0 40 -9 69
q-29 90 -128 90q-98 0 -127 -90q-9 -29 -9 -69q0 -6 6 -6zM280 558h-25q-9 0 -18 10l-88 122q-3 4 -1.5 7t6.5 3h38q10 0 16 -10l77 -122q7 -10 -5 -10z" />
    <glyph glyph-name="eacute" unicode="&#xe9;" horiz-adv-x="502" 
d="M250 558h-25q-11 0 -6 10l77 122q6 10 17 10h38q5 0 6.5 -3t-1.5 -7l-88 -122q-9 -10 -18 -10zM257 -10q-142 0 -183 126q-14 45 -14 123q0 79 14 124q19 60 65.5 92t111.5 32t112 -32t66 -92q14 -42 14 -127q0 -10 -11 -10h-311q-6 0 -6 -7q0 -53 10 -84q32 -93 135 -93
q84 0 133 61q6 8 14 2l23 -21q7 -6 1 -14q-60 -80 -174 -80zM121 272h261q6 0 6 6q0 40 -9 69q-29 90 -128 90q-98 0 -127 -90q-9 -29 -9 -69q0 -6 6 -6z" />
    <glyph glyph-name="ecircumflex" unicode="&#xea;" horiz-adv-x="502" 
d="M364 558h-25q-9 0 -17 10l-71 85h-2l-70 -85q-9 -10 -17 -10h-25q-5 0 -6 3t2 7l90 123q6 9 16 9h23q9 0 15 -9l91 -123q3 -4 1.5 -7t-5.5 -3zM257 -10q-142 0 -183 126q-14 45 -14 123q0 79 14 124q19 60 65.5 92t111.5 32t112 -32t66 -92q14 -42 14 -127q0 -10 -11 -10
h-311q-6 0 -6 -7q0 -53 10 -84q32 -93 135 -93q84 0 133 61q6 8 14 2l23 -21q7 -6 1 -14q-60 -80 -174 -80zM121 272h261q6 0 6 6q0 40 -9 69q-29 90 -128 90q-98 0 -127 -90q-9 -29 -9 -69q0 -6 6 -6z" />
    <glyph glyph-name="edieresis" unicode="&#xeb;" horiz-adv-x="502" 
d="M370 604h-40q-10 0 -10 10v56q0 10 10 10h40q10 0 10 -10v-56q0 -10 -10 -10zM171 604h-40q-10 0 -10 10v56q0 10 10 10h40q10 0 10 -10v-56q0 -10 -10 -10zM257 -10q-142 0 -183 126q-14 45 -14 123q0 79 14 124q19 60 65.5 92t111.5 32t112 -32t66 -92q14 -42 14 -127
q0 -10 -11 -10h-311q-6 0 -6 -7q0 -53 10 -84q32 -93 135 -93q84 0 133 61q6 8 14 2l23 -21q7 -6 1 -14q-60 -80 -174 -80zM121 272h261q6 0 6 6q0 40 -9 69q-29 90 -128 90q-98 0 -127 -90q-9 -29 -9 -69q0 -6 6 -6z" />
    <glyph glyph-name="igrave" unicode="&#xec;" horiz-adv-x="238" 
d="M136 0h-34q-10 0 -10 10v457q0 10 10 10h34q10 0 10 -10v-457q0 -10 -10 -10zM133 558h-25q-9 0 -18 10l-88 122q-3 4 -1.5 7t6.5 3h38q10 0 16 -10l77 -122q7 -10 -5 -10z" />
    <glyph glyph-name="iacute" unicode="&#xed;" horiz-adv-x="238" 
d="M132 558h-25q-11 0 -6 10l77 122q6 10 17 10h38q5 0 6.5 -3t-1.5 -7l-88 -122q-9 -10 -18 -10zM136 0h-34q-10 0 -10 10v457q0 10 10 10h34q10 0 10 -10v-457q0 -10 -10 -10z" />
    <glyph glyph-name="icircumflex" unicode="&#xee;" horiz-adv-x="238" 
d="M233 558h-25q-10 0 -17 10l-71 85h-2l-70 -85q-9 -10 -17 -10h-25q-4 0 -5.5 3t1.5 7l90 123q6 9 16 9h23q9 0 15 -9l91 -123q3 -4 2 -7t-6 -3zM136 0h-34q-10 0 -10 10v457q0 10 10 10h34q10 0 10 -10v-457q0 -10 -10 -10z" />
    <glyph glyph-name="idieresis" unicode="&#xef;" horiz-adv-x="238" 
d="M239 604h-40q-10 0 -10 10v56q0 10 10 10h40q10 0 10 -10v-56q0 -10 -10 -10zM40 604h-40q-10 0 -10 10v56q0 10 10 10h40q10 0 10 -10v-56q0 -10 -10 -10zM136 0h-34q-10 0 -10 10v457q0 10 10 10h34q10 0 10 -10v-457q0 -10 -10 -10z" />
    <glyph glyph-name="eth" unicode="&#xf0;" horiz-adv-x="509" 
d="M369 599l-76 -23l39 -47q64 -79 90.5 -143t26.5 -142q0 -80 -15 -130q-19 -59 -66 -91.5t-113 -32.5q-67 0 -113 32.5t-66 91.5q-16 48 -16 119q0 72 16 120q19 58 63 90t103 32q48 0 88 -27h1l-90 112l-96 -29q-12 -3 -14 7l-7 25q-1 9 8 12l78 23l-57 72q-3 4 -1.5 7
t6.5 3h42q9 0 17 -10l45 -56l94 28q11 3 13 -6l7 -24q2 -10 -7 -13zM255 42q46 0 79 23t47 65q13 39 13 103q0 63 -13 101q-14 43 -47 67t-79 24q-97 0 -127 -89q-13 -38 -13 -103q0 -64 13 -103q29 -88 127 -88z" />
    <glyph glyph-name="ntilde" unicode="&#xf1;" horiz-adv-x="541" 
d="M445 0h-34q-10 0 -10 10v282q0 143 -125 143q-56 0 -93 -36t-37 -97v-292q0 -10 -10 -10h-34q-10 0 -10 10v457q0 10 10 10h34q10 0 10 -10v-57h1q39 77 141 77q80 0 123.5 -47.5t43.5 -134.5v-295q0 -10 -10 -10zM323 596q-26 0 -60 21q-29 18 -49 18q-25 0 -58 -33
q-9 -7 -9 3v30q0 7 8 15q27 30 61 30q26 0 60 -20q26 -18 49 -18q28 0 59 33q3 3 5.5 2t2.5 -5v-30q0 -8 -7 -16q-30 -30 -62 -30z" />
    <glyph glyph-name="ograve" unicode="&#xf2;" horiz-adv-x="509" 
d="M254 -10q-65 0 -112 32.5t-66 91.5q-16 51 -16 125q0 73 16 124q19 59 66 91.5t112 32.5q66 0 113 -32.5t66 -91.5q16 -51 16 -124q0 -74 -16 -125q-19 -59 -66 -91.5t-113 -32.5zM254 42q97 0 127 89q13 39 13 108q0 68 -13 107q-30 89 -127 89q-96 0 -126 -89
q-13 -39 -13 -107q0 -69 13 -108q30 -89 126 -89zM280 558h-25q-9 0 -18 10l-88 122q-3 4 -1.5 7t6.5 3h38q10 0 16 -10l77 -122q7 -10 -5 -10z" />
    <glyph glyph-name="oacute" unicode="&#xf3;" horiz-adv-x="509" 
d="M253 558h-25q-11 0 -6 10l77 122q6 10 17 10h38q5 0 6.5 -3t-1.5 -7l-88 -122q-9 -10 -18 -10zM254 -10q-65 0 -112 32.5t-66 91.5q-16 51 -16 125q0 73 16 124q19 59 66 91.5t112 32.5q66 0 113 -32.5t66 -91.5q16 -51 16 -124q0 -74 -16 -125q-19 -59 -66 -91.5
t-113 -32.5zM254 42q97 0 127 89q13 39 13 108q0 68 -13 107q-30 89 -127 89q-96 0 -126 -89q-13 -39 -13 -107q0 -69 13 -108q30 -89 126 -89z" />
    <glyph glyph-name="ocircumflex" unicode="&#xf4;" horiz-adv-x="509" 
d="M367 558h-25q-10 0 -17 10l-71 85h-2l-70 -85q-9 -10 -17 -10h-25q-4 0 -5.5 3t1.5 7l90 123q6 9 16 9h23q9 0 15 -9l91 -123q3 -4 2 -7t-6 -3zM254 -10q-65 0 -112 32.5t-66 91.5q-16 51 -16 125q0 73 16 124q19 59 66 91.5t112 32.5q66 0 113 -32.5t66 -91.5
q16 -51 16 -124q0 -74 -16 -125q-19 -59 -66 -91.5t-113 -32.5zM254 42q97 0 127 89q13 39 13 108q0 68 -13 107q-30 89 -127 89q-96 0 -126 -89q-13 -39 -13 -107q0 -69 13 -108q30 -89 126 -89z" />
    <glyph glyph-name="otilde" unicode="&#xf5;" horiz-adv-x="509" 
d="M254 -10q-65 0 -112 32.5t-66 91.5q-16 51 -16 125q0 73 16 124q19 59 66 91.5t112 32.5q66 0 113 -32.5t66 -91.5q16 -51 16 -124q0 -74 -16 -125q-19 -59 -66 -91.5t-113 -32.5zM254 42q97 0 127 89q13 39 13 108q0 68 -13 107q-30 89 -127 89q-96 0 -126 -89
q-13 -39 -13 -107q0 -69 13 -108q30 -89 126 -89zM307 596q-26 0 -60 21q-29 18 -49 18q-25 0 -58 -33q-9 -7 -9 3v30q0 7 8 15q27 30 61 30q26 0 60 -20q26 -18 49 -18q28 0 59 33q3 3 5.5 2t2.5 -5v-30q0 -8 -7 -16q-30 -30 -62 -30z" />
    <glyph glyph-name="odieresis" unicode="&#xf6;" horiz-adv-x="509" 
d="M373 604h-40q-10 0 -10 10v56q0 10 10 10h40q10 0 10 -10v-56q0 -10 -10 -10zM174 604h-40q-10 0 -10 10v56q0 10 10 10h40q10 0 10 -10v-56q0 -10 -10 -10zM254 -10q-65 0 -112 32.5t-66 91.5q-16 51 -16 125q0 73 16 124q19 59 66 91.5t112 32.5q66 0 113 -32.5
t66 -91.5q16 -51 16 -124q0 -74 -16 -125q-19 -59 -66 -91.5t-113 -32.5zM254 42q97 0 127 89q13 39 13 108q0 68 -13 107q-30 89 -127 89q-96 0 -126 -89q-13 -39 -13 -107q0 -69 13 -108q30 -89 126 -89z" />
    <glyph glyph-name="divide" unicode="&#xf7;" 
d="M223 423q0 18 12.5 30.5t30.5 12.5t30.5 -12.5t12.5 -30.5t-12.5 -30.5t-30.5 -12.5t-30.5 12.5t-12.5 30.5zM456 251h-380q-10 0 -10 10v30q0 10 10 10h380q10 0 10 -10v-30q0 -10 -10 -10zM223 129q0 18 12.5 30.5t30.5 12.5t30.5 -12.5t12.5 -30.5t-12.5 -30.5
t-30.5 -12.5t-30.5 12.5t-12.5 30.5z" />
    <glyph glyph-name="oslash" unicode="&#xf8;" horiz-adv-x="509" 
d="M254 -10q-72 0 -120 39l-33 -49q-7 -10 -17 -10h-17q-11 0 -5 10l47 72q-22 28 -33 62q-16 51 -16 125q0 73 16 124q19 59 66 91.5t112 32.5q71 0 121 -39l33 49q7 10 17 10h17q11 0 5 -10l-48 -73q21 -24 34 -61q16 -51 16 -124q0 -74 -16 -125q-19 -59 -66 -91.5
t-113 -32.5zM128 131q6 -17 14 -31l203 303q-35 32 -91 32q-96 0 -126 -89q-13 -39 -13 -107q0 -69 13 -108zM254 42q97 0 127 89q13 39 13 108q0 68 -13 107q-7 19 -14 31l-203 -303q35 -32 90 -32z" />
    <glyph glyph-name="ugrave" unicode="&#xf9;" horiz-adv-x="535" 
d="M433 0h-34q-10 0 -10 10v56h-1q-39 -76 -139 -76q-79 0 -122 47.5t-43 133.5v296q0 10 10 10h34q10 0 10 -10v-282q0 -143 123 -143q55 0 91.5 36t36.5 97v292q0 10 10 10h34q10 0 10 -10v-457q0 -10 -10 -10zM296 558h-25q-9 0 -18 10l-88 122q-3 4 -1.5 7t6.5 3h38
q10 0 16 -10l77 -122q7 -10 -5 -10z" />
    <glyph glyph-name="uacute" unicode="&#xfa;" horiz-adv-x="535" 
d="M264 558h-25q-11 0 -6 10l77 122q6 10 17 10h38q5 0 6.5 -3t-1.5 -7l-88 -122q-9 -10 -18 -10zM433 0h-34q-10 0 -10 10v56h-1q-39 -76 -139 -76q-79 0 -122 47.5t-43 133.5v296q0 10 10 10h34q10 0 10 -10v-282q0 -143 123 -143q55 0 91.5 36t36.5 97v292q0 10 10 10h34
q10 0 10 -10v-457q0 -10 -10 -10z" />
    <glyph glyph-name="ucircumflex" unicode="&#xfb;" horiz-adv-x="535" 
d="M380 558h-25q-9 0 -17 10l-71 85h-2l-70 -85q-9 -10 -17 -10h-25q-5 0 -6 3t2 7l90 123q6 9 16 9h23q9 0 15 -9l91 -123q3 -4 1.5 -7t-5.5 -3zM433 0h-34q-10 0 -10 10v56h-1q-39 -76 -139 -76q-79 0 -122 47.5t-43 133.5v296q0 10 10 10h34q10 0 10 -10v-282
q0 -143 123 -143q55 0 91.5 36t36.5 97v292q0 10 10 10h34q10 0 10 -10v-457q0 -10 -10 -10z" />
    <glyph glyph-name="udieresis" unicode="&#xfc;" horiz-adv-x="535" 
d="M386 604h-40q-10 0 -10 10v56q0 10 10 10h40q10 0 10 -10v-56q0 -10 -10 -10zM187 604h-40q-10 0 -10 10v56q0 10 10 10h40q10 0 10 -10v-56q0 -10 -10 -10zM433 0h-34q-10 0 -10 10v56h-1q-39 -76 -139 -76q-79 0 -122 47.5t-43 133.5v296q0 10 10 10h34q10 0 10 -10
v-282q0 -143 123 -143q55 0 91.5 36t36.5 97v292q0 10 10 10h34q10 0 10 -10v-457q0 -10 -10 -10z" />
    <glyph glyph-name="yacute" unicode="&#xfd;" horiz-adv-x="467" 
d="M103 -180h-21q-10 0 -10 10v32q0 10 10 10h18q32 0 51 18t39 71l19 49l-176 457q-3 10 7 10h38q9 0 13 -10l145 -383h1l141 383q3 10 12 10h38q10 0 7 -10l-195 -513q-30 -80 -59 -107t-78 -27zM235 558h-25q-11 0 -6 10l77 122q6 10 17 10h38q5 0 6.5 -3t-1.5 -7
l-88 -122q-9 -10 -18 -10z" />
    <glyph glyph-name="thorn" unicode="&#xfe;" horiz-adv-x="531" 
d="M136 -180h-34q-10 0 -10 10v840q0 10 10 10h34q10 0 10 -10v-261h1q40 78 145 78q124 0 162 -114q17 -55 17 -135q0 -79 -17 -134q-38 -114 -162 -114q-105 0 -145 78h-1v-238q0 -10 -10 -10zM281 42q94 0 122 84q13 39 13 112q0 74 -13 113q-28 84 -122 84
q-95 0 -122 -84q-13 -38 -13 -113q0 -74 13 -112q27 -84 122 -84z" />
    <glyph glyph-name="ydieresis" unicode="&#xff;" horiz-adv-x="467" 
d="M103 -180h-21q-10 0 -10 10v32q0 10 10 10h18q32 0 51 18t39 71l19 49l-176 457q-3 10 7 10h38q9 0 13 -10l145 -383h1l141 383q3 10 12 10h38q10 0 7 -10l-195 -513q-30 -80 -59 -107t-78 -27zM354 604h-40q-10 0 -10 10v56q0 10 10 10h40q10 0 10 -10v-56
q0 -10 -10 -10zM155 604h-40q-10 0 -10 10v56q0 10 10 10h40q10 0 10 -10v-56q0 -10 -10 -10z" />
    <glyph glyph-name="Amacron" unicode="&#x100;" horiz-adv-x="596" 
d="M31 10l238 660q3 10 12 10h36q9 0 12 -10l236 -660q3 -10 -7 -10h-39q-11 0 -13 10l-60 167h-296l-60 -167q-4 -10 -13 -10h-39q-10 0 -7 10zM169 232h258l-127 356h-3zM418 800h-240q-10 0 -10 10v26q0 10 10 10h240q10 0 10 -10v-26q0 -10 -10 -10z" />
    <glyph glyph-name="amacron" unicode="&#x101;" horiz-adv-x="513" 
d="M250 437q-76 0 -120 -36q-9 -7 -15 1l-17 25q-5 8 3 14q54 46 152 46q94 0 134 -35.5t40 -122.5v-319q0 -10 -10 -10h-32q-10 0 -10 10v50h-1q-15 -31 -53.5 -50.5t-94.5 -19.5q-74 0 -117 36.5t-43 104.5q0 141 181 141h121q6 0 6 6v49q0 60 -26.5 85t-97.5 25zM237 40
q62 0 99.5 29t37.5 78v73q0 6 -6 6h-114q-70 0 -102.5 -23t-32.5 -71q0 -45 30.5 -68.5t87.5 -23.5zM376 618h-240q-10 0 -10 10v26q0 10 10 10h240q10 0 10 -10v-26q0 -10 -10 -10z" />
    <glyph glyph-name="Abreve" unicode="&#x102;" horiz-adv-x="596" 
d="M31 10l238 660q3 10 12 10h36q9 0 12 -10l236 -660q3 -10 -7 -10h-39q-11 0 -13 10l-60 167h-296l-60 -167q-4 -10 -13 -10h-39q-10 0 -7 10zM169 232h258l-127 356h-3zM297 768q-51 0 -84.5 28.5t-39.5 74.5q-2 10 9 10h19q9 0 12 -10q17 -59 84 -59q68 0 86 59
q3 10 11 10h19q11 0 9 -10q-7 -46 -40.5 -74.5t-84.5 -28.5z" />
    <glyph glyph-name="abreve" unicode="&#x103;" horiz-adv-x="513" 
d="M250 437q-76 0 -120 -36q-9 -7 -15 1l-17 25q-5 8 3 14q54 46 152 46q94 0 134 -35.5t40 -122.5v-319q0 -10 -10 -10h-32q-10 0 -10 10v50h-1q-15 -31 -53.5 -50.5t-94.5 -19.5q-74 0 -117 36.5t-43 104.5q0 141 181 141h121q6 0 6 6v49q0 60 -26.5 85t-97.5 25zM237 40
q62 0 99.5 29t37.5 78v73q0 6 -6 6h-114q-70 0 -102.5 -23t-32.5 -71q0 -45 30.5 -68.5t87.5 -23.5zM256 570q-50 0 -84 29t-40 75q-2 10 9 10h19q9 0 12 -10q17 -60 84 -60q68 0 86 60q3 10 11 10h19q11 0 9 -10q-7 -47 -40.5 -75.5t-84.5 -28.5z" />
    <glyph glyph-name="Aogonek" unicode="&#x104;" horiz-adv-x="596" 
d="M508 4l-62 174h-296l-60 -168q-4 -10 -13 -10h-38q-11 0 -8 10l238 660q3 10 12 10h36q9 0 12 -10l236 -660q2 -6 -4 -11q-51 -36 -67 -56.5t-16 -39.5q0 -28 29 -28q13 0 28 9q8 5 13 -3l11 -21q3 -7 -4 -13q-25 -19 -56 -19q-32 0 -51 18t-19 50q0 51 79 108zM297 588
l-130 -357h261l-128 357h-3z" />
    <glyph glyph-name="aogonek" unicode="&#x105;" horiz-adv-x="513" 
d="M375 9v51h-1q-15 -31 -53.5 -50.5t-94.5 -19.5q-74 0 -117 36.5t-43 104.5q0 141 181 141h121q6 0 6 6v49q0 60 -26.5 85t-97.5 25q-76 0 -120 -36q-9 -7 -15 1l-17 25q-5 8 3 14q54 46 152 46q94 0 134 -35.5t40 -122.5v-319q0 -6 -5 -10q-83 -62 -83 -97q0 -28 29 -28
q13 0 28 9q8 5 13 -3l11 -21q3 -7 -4 -13q-25 -19 -56 -19q-32 0 -51 18t-19 48q0 55 85 115zM237 40q62 0 99.5 29t37.5 78v73q0 6 -6 6h-114q-70 0 -102.5 -23t-32.5 -71q0 -45 30.5 -68.5t87.5 -23.5z" />
    <glyph glyph-name="Cacute" unicode="&#x106;" horiz-adv-x="556" 
d="M83 142q-18 56 -18 198t18 198q51 152 215 152q146 0 205 -126q4 -9 -3 -13l-33 -16q-8 -5 -13 4q-52 97 -156 97q-120 0 -160 -113q-15 -45 -15 -183t15 -183q40 -113 160 -113q104 0 156 97q5 9 13 4l33 -16q7 -4 3 -13q-59 -126 -205 -126q-164 0 -215 152zM288 764
h-26q-12 0 -4 10l82 104q7 10 18 10h40q4 0 5.5 -3t-1.5 -7l-96 -105q-8 -9 -18 -9z" />
    <glyph glyph-name="cacute" unicode="&#x107;" horiz-adv-x="470" 
d="M248 558h-25q-11 0 -6 10l77 122q6 10 17 10h38q5 0 6.5 -3t-1.5 -7l-88 -122q-9 -10 -18 -10zM60 238q0 75 15 125q19 59 65.5 91.5t112.5 32.5q107 0 161 -90q5 -8 -3 -13l-28 -18q-8 -5 -13 4q-41 65 -117 65q-96 0 -125 -90q-13 -38 -13 -107q0 -68 13 -106
q29 -90 125 -90q76 0 117 65q5 9 13 4l28 -18q8 -5 3 -13q-54 -90 -161 -90q-66 0 -112.5 32.5t-65.5 91.5q-15 50 -15 124z" />
    <glyph glyph-name="Ccircumflex" unicode="&#x108;" horiz-adv-x="556" 
d="M83 142q-18 56 -18 198t18 198q51 152 215 152q146 0 205 -126q4 -9 -3 -13l-33 -16q-8 -5 -13 4q-52 97 -156 97q-120 0 -160 -113q-15 -45 -15 -183t15 -183q40 -113 160 -113q104 0 156 97q5 9 13 4l33 -16q7 -4 3 -13q-59 -126 -205 -126q-164 0 -215 152zM409 754
h-25q-10 0 -17 10l-71 85h-2l-70 -85q-9 -10 -17 -10h-25q-4 0 -5.5 3t1.5 7l90 123q6 9 16 9h23q9 0 15 -9l91 -123q3 -4 2 -7t-6 -3z" />
    <glyph glyph-name="ccircumflex" unicode="&#x109;" horiz-adv-x="470" 
d="M367 558h-25q-10 0 -17 10l-71 85h-2l-70 -85q-9 -10 -17 -10h-25q-4 0 -5.5 3t1.5 7l90 123q6 9 16 9h23q9 0 15 -9l91 -123q3 -4 2 -7t-6 -3zM60 238q0 75 15 125q19 59 65.5 91.5t112.5 32.5q107 0 161 -90q5 -8 -3 -13l-28 -18q-8 -5 -13 4q-41 65 -117 65
q-96 0 -125 -90q-13 -38 -13 -107q0 -68 13 -106q29 -90 125 -90q76 0 117 65q5 9 13 4l28 -18q8 -5 3 -13q-54 -90 -161 -90q-66 0 -112.5 32.5t-65.5 91.5q-15 50 -15 124z" />
    <glyph glyph-name="Cdotaccent" unicode="&#x10a;" horiz-adv-x="556" 
d="M317 786h-44q-10 0 -10 10v56q0 10 10 10h44q10 0 10 -10v-56q0 -10 -10 -10zM83 142q-18 56 -18 198t18 198q51 152 215 152q146 0 205 -126q4 -9 -3 -13l-33 -16q-8 -5 -13 4q-52 97 -156 97q-120 0 -160 -113q-15 -45 -15 -183t15 -183q40 -113 160 -113q104 0 156 97
q5 9 13 4l33 -16q7 -4 3 -13q-59 -126 -205 -126q-164 0 -215 152z" />
    <glyph glyph-name="cdotaccent" unicode="&#x10b;" horiz-adv-x="470" 
d="M60 238q0 75 15 125q19 59 65.5 91.5t112.5 32.5q107 0 161 -90q5 -8 -3 -13l-28 -18q-8 -5 -13 4q-41 65 -117 65q-96 0 -125 -90q-13 -38 -13 -107q0 -68 13 -106q29 -90 125 -90q76 0 117 65q5 9 13 4l28 -18q8 -5 3 -13q-54 -90 -161 -90q-66 0 -112.5 32.5
t-65.5 91.5q-15 50 -15 124zM274 604h-44q-10 0 -10 10v56q0 10 10 10h44q10 0 10 -10v-56q0 -10 -10 -10z" />
    <glyph glyph-name="Ccaron" unicode="&#x10c;" horiz-adv-x="556" 
d="M83 142q-18 56 -18 198t18 198q51 152 215 152q146 0 205 -126q4 -9 -3 -13l-33 -16q-8 -5 -13 4q-52 97 -156 97q-120 0 -160 -113q-15 -45 -15 -183t15 -183q40 -113 160 -113q104 0 156 97q5 9 13 4l33 -16q7 -4 3 -13q-59 -126 -205 -126q-164 0 -215 152zM307 754
h-23q-10 0 -16 9l-90 122q-3 4 -1.5 7t5.5 3h25q8 0 17 -10l70 -85h2l71 85q7 10 17 10h25q5 0 6 -3t-2 -7l-91 -122q-6 -9 -15 -9z" />
    <glyph glyph-name="ccaron" unicode="&#x10d;" horiz-adv-x="470" 
d="M264 558h-23q-10 0 -16 9l-90 122q-3 4 -2 7t6 3h25q8 0 17 -10l70 -85h2l71 85q8 10 17 10h25q4 0 5.5 -3t-1.5 -7l-91 -122q-6 -9 -15 -9zM60 238q0 75 15 125q19 59 65.5 91.5t112.5 32.5q107 0 161 -90q5 -8 -3 -13l-28 -18q-8 -5 -13 4q-41 65 -117 65
q-96 0 -125 -90q-13 -38 -13 -107q0 -68 13 -106q29 -90 125 -90q76 0 117 65q5 9 13 4l28 -18q8 -5 3 -13q-54 -90 -161 -90q-66 0 -112.5 32.5t-65.5 91.5q-15 50 -15 124z" />
    <glyph glyph-name="Dcaron" unicode="&#x10e;" horiz-adv-x="620" 
d="M309 754h-23q-10 0 -16 9l-90 122q-3 4 -1.5 7t5.5 3h25q8 0 17 -10l70 -85h2l71 85q7 10 17 10h25q5 0 6 -3t-2 -7l-91 -122q-6 -9 -15 -9zM94 10v660q0 10 10 10h213q172 0 217 -138q19 -58 19 -202t-19 -202q-45 -138 -217 -138h-213q-10 0 -10 10zM151 60q0 -6 6 -6
h152q136 0 170 103q16 48 16 183t-16 183q-34 103 -170 103h-152q-6 0 -6 -6v-560z" />
    <glyph glyph-name="dcaron" unicode="&#x10f;" horiz-adv-x="531" 
d="M505 535q-9 0 -9 10v125q0 10 10 10h37q10 0 10 -10v-48q0 -11 -5 -21l-32 -57q-4 -9 -11 -9zM429 0h-34q-10 0 -10 10v58h-1q-40 -78 -145 -78q-126 0 -162 114q-17 51 -17 134q0 84 17 135q36 114 162 114q105 0 145 -78h1v261q0 10 10 10h34q10 0 10 -10v-660
q0 -10 -10 -10zM250 42q95 0 122 84q13 38 13 112q0 75 -13 113q-27 84 -122 84q-94 0 -122 -84q-13 -39 -13 -113q0 -73 13 -112q28 -84 122 -84z" />
    <glyph glyph-name="Dcroat" unicode="&#x110;" horiz-adv-x="620" 
d="M317 0h-213q-10 0 -10 10v304q0 6 -6 6h-40q-10 0 -10 10v30q0 10 10 10h40q6 0 6 6v294q0 10 10 10h213q172 0 217 -138q19 -58 19 -202t-19 -202q-45 -138 -217 -138zM309 54q136 0 170 103q16 48 16 183t-16 183q-34 103 -170 103h-152q-6 0 -6 -6v-244q0 -6 6 -6h130
q10 0 10 -10v-30q0 -10 -10 -10h-130q-6 0 -6 -6v-254q0 -6 6 -6h152z" />
    <glyph glyph-name="dcroat" unicode="&#x111;" horiz-adv-x="531" 
d="M429 0h-34q-10 0 -10 10v58h-1q-40 -78 -145 -78q-126 0 -162 114q-17 51 -17 134q0 84 17 135q36 114 162 114q105 0 145 -78h1v148q0 6 -6 6h-131q-10 0 -10 10v26q0 10 10 10h131q6 0 6 6v55q0 10 10 10h34q10 0 10 -10v-55q0 -6 6 -6h30q10 0 10 -10v-26
q0 -10 -10 -10h-30q-6 0 -6 -6v-547q0 -10 -10 -10zM250 42q95 0 122 84q13 38 13 112q0 75 -13 113q-27 84 -122 84q-94 0 -122 -84q-13 -39 -13 -113q0 -73 13 -112q28 -84 122 -84z" />
    <glyph glyph-name="Emacron" unicode="&#x112;" horiz-adv-x="556" 
d="M410 800h-240q-10 0 -10 10v26q0 10 10 10h240q10 0 10 -10v-26q0 -10 -10 -10zM94 10v660q0 10 10 10h389q10 0 10 -10v-34q0 -10 -10 -10h-336q-6 0 -6 -6v-242q0 -6 6 -6h289q10 0 10 -10v-34q0 -10 -10 -10h-289q-6 0 -6 -6v-252q0 -6 6 -6h336q10 0 10 -10v-34
q0 -10 -10 -10h-389q-10 0 -10 10z" />
    <glyph glyph-name="emacron" unicode="&#x113;" horiz-adv-x="502" 
d="M257 -10q-142 0 -183 126q-14 45 -14 123q0 79 14 124q19 60 65.5 92t111.5 32t112 -32t66 -92q14 -42 14 -127q0 -10 -11 -10h-311q-6 0 -6 -7q0 -53 10 -84q32 -93 135 -93q84 0 133 61q6 8 14 2l23 -21q7 -6 1 -14q-60 -80 -174 -80zM121 272h261q6 0 6 6q0 40 -9 69
q-29 90 -128 90q-98 0 -127 -90q-9 -29 -9 -69q0 -6 6 -6zM370 618h-240q-10 0 -10 10v26q0 10 10 10h240q10 0 10 -10v-26q0 -10 -10 -10z" />
    <glyph glyph-name="Ebreve" unicode="&#x114;" horiz-adv-x="556" 
d="M295 768q-51 0 -84.5 28.5t-39.5 74.5q-2 10 9 10h19q9 0 12 -10q17 -59 84 -59q68 0 86 59q3 10 11 10h19q11 0 9 -10q-7 -46 -40.5 -74.5t-84.5 -28.5zM94 10v660q0 10 10 10h389q10 0 10 -10v-34q0 -10 -10 -10h-336q-6 0 -6 -6v-242q0 -6 6 -6h289q10 0 10 -10v-34
q0 -10 -10 -10h-289q-6 0 -6 -6v-252q0 -6 6 -6h336q10 0 10 -10v-34q0 -10 -10 -10h-389q-10 0 -10 10z" />
    <glyph glyph-name="ebreve" unicode="&#x115;" horiz-adv-x="502" 
d="M257 -10q-142 0 -183 126q-14 45 -14 123q0 79 14 124q19 60 65.5 92t111.5 32t112 -32t66 -92q14 -42 14 -127q0 -10 -11 -10h-311q-6 0 -6 -7q0 -53 10 -84q32 -93 135 -93q84 0 133 61q6 8 14 2l23 -21q7 -6 1 -14q-60 -80 -174 -80zM121 272h261q6 0 6 6q0 40 -9 69
q-29 90 -128 90q-98 0 -127 -90q-9 -29 -9 -69q0 -6 6 -6zM250 570q-50 0 -84 29t-40 75q-2 10 9 10h19q9 0 12 -10q17 -60 84 -60q68 0 86 60q3 10 11 10h19q11 0 9 -10q-7 -47 -40.5 -75.5t-84.5 -28.5z" />
    <glyph glyph-name="Edotaccent" unicode="&#x116;" horiz-adv-x="556" 
d="M320 786h-44q-10 0 -10 10v56q0 10 10 10h44q10 0 10 -10v-56q0 -10 -10 -10zM94 10v660q0 10 10 10h389q10 0 10 -10v-34q0 -10 -10 -10h-336q-6 0 -6 -6v-242q0 -6 6 -6h289q10 0 10 -10v-34q0 -10 -10 -10h-289q-6 0 -6 -6v-252q0 -6 6 -6h336q10 0 10 -10v-34
q0 -10 -10 -10h-389q-10 0 -10 10z" />
    <glyph glyph-name="edotaccent" unicode="&#x117;" horiz-adv-x="502" 
d="M257 -10q-142 0 -183 126q-14 45 -14 123q0 79 14 124q19 60 65.5 92t111.5 32t112 -32t66 -92q14 -42 14 -127q0 -10 -11 -10h-311q-6 0 -6 -7q0 -53 10 -84q32 -93 135 -93q84 0 133 61q6 8 14 2l23 -21q7 -6 1 -14q-60 -80 -174 -80zM121 272h261q6 0 6 6q0 40 -9 69
q-29 90 -128 90q-98 0 -127 -90q-9 -29 -9 -69q0 -6 6 -6zM272 604h-44q-10 0 -10 10v56q0 10 10 10h44q10 0 10 -10v-56q0 -10 -10 -10z" />
    <glyph glyph-name="Eogonek" unicode="&#x118;" horiz-adv-x="556" 
d="M493 0h-8q-83 -60 -83 -97q0 -28 29 -28q13 0 28 9q8 5 13 -3l11 -21q3 -7 -4 -13q-25 -19 -56 -19q-32 0 -51 18t-19 50q0 50 72 104h-321q-10 0 -10 10v660q0 10 10 10h389q10 0 10 -10v-34q0 -10 -10 -10h-336q-6 0 -6 -6v-242q0 -6 6 -6h289q10 0 10 -10v-34
q0 -10 -10 -10h-289q-6 0 -6 -6v-252q0 -6 6 -6h336q10 0 10 -10v-34q0 -10 -10 -10z" />
    <glyph glyph-name="eogonek" unicode="&#x119;" horiz-adv-x="502" 
d="M332 -172q-32 0 -51 18t-19 50q0 41 50 100q-26 -6 -55 -6q-142 0 -183 126q-14 45 -14 123q0 79 14 124q19 60 65.5 92t111.5 32t112 -32t66 -92q14 -42 14 -127q0 -10 -11 -10h-311q-6 0 -6 -7q0 -53 10 -84q32 -93 135 -93q84 0 133 61q6 8 14 2l23 -21q7 -6 1 -14
q-13 -17 -34 -35q-53 -56 -69.5 -83.5t-16.5 -48.5q0 -28 29 -28q13 0 28 9q8 5 13 -3l11 -21q3 -7 -4 -13q-25 -19 -56 -19zM121 272h261q6 0 6 6q0 40 -9 69q-29 90 -128 90q-98 0 -127 -90q-9 -29 -9 -69q0 -6 6 -6z" />
    <glyph glyph-name="Ecaron" unicode="&#x11a;" horiz-adv-x="556" 
d="M309 754h-23q-10 0 -16 9l-90 122q-3 4 -1.5 7t5.5 3h25q8 0 17 -10l70 -85h2l71 85q7 10 17 10h25q5 0 6 -3t-2 -7l-91 -122q-6 -9 -15 -9zM94 10v660q0 10 10 10h389q10 0 10 -10v-34q0 -10 -10 -10h-336q-6 0 -6 -6v-242q0 -6 6 -6h289q10 0 10 -10v-34q0 -10 -10 -10
h-289q-6 0 -6 -6v-252q0 -6 6 -6h336q10 0 10 -10v-34q0 -10 -10 -10h-389q-10 0 -10 10z" />
    <glyph glyph-name="ecaron" unicode="&#x11b;" horiz-adv-x="502" 
d="M262 558h-23q-10 0 -16 9l-90 122q-3 4 -2 7t6 3h25q8 0 17 -10l70 -85h2l71 85q8 10 17 10h25q4 0 5.5 -3t-1.5 -7l-91 -122q-6 -9 -15 -9zM257 -10q-142 0 -183 126q-14 45 -14 123q0 79 14 124q19 60 65.5 92t111.5 32t112 -32t66 -92q14 -42 14 -127q0 -10 -11 -10
h-311q-6 0 -6 -7q0 -53 10 -84q32 -93 135 -93q84 0 133 61q6 8 14 2l23 -21q7 -6 1 -14q-60 -80 -174 -80zM121 272h261q6 0 6 6q0 40 -9 69q-29 90 -128 90q-98 0 -127 -90q-9 -29 -9 -69q0 -6 6 -6z" />
    <glyph glyph-name="Gcircumflex" unicode="&#x11c;" horiz-adv-x="609" 
d="M84 143q-19 59 -19 197t19 197q50 153 222 153q79 0 132.5 -34.5t80.5 -91.5q4 -9 -4 -13l-32 -16q-9 -3 -13 4q-53 97 -165 97q-128 0 -166 -115q-16 -46 -16 -181t16 -181q38 -115 166 -115t166 113q16 46 16 130q0 6 -6 6h-154q-10 0 -10 10v33q0 10 10 10h207
q10 0 10 -10v-41q0 -95 -18 -151q-24 -75 -81 -114.5t-139 -39.5q-172 0 -222 153zM418 754h-25q-9 0 -17 10l-71 85h-2l-70 -85q-9 -10 -17 -10h-25q-5 0 -6 3t2 7l90 123q6 9 16 9h23q9 0 15 -9l91 -123q3 -4 1.5 -7t-5.5 -3z" />
    <glyph glyph-name="gcircumflex" unicode="&#x11d;" horiz-adv-x="522" 
d="M364 558h-25q-9 0 -17 10l-71 85h-2l-70 -85q-9 -10 -17 -10h-25q-5 0 -6 3t2 7l90 123q6 9 16 9h23q9 0 15 -9l91 -123q3 -4 1.5 -7t-5.5 -3zM239 -190q-51 0 -94.5 19.5t-63.5 49.5q-5 8 2 14l25 22q8 6 14 -2q45 -51 118 -51q136 0 136 145v69h-1q-37 -78 -141 -78
q-122 0 -159 114q-16 49 -16 130t16 130q38 115 159 115q104 0 141 -78h1v58q0 10 10 10h34q10 0 10 -10v-458q0 -98 -50 -148.5t-141 -50.5zM245 49q91 0 119 84q12 36 12 109t-12 109q-28 84 -119 84q-89 0 -117 -83q-14 -39 -14 -110t14 -109q27 -84 117 -84z" />
    <glyph glyph-name="Gbreve" unicode="&#x11e;" horiz-adv-x="609" 
d="M304 768q-51 0 -84.5 28.5t-39.5 74.5q-2 10 9 10h19q9 0 12 -10q17 -59 84 -59q68 0 86 59q3 10 11 10h19q11 0 9 -10q-7 -46 -40.5 -74.5t-84.5 -28.5zM84 143q-19 59 -19 197t19 197q50 153 222 153q79 0 132.5 -34.5t80.5 -91.5q4 -9 -4 -13l-32 -16q-9 -3 -13 4
q-53 97 -165 97q-128 0 -166 -115q-16 -46 -16 -181t16 -181q38 -115 166 -115t166 113q16 46 16 130q0 6 -6 6h-154q-10 0 -10 10v33q0 10 10 10h207q10 0 10 -10v-41q0 -95 -18 -151q-24 -75 -81 -114.5t-139 -39.5q-172 0 -222 153z" />
    <glyph glyph-name="gbreve" unicode="&#x11f;" horiz-adv-x="522" 
d="M239 -190q-51 0 -94.5 19.5t-63.5 49.5q-5 8 2 14l25 22q8 6 14 -2q45 -51 118 -51q136 0 136 145v69h-1q-37 -78 -141 -78q-122 0 -159 114q-16 49 -16 130t16 130q38 115 159 115q104 0 141 -78h1v58q0 10 10 10h34q10 0 10 -10v-458q0 -98 -50 -148.5t-141 -50.5z
M245 49q91 0 119 84q12 36 12 109t-12 109q-28 84 -119 84q-89 0 -117 -83q-14 -39 -14 -110t14 -109q27 -84 117 -84zM253 570q-50 0 -84 29t-40 75q-2 10 9 10h19q9 0 12 -10q17 -60 84 -60q68 0 86 60q3 10 11 10h19q11 0 9 -10q-7 -47 -40.5 -75.5t-84.5 -28.5z" />
    <glyph glyph-name="Gdotaccent" unicode="&#x120;" horiz-adv-x="609" 
d="M326 786h-44q-10 0 -10 10v56q0 10 10 10h44q10 0 10 -10v-56q0 -10 -10 -10zM84 143q-19 59 -19 197t19 197q50 153 222 153q79 0 132.5 -34.5t80.5 -91.5q4 -9 -4 -13l-32 -16q-9 -3 -13 4q-53 97 -165 97q-128 0 -166 -115q-16 -46 -16 -181t16 -181q38 -115 166 -115
t166 113q16 46 16 130q0 6 -6 6h-154q-10 0 -10 10v33q0 10 10 10h207q10 0 10 -10v-41q0 -95 -18 -151q-24 -75 -81 -114.5t-139 -39.5q-172 0 -222 153z" />
    <glyph glyph-name="gdotaccent" unicode="&#x121;" horiz-adv-x="522" 
d="M239 -190q-51 0 -94.5 19.5t-63.5 49.5q-5 8 2 14l25 22q8 6 14 -2q45 -51 118 -51q136 0 136 145v69h-1q-37 -78 -141 -78q-122 0 -159 114q-16 49 -16 130t16 130q38 115 159 115q104 0 141 -78h1v58q0 10 10 10h34q10 0 10 -10v-458q0 -98 -50 -148.5t-141 -50.5z
M245 49q91 0 119 84q12 36 12 109t-12 109q-28 84 -119 84q-89 0 -117 -83q-14 -39 -14 -110t14 -109q27 -84 117 -84zM275 604h-44q-10 0 -10 10v56q0 10 10 10h44q10 0 10 -10v-56q0 -10 -10 -10z" />
    <glyph glyph-name="Gcommaaccent" unicode="&#x122;" horiz-adv-x="609" 
d="M285 -195q-9 0 -9 9v120q0 10 10 10h37q10 0 10 -10v-42q0 -12 -5 -22l-32 -57q-4 -8 -11 -8zM84 143q-19 59 -19 197t19 197q50 153 222 153q79 0 132.5 -34.5t80.5 -91.5q4 -9 -4 -13l-32 -16q-9 -3 -13 4q-53 97 -165 97q-128 0 -166 -115q-16 -46 -16 -181t16 -181
q38 -115 166 -115t166 113q16 46 16 130q0 6 -6 6h-154q-10 0 -10 10v33q0 10 10 10h207q10 0 10 -10v-41q0 -95 -18 -151q-24 -75 -81 -114.5t-139 -39.5q-172 0 -222 153z" />
    <glyph glyph-name="gcommaaccent" unicode="&#x123;" horiz-adv-x="522" 
d="M270 572h-37q-10 0 -10 10v46q0 12 5 22l32 57q4 8 11 8q9 0 9 -9v-124q0 -10 -10 -10zM239 -190q-51 0 -94.5 19.5t-63.5 49.5q-5 8 2 14l25 22q8 6 14 -2q45 -51 118 -51q136 0 136 145v69h-1q-37 -78 -141 -78q-122 0 -159 114q-16 49 -16 130t16 130q38 115 159 115
q104 0 141 -78h1v58q0 10 10 10h34q10 0 10 -10v-458q0 -98 -50 -148.5t-141 -50.5zM245 49q91 0 119 84q12 36 12 109t-12 109q-28 84 -119 84q-89 0 -117 -83q-14 -39 -14 -110t14 -109q27 -84 117 -84z" />
    <glyph glyph-name="Hcircumflex" unicode="&#x124;" horiz-adv-x="650" 
d="M94 10v660q0 10 10 10h37q10 0 10 -10v-292q0 -6 6 -6h336q6 0 6 6v292q0 10 10 10h37q10 0 10 -10v-660q0 -10 -10 -10h-37q-10 0 -10 10v302q0 6 -6 6h-336q-6 0 -6 -6v-302q0 -10 -10 -10h-37q-10 0 -10 10zM438 754h-25q-9 0 -17 10l-71 85h-2l-70 -85
q-9 -10 -17 -10h-25q-5 0 -6 3t2 7l90 123q6 9 16 9h23q9 0 15 -9l91 -123q3 -4 1.5 -7t-5.5 -3z" />
    <glyph glyph-name="hcircumflex" unicode="&#x125;" horiz-adv-x="541" 
d="M445 0h-34q-10 0 -10 10v282q0 143 -125 143q-56 0 -93 -36t-37 -97v-292q0 -10 -10 -10h-34q-10 0 -10 10v660q0 10 10 10h34q10 0 10 -10v-260h1q39 77 141 77q80 0 123.5 -47.5t43.5 -134.5v-295q0 -10 -10 -10zM389 754h-25q-10 0 -17 10l-71 85h-2l-70 -85
q-9 -10 -17 -10h-25q-4 0 -5.5 3t1.5 7l90 123q6 9 16 9h23q9 0 15 -9l91 -123q3 -4 2 -7t-6 -3z" />
    <glyph glyph-name="Hbar" unicode="&#x126;" horiz-adv-x="650" 
d="M546 0h-37q-10 0 -10 10v302q0 6 -6 6h-336q-6 0 -6 -6v-302q0 -10 -10 -10h-37q-10 0 -10 10v483q0 6 -6 6h-40q-10 0 -10 10v28q0 10 10 10h40q6 0 6 6v117q0 10 10 10h37q10 0 10 -10v-117q0 -6 6 -6h336q6 0 6 6v117q0 10 10 10h37q10 0 10 -10v-117q0 -6 6 -6h40
q10 0 10 -10v-28q0 -10 -10 -10h-40q-6 0 -6 -6v-483q0 -10 -10 -10zM493 372q6 0 6 6v115q0 6 -6 6h-336q-6 0 -6 -6v-115q0 -6 6 -6h336z" />
    <glyph glyph-name="hbar" unicode="&#x127;" horiz-adv-x="541" 
d="M445 0h-34q-10 0 -10 10v282q0 143 -125 143q-56 0 -93 -36t-37 -97v-292q0 -10 -10 -10h-34q-10 0 -10 10v547q0 6 -6 6h-30q-10 0 -10 10v26q0 10 10 10h30q6 0 6 6v55q0 10 10 10h34q10 0 10 -10v-55q0 -6 6 -6h131q10 0 10 -10v-26q0 -10 -10 -10h-131q-6 0 -6 -6
v-147h1q39 77 141 77q80 0 123.5 -47.5t43.5 -134.5v-295q0 -10 -10 -10z" />
    <glyph glyph-name="Itilde" unicode="&#x128;" horiz-adv-x="245" 
d="M94 10v660q0 10 10 10h37q10 0 10 -10v-660q0 -10 -10 -10h-37q-10 0 -10 10zM177 782q-26 0 -60 21q-29 18 -49 18q-25 0 -58 -33q-9 -7 -9 3v30q0 7 8 15q27 30 61 30q26 0 60 -20q26 -18 49 -18q28 0 59 33q3 3 5.5 2t2.5 -5v-30q0 -8 -7 -16q-30 -30 -62 -30z" />
    <glyph glyph-name="itilde" unicode="&#x129;" horiz-adv-x="238" 
d="M136 0h-34q-10 0 -10 10v457q0 10 10 10h34q10 0 10 -10v-457q0 -10 -10 -10zM173 596q-26 0 -60 21q-29 18 -49 18q-25 0 -58 -33q-9 -7 -9 3v30q0 7 8 15q27 30 61 30q26 0 60 -20q26 -18 49 -18q28 0 59 33q3 3 5.5 2t2.5 -5v-30q0 -8 -7 -16q-30 -30 -62 -30z" />
    <glyph glyph-name="Imacron" unicode="&#x12a;" horiz-adv-x="245" 
d="M94 10v660q0 10 10 10h37q10 0 10 -10v-660q0 -10 -10 -10h-37q-10 0 -10 10zM243 800h-240q-10 0 -10 10v26q0 10 10 10h240q10 0 10 -10v-26q0 -10 -10 -10z" />
    <glyph glyph-name="imacron" unicode="&#x12b;" horiz-adv-x="238" 
d="M136 0h-34q-10 0 -10 10v457q0 10 10 10h34q10 0 10 -10v-457q0 -10 -10 -10zM240 618h-240q-10 0 -10 10v26q0 10 10 10h240q10 0 10 -10v-26q0 -10 -10 -10z" />
    <glyph glyph-name="Ibreve" unicode="&#x12c;" horiz-adv-x="245" 
d="M94 10v660q0 10 10 10h37q10 0 10 -10v-660q0 -10 -10 -10h-37q-10 0 -10 10zM123 768q-51 0 -84.5 28.5t-39.5 74.5q-2 10 9 10h19q9 0 12 -10q17 -59 84 -59q68 0 86 59q3 10 11 10h19q11 0 9 -10q-7 -46 -40.5 -74.5t-84.5 -28.5z" />
    <glyph glyph-name="ibreve" unicode="&#x12d;" horiz-adv-x="238" 
d="M136 0h-34q-10 0 -10 10v457q0 10 10 10h34q10 0 10 -10v-457q0 -10 -10 -10zM119 570q-50 0 -84 29t-40 75q-2 10 9 10h19q9 0 12 -10q17 -60 84 -60q68 0 86 60q3 10 11 10h19q11 0 9 -10q-7 -47 -40.5 -75.5t-84.5 -28.5z" />
    <glyph glyph-name="Iogonek" unicode="&#x12e;" horiz-adv-x="245" 
d="M34 -104q0 45 60 106v668q0 10 10 10h37q10 0 10 -10v-660q0 -5 -4 -9q-39 -42 -51.5 -61.5t-12.5 -36.5q0 -28 29 -28q13 0 28 9q8 5 13 -3l11 -21q3 -7 -4 -13q-25 -19 -56 -19q-32 0 -51 18t-19 50z" />
    <glyph glyph-name="iogonek" unicode="&#x12f;" horiz-adv-x="238" 
d="M141 604h-44q-10 0 -10 10v56q0 10 10 10h44q10 0 10 -10v-56q0 -10 -10 -10zM99 -172q-32 0 -51 18t-19 50q0 24 13.5 47.5t49.5 60.5v463q0 10 10 10h34q10 0 10 -10v-457q0 -5 -4 -9q-64 -63 -64 -98q0 -28 29 -28q13 0 28 9q8 5 13 -3l11 -21q3 -7 -4 -13
q-25 -19 -56 -19z" />
    <glyph glyph-name="Idotaccent" unicode="&#x130;" horiz-adv-x="245" 
d="M94 10v660q0 10 10 10h37q10 0 10 -10v-660q0 -10 -10 -10h-37q-10 0 -10 10zM145 786h-44q-10 0 -10 10v56q0 10 10 10h44q10 0 10 -10v-56q0 -10 -10 -10z" />
    <glyph glyph-name="dotlessi" unicode="&#x131;" horiz-adv-x="238" 
d="M136 0h-34q-10 0 -10 10v457q0 10 10 10h34q10 0 10 -10v-457q0 -10 -10 -10z" />
    <glyph glyph-name="Jcircumflex" unicode="&#x134;" horiz-adv-x="474" 
d="M40 46q-8 8 -1 14l27 25q7 7 15 0q49 -41 107 -41q141 0 141 160v466q0 10 10 10h37q10 0 10 -10v-466q0 -107 -52.5 -160.5t-146.5 -53.5q-89 0 -147 56zM469 754h-25q-10 0 -17 10l-71 85h-2l-70 -85q-9 -10 -17 -10h-25q-4 0 -5.5 3t1.5 7l90 123q6 9 16 9h23
q9 0 15 -9l91 -123q3 -4 2 -7t-6 -3z" />
    <glyph glyph-name="jcircumflex" unicode="&#x135;" horiz-adv-x="238" 
d="M23 -180h-11q-10 0 -10 10v32q0 10 10 10h9q41 0 56 14.5t15 58.5v522q0 10 10 10h34q10 0 10 -10v-521q0 -69 -28 -97.5t-95 -28.5zM233 558h-25q-10 0 -17 10l-71 85h-2l-70 -85q-9 -10 -17 -10h-25q-4 0 -5.5 3t1.5 7l90 123q6 9 16 9h23q9 0 15 -9l91 -123q3 -4 2 -7
t-6 -3z" />
    <glyph glyph-name="Kcommaaccent" unicode="&#x136;" horiz-adv-x="597" 
d="M280 -195q-9 0 -9 9v120q0 10 10 10h37q10 0 10 -10v-42q0 -12 -5 -22l-32 -57q-4 -8 -11 -8zM94 10v660q0 10 10 10h37q10 0 10 -10v-392l324 393q9 9 17 9h47q5 0 6.5 -3.5t-2.5 -7.5l-215 -257l232 -401q7 -11 -5 -11h-45q-9 0 -15 9l-205 357l-139 -166v-190
q0 -10 -10 -10h-37q-10 0 -10 10z" />
    <glyph glyph-name="kcommaaccent" unicode="&#x137;" horiz-adv-x="500" 
d="M232 -195q-9 0 -9 9v120q0 10 10 10h37q10 0 10 -10v-42q0 -12 -5 -22l-32 -57q-4 -8 -11 -8zM456 0h-41q-9 0 -15 10l-152 247l-102 -120v-127q0 -10 -10 -10h-34q-10 0 -10 10v660q0 10 10 10h34q10 0 10 -10v-458l216 255q9 10 17 10h41q4 0 6 -3.5t-1 -6.5l-141 -167
l178 -290q2 -4 0 -7t-6 -3z" />
    <glyph glyph-name="kgreenlandic" unicode="&#x138;" horiz-adv-x="500" 
d="M456 0h-41q-9 0 -15 10l-152 247l-102 -120v-127q0 -10 -10 -10h-34q-10 0 -10 10v457q0 10 10 10h34q10 0 10 -10v-255l216 255q9 10 17 10h41q4 0 6 -3.5t-1 -6.5l-141 -167l178 -290q2 -4 0 -7t-6 -3z" />
    <glyph glyph-name="Lacute" unicode="&#x139;" horiz-adv-x="530" 
d="M152 764h-26q-12 0 -4 10l82 104q7 10 18 10h40q4 0 5.5 -3t-1.5 -7l-96 -105q-8 -9 -18 -9zM94 10v660q0 10 10 10h37q10 0 10 -10v-610q0 -6 6 -6h336q10 0 10 -10v-34q0 -10 -10 -10h-389q-10 0 -10 10z" />
    <glyph glyph-name="lacute" unicode="&#x13a;" horiz-adv-x="262" 
d="M133 764h-26q-12 0 -4 10l82 104q7 10 18 10h40q5 0 6 -3t-2 -7l-96 -105q-8 -9 -18 -9zM213 -3h-23q-54 0 -76.5 26t-22.5 86v561q0 10 10 10h34q10 0 10 -10v-559q0 -35 11.5 -48.5t39.5 -13.5h17q10 0 10 -10v-32q0 -10 -10 -10z" />
    <glyph glyph-name="Lcommaaccent" unicode="&#x13b;" horiz-adv-x="530" 
d="M281 -195q-9 0 -9 9v120q0 10 10 10h37q10 0 10 -10v-42q0 -12 -5 -22l-32 -57q-4 -8 -11 -8zM94 10v660q0 10 10 10h37q10 0 10 -10v-610q0 -6 6 -6h336q10 0 10 -10v-34q0 -10 -10 -10h-389q-10 0 -10 10z" />
    <glyph glyph-name="lcommaaccent" unicode="&#x13c;" horiz-adv-x="262" 
d="M139 -195q-9 0 -9 9v120q0 10 10 10h37q10 0 10 -10v-42q0 -12 -5 -22l-32 -57q-4 -8 -11 -8zM213 -3h-23q-54 0 -76.5 26t-22.5 86v561q0 10 10 10h34q10 0 10 -10v-559q0 -35 11.5 -48.5t39.5 -13.5h17q10 0 10 -10v-32q0 -10 -10 -10z" />
    <glyph glyph-name="Lcaron" unicode="&#x13d;" horiz-adv-x="530" 
d="M253 535q-9 0 -9 10v125q0 10 10 10h37q10 0 10 -10v-48q0 -11 -5 -21l-32 -57q-4 -9 -11 -9zM94 10v660q0 10 10 10h37q10 0 10 -10v-610q0 -6 6 -6h336q10 0 10 -10v-34q0 -10 -10 -10h-389q-10 0 -10 10z" />
    <glyph glyph-name="lcaron" unicode="&#x13e;" horiz-adv-x="262" 
d="M211 535q-9 0 -9 10v125q0 10 10 10h37q10 0 10 -10v-48q0 -11 -5 -21l-32 -57q-4 -9 -11 -9zM213 -3h-23q-54 0 -76.5 26t-22.5 86v561q0 10 10 10h34q10 0 10 -10v-559q0 -35 11.5 -48.5t39.5 -13.5h17q10 0 10 -10v-32q0 -10 -10 -10z" />
    <glyph glyph-name="Ldot" unicode="&#x13f;" horiz-adv-x="530" 
d="M94 10v660q0 10 10 10h37q10 0 10 -10v-610q0 -6 6 -6h336q10 0 10 -10v-34q0 -10 -10 -10h-389q-10 0 -10 10zM412 283h-49q-10 0 -10 10v67q0 10 10 10h49q10 0 10 -10v-67q0 -10 -10 -10z" />
    <glyph glyph-name="ldot" unicode="&#x140;" horiz-adv-x="295" 
d="M213 -3h-23q-54 0 -76.5 26t-22.5 86v561q0 10 10 10h34q10 0 10 -10v-559q0 -35 11.5 -48.5t39.5 -13.5h17q10 0 10 -10v-32q0 -10 -10 -10zM290 286h-49q-10 0 -10 10v67q0 10 10 10h49q10 0 10 -10v-67q0 -10 -10 -10z" />
    <glyph glyph-name="Lslash" unicode="&#x141;" horiz-adv-x="530" 
d="M493 0h-389q-10 0 -10 10v281l-57 -29q-10 -5 -10 6v36q0 9 10 14l57 29v323q0 10 10 10h37q10 0 10 -10v-294l158 81q10 5 10 -6v-36q0 -9 -10 -14l-158 -81v-260q0 -6 6 -6h336q10 0 10 -10v-34q0 -10 -10 -10z" />
    <glyph glyph-name="lslash" unicode="&#x142;" horiz-adv-x="262" 
d="M213 383l-68 -36v-236q0 -35 11.5 -48.5t39.5 -13.5h17q10 0 10 -10v-32q0 -10 -10 -10h-23q-54 0 -76.5 26t-22.5 86v213l-39 -20q-10 -5 -10 6v33q0 9 10 14l39 20v295q0 10 10 10h34q10 0 10 -10v-270l68 36q10 5 10 -6v-33q0 -9 -10 -14z" />
    <glyph glyph-name="Nacute" unicode="&#x143;" horiz-adv-x="651" 
d="M311 764h-26q-12 0 -4 10l82 104q7 10 18 10h40q5 0 6 -3t-2 -7l-96 -105q-8 -9 -18 -9zM94 10v660q0 10 10 10h37q12 0 17 -10l339 -559h3v559q0 10 10 10h37q10 0 10 -10v-660q0 -10 -10 -10h-39q-11 0 -17 10l-336 560h-4v-560q0 -10 -10 -10h-37q-10 0 -10 10z" />
    <glyph glyph-name="nacute" unicode="&#x144;" horiz-adv-x="541" 
d="M251 558h-25q-11 0 -6 10l77 122q6 10 17 10h38q5 0 6.5 -3t-1.5 -7l-88 -122q-9 -10 -18 -10zM445 0h-34q-10 0 -10 10v282q0 143 -125 143q-56 0 -93 -36t-37 -97v-292q0 -10 -10 -10h-34q-10 0 -10 10v457q0 10 10 10h34q10 0 10 -10v-57h1q39 77 141 77
q80 0 123.5 -47.5t43.5 -134.5v-295q0 -10 -10 -10z" />
    <glyph glyph-name="Ncommaaccent" unicode="&#x145;" horiz-adv-x="651" 
d="M312 -195q-9 0 -9 9v120q0 10 10 10h37q10 0 10 -10v-42q0 -12 -5 -22l-32 -57q-4 -8 -11 -8zM94 10v660q0 10 10 10h37q12 0 17 -10l339 -559h3v559q0 10 10 10h37q10 0 10 -10v-660q0 -10 -10 -10h-39q-11 0 -17 10l-336 560h-4v-560q0 -10 -10 -10h-37q-10 0 -10 10z
" />
    <glyph glyph-name="ncommaaccent" unicode="&#x146;" horiz-adv-x="541" 
d="M251 -195q-9 0 -9 9v120q0 10 10 10h37q10 0 10 -10v-42q0 -12 -5 -22l-32 -57q-4 -8 -11 -8zM445 0h-34q-10 0 -10 10v282q0 143 -125 143q-56 0 -93 -36t-37 -97v-292q0 -10 -10 -10h-34q-10 0 -10 10v457q0 10 10 10h34q10 0 10 -10v-57h1q39 77 141 77
q80 0 123.5 -47.5t43.5 -134.5v-295q0 -10 -10 -10z" />
    <glyph glyph-name="Ncaron" unicode="&#x147;" horiz-adv-x="651" 
d="M337 754h-23q-10 0 -16 9l-90 122q-3 4 -1.5 7t5.5 3h25q8 0 17 -10l70 -85h2l71 85q7 10 17 10h25q5 0 6 -3t-2 -7l-91 -122q-6 -9 -15 -9zM94 10v660q0 10 10 10h37q12 0 17 -10l339 -559h3v559q0 10 10 10h37q10 0 10 -10v-660q0 -10 -10 -10h-39q-11 0 -17 10
l-336 560h-4v-560q0 -10 -10 -10h-37q-10 0 -10 10z" />
    <glyph glyph-name="ncaron" unicode="&#x148;" horiz-adv-x="541" 
d="M282 558h-23q-10 0 -16 9l-90 122q-3 4 -2 7t6 3h25q8 0 17 -10l70 -85h2l71 85q8 10 17 10h25q4 0 5.5 -3t-1.5 -7l-91 -122q-6 -9 -15 -9zM445 0h-34q-10 0 -10 10v282q0 143 -125 143q-56 0 -93 -36t-37 -97v-292q0 -10 -10 -10h-34q-10 0 -10 10v457q0 10 10 10h34
q10 0 10 -10v-57h1q39 77 141 77q80 0 123.5 -47.5t43.5 -134.5v-295q0 -10 -10 -10z" />
    <glyph glyph-name="Eng" unicode="&#x14a;" horiz-adv-x="651" 
d="M411 -180h-14q-10 0 -10 10v35q0 10 10 10h12q48 0 70.5 21.5t22.5 70.5v25l-347 578h-4v-560q0 -10 -10 -10h-37q-10 0 -10 10v660q0 10 10 10h37q13 0 17 -10l339 -558h3v558q0 10 10 10h37q10 0 10 -10v-698q0 -79 -36 -115.5t-110 -36.5z" />
    <glyph glyph-name="eng" unicode="&#x14b;" horiz-adv-x="541" 
d="M331 -180h-11q-10 0 -10 10v32q0 10 10 10h10q41 0 56 15t15 58v347q0 143 -125 143q-56 0 -93 -36t-37 -97v-292q0 -10 -10 -10h-34q-10 0 -10 10v457q0 10 10 10h34q10 0 10 -10v-57h1q39 77 141 77q80 0 123.5 -47.5t43.5 -134.5v-359q0 -69 -28.5 -97.5t-95.5 -28.5z
" />
    <glyph glyph-name="Omacron" unicode="&#x14c;" horiz-adv-x="609" 
d="M424 800h-240q-10 0 -10 10v26q0 10 10 10h240q10 0 10 -10v-26q0 -10 -10 -10zM305 -10q-170 0 -220 153q-20 60 -20 197t20 197q50 153 220 153q169 0 219 -153q20 -60 20 -197t-20 -197q-50 -153 -219 -153zM486 340q0 130 -17 181q-38 115 -164 115q-127 0 -165 -115
q-17 -51 -17 -181t17 -181q38 -115 165 -115q126 0 164 115q17 51 17 181z" />
    <glyph glyph-name="omacron" unicode="&#x14d;" horiz-adv-x="509" 
d="M373 618h-240q-10 0 -10 10v26q0 10 10 10h240q10 0 10 -10v-26q0 -10 -10 -10zM254 -10q-65 0 -112 32.5t-66 91.5q-16 51 -16 125q0 73 16 124q19 59 66 91.5t112 32.5q66 0 113 -32.5t66 -91.5q16 -51 16 -124q0 -74 -16 -125q-19 -59 -66 -91.5t-113 -32.5zM254 42
q97 0 127 89q13 39 13 108q0 68 -13 107q-30 89 -127 89q-96 0 -126 -89q-13 -39 -13 -107q0 -69 13 -108q30 -89 126 -89z" />
    <glyph glyph-name="Obreve" unicode="&#x14e;" horiz-adv-x="609" 
d="M304 768q-51 0 -84.5 28.5t-39.5 74.5q-2 10 9 10h19q9 0 12 -10q17 -59 84 -59q68 0 86 59q3 10 11 10h19q11 0 9 -10q-7 -46 -40.5 -74.5t-84.5 -28.5zM305 -10q-170 0 -220 153q-20 60 -20 197t20 197q50 153 220 153q169 0 219 -153q20 -60 20 -197t-20 -197
q-50 -153 -219 -153zM486 340q0 130 -17 181q-38 115 -164 115q-127 0 -165 -115q-17 -51 -17 -181t17 -181q38 -115 165 -115q126 0 164 115q17 51 17 181z" />
    <glyph glyph-name="obreve" unicode="&#x14f;" horiz-adv-x="509" 
d="M254 -10q-65 0 -112 32.5t-66 91.5q-16 51 -16 125q0 73 16 124q19 59 66 91.5t112 32.5q66 0 113 -32.5t66 -91.5q16 -51 16 -124q0 -74 -16 -125q-19 -59 -66 -91.5t-113 -32.5zM254 42q97 0 127 89q13 39 13 108q0 68 -13 107q-30 89 -127 89q-96 0 -126 -89
q-13 -39 -13 -107q0 -69 13 -108q30 -89 126 -89zM253 570q-50 0 -84 29t-40 75q-2 10 9 10h19q9 0 12 -10q17 -60 84 -60q68 0 86 60q3 10 11 10h19q11 0 9 -10q-7 -47 -40.5 -75.5t-84.5 -28.5z" />
    <glyph glyph-name="Ohungarumlaut" unicode="&#x150;" horiz-adv-x="609" 
d="M305 -10q-170 0 -220 153q-20 60 -20 197t20 197q50 153 220 153q169 0 219 -153q20 -60 20 -197t-20 -197q-50 -153 -219 -153zM486 340q0 130 -17 181q-38 115 -164 115q-127 0 -165 -115q-17 -51 -17 -181t17 -181q38 -115 165 -115q126 0 164 115q17 51 17 181z
M376 764h-25q-5 0 -6 3t2 7l67 105q7 10 16 10h34q4 0 5.5 -3t-1.5 -7l-76 -105q-7 -10 -16 -10zM252 764h-25q-5 0 -6 3t2 7l67 105q6 10 16 10h33q5 0 6 -3t-2 -7l-75 -105q-7 -10 -16 -10z" />
    <glyph glyph-name="ohungarumlaut" unicode="&#x151;" horiz-adv-x="509" 
d="M328 558h-24q-10 0 -5 10l67 122q6 10 16 10h32q11 0 5 -10l-76 -123q-6 -9 -15 -9zM204 558h-24q-11 0 -6 10l67 122q6 10 16 10h33q11 0 5 -10l-76 -123q-6 -9 -15 -9zM254 -10q-65 0 -112 32.5t-66 91.5q-16 51 -16 125q0 73 16 124q19 59 66 91.5t112 32.5
q66 0 113 -32.5t66 -91.5q16 -51 16 -124q0 -74 -16 -125q-19 -59 -66 -91.5t-113 -32.5zM254 42q97 0 127 89q13 39 13 108q0 68 -13 107q-30 89 -127 89q-96 0 -126 -89q-13 -39 -13 -107q0 -69 13 -108q30 -89 126 -89z" />
    <glyph glyph-name="OE" unicode="&#x152;" horiz-adv-x="949" 
d="M306 -10q-170 0 -220 153q-20 60 -20 197t20 197q50 153 220 153q129 0 180 -98h1v78q0 10 10 10h389q10 0 10 -10v-34q0 -10 -10 -10h-336q-6 0 -6 -6v-242q0 -6 6 -6h289q10 0 10 -10v-34q0 -10 -10 -10h-289q-6 0 -6 -6v-252q0 -6 6 -6h336q10 0 10 -10v-34
q0 -10 -10 -10h-389q-10 0 -10 10v78h-1q-51 -98 -180 -98zM306 44q126 0 164 115q17 51 17 181t-17 181q-38 115 -164 115q-127 0 -165 -115q-17 -51 -17 -181t17 -181q38 -115 165 -115z" />
    <glyph glyph-name="oe" unicode="&#x153;" horiz-adv-x="836" 
d="M590 -10q-123 0 -168 100h-2q-44 -100 -166 -100q-66 0 -112.5 32.5t-65.5 91.5q-16 47 -16 124q0 78 16 125q19 59 65.5 91.5t112.5 32.5q121 0 166 -100h1q45 100 164 100q65 0 111 -32t66 -92q14 -47 14 -127q0 -10 -11 -10h-311q-6 0 -6 -7q1 -54 11 -84
q31 -93 134 -93q87 0 134 61q8 8 15 2l21 -21q7 -6 1 -14q-60 -80 -174 -80zM715 272q6 0 6 6q0 40 -9 69q-31 90 -127 90q-98 0 -127 -90q-10 -32 -10 -69q0 -6 6 -6h261zM254 42q97 0 127 89q13 39 13 108q0 68 -13 107q-30 89 -127 89q-96 0 -126 -89q-13 -39 -13 -107
q0 -69 13 -108q30 -89 126 -89z" />
    <glyph glyph-name="Racute" unicode="&#x154;" horiz-adv-x="615" 
d="M543 0h-46q-8 0 -12 9l-143 295h-10h-175q-6 0 -6 -6v-288q0 -10 -10 -10h-37q-10 0 -10 10v660q0 10 10 10h228q96 0 151.5 -50.5t55.5 -137.5q0 -70 -36.5 -117t-102.5 -63l148 -301q7 -11 -5 -11zM331 358q73 0 112 34.5t39 99.5q0 64 -39 99t-112 35h-174q-6 0 -6 -6
v-256q0 -6 6 -6h174zM280 764h-26q-12 0 -4 10l82 104q7 10 18 10h40q4 0 5.5 -3t-1.5 -7l-96 -105q-8 -9 -18 -9z" />
    <glyph glyph-name="racute" unicode="&#x155;" horiz-adv-x="396" 
d="M202 558h-25q-11 0 -6 10l77 122q6 10 17 10h38q5 0 6.5 -3t-1.5 -7l-88 -122q-9 -10 -18 -10zM136 0h-34q-10 0 -10 10v457q0 10 10 10h34q10 0 10 -10v-61h1q31 81 128 81q58 0 96 -33q8 -5 2 -13l-20 -28q-5 -7 -15 -2q-38 24 -76 24q-59 0 -87.5 -44.5t-28.5 -116.5
v-264q0 -10 -10 -10z" />
    <glyph glyph-name="Rcommaaccent" unicode="&#x156;" horiz-adv-x="615" 
d="M288 -195q-9 0 -9 9v120q0 10 10 10h37q10 0 10 -10v-42q0 -12 -5 -22l-32 -57q-4 -8 -11 -8zM543 0h-46q-8 0 -12 9l-143 295h-10h-175q-6 0 -6 -6v-288q0 -10 -10 -10h-37q-10 0 -10 10v660q0 10 10 10h228q96 0 151.5 -50.5t55.5 -137.5q0 -70 -36.5 -117t-102.5 -63
l148 -301q7 -11 -5 -11zM331 358q73 0 112 34.5t39 99.5q0 64 -39 99t-112 35h-174q-6 0 -6 -6v-256q0 -6 6 -6h174z" />
    <glyph glyph-name="rcommaaccent" unicode="&#x157;" horiz-adv-x="396" 
d="M100 -195q-9 0 -9 9v120q0 10 10 10h37q10 0 10 -10v-42q0 -12 -5 -22l-32 -57q-4 -8 -11 -8zM136 0h-34q-10 0 -10 10v457q0 10 10 10h34q10 0 10 -10v-61h1q31 81 128 81q58 0 96 -33q8 -5 2 -13l-20 -28q-5 -7 -15 -2q-38 24 -76 24q-59 0 -87.5 -44.5t-28.5 -116.5
v-264q0 -10 -10 -10z" />
    <glyph glyph-name="Rcaron" unicode="&#x158;" horiz-adv-x="615" 
d="M298 754h-23q-10 0 -16 9l-90 122q-3 4 -2 7t6 3h25q8 0 17 -10l70 -85h2l71 85q8 10 17 10h25q4 0 5.5 -3t-1.5 -7l-91 -122q-6 -9 -15 -9zM543 0h-46q-8 0 -12 9l-143 295h-10h-175q-6 0 -6 -6v-288q0 -10 -10 -10h-37q-10 0 -10 10v660q0 10 10 10h228
q96 0 151.5 -50.5t55.5 -137.5q0 -70 -36.5 -117t-102.5 -63l148 -301q7 -11 -5 -11zM331 358q73 0 112 34.5t39 99.5q0 64 -39 99t-112 35h-174q-6 0 -6 -6v-256q0 -6 6 -6h174z" />
    <glyph glyph-name="rcaron" unicode="&#x159;" horiz-adv-x="396" 
d="M235 558h-23q-10 0 -16 9l-90 122q-3 4 -1.5 7t5.5 3h25q8 0 17 -10l70 -85h2l71 85q7 10 17 10h25q5 0 6 -3t-2 -7l-91 -122q-6 -9 -15 -9zM136 0h-34q-10 0 -10 10v457q0 10 10 10h34q10 0 10 -10v-61h1q31 81 128 81q58 0 96 -33q8 -5 2 -13l-20 -28q-5 -7 -15 -2
q-38 24 -76 24q-59 0 -87.5 -44.5t-28.5 -116.5v-264q0 -10 -10 -10z" />
    <glyph glyph-name="Sacute" unicode="&#x15a;" horiz-adv-x="596" 
d="M290 -10q-64 0 -125.5 23t-99.5 56q-7 7 -1 14l24 30q7 8 14 1q90 -70 195 -70q81 0 128.5 38t47.5 101q0 54 -37 87.5t-126 44.5l-31 4q-196 25 -196 180q0 88 58 139.5t156 51.5q115 0 194 -57q9 -5 2 -14l-20 -31q-6 -7 -14 -2q-82 50 -165 50q-72 0 -113 -36.5
t-41 -96.5q0 -54 38 -86t122 -43l31 -4q199 -26 199 -183q0 -89 -62.5 -143t-177.5 -54zM291 764h-26q-12 0 -4 10l82 104q7 10 18 10h40q5 0 6 -3t-2 -7l-96 -105q-8 -9 -18 -9z" />
    <glyph glyph-name="sacute" unicode="&#x15b;" horiz-adv-x="481" 
d="M237 558h-25q-11 0 -6 10l77 122q6 10 17 10h38q5 0 6.5 -3t-1.5 -7l-88 -122q-9 -10 -18 -10zM241 -10q-106 0 -186 67q-7 7 0 14l22 25q6 6 14 0q69 -56 155 -56q61 0 92.5 25t31.5 67q0 38 -23 57.5t-86 26.5l-48 5q-139 14 -139 127q0 65 44.5 102t123.5 37
q89 0 159 -46q8 -6 2 -14l-18 -24q-5 -8 -14 -3q-64 37 -132 37q-54 0 -82.5 -22.5t-28.5 -62.5q0 -36 25 -55t85 -25l48 -5q138 -13 138 -128q0 -69 -47.5 -109t-135.5 -40z" />
    <glyph glyph-name="Scircumflex" unicode="&#x15c;" horiz-adv-x="596" 
d="M290 -10q-64 0 -125.5 23t-99.5 56q-7 7 -1 14l24 30q7 8 14 1q90 -70 195 -70q81 0 128.5 38t47.5 101q0 54 -37 87.5t-126 44.5l-31 4q-196 25 -196 180q0 88 58 139.5t156 51.5q115 0 194 -57q9 -5 2 -14l-20 -31q-6 -7 -14 -2q-82 50 -165 50q-72 0 -113 -36.5
t-41 -96.5q0 -54 38 -86t122 -43l31 -4q199 -26 199 -183q0 -89 -62.5 -143t-177.5 -54zM411 754h-25q-10 0 -17 10l-71 85h-2l-70 -85q-9 -10 -17 -10h-25q-4 0 -5.5 3t1.5 7l90 123q6 9 16 9h23q9 0 15 -9l91 -123q3 -4 2 -7t-6 -3z" />
    <glyph glyph-name="scircumflex" unicode="&#x15d;" horiz-adv-x="481" 
d="M355 558h-25q-10 0 -17 10l-71 85h-2l-70 -85q-9 -10 -17 -10h-25q-4 0 -5.5 3t1.5 7l90 123q6 9 16 9h23q9 0 15 -9l91 -123q3 -4 2 -7t-6 -3zM241 -10q-106 0 -186 67q-7 7 0 14l22 25q6 6 14 0q69 -56 155 -56q61 0 92.5 25t31.5 67q0 38 -23 57.5t-86 26.5l-48 5
q-139 14 -139 127q0 65 44.5 102t123.5 37q89 0 159 -46q8 -6 2 -14l-18 -24q-5 -8 -14 -3q-64 37 -132 37q-54 0 -82.5 -22.5t-28.5 -62.5q0 -36 25 -55t85 -25l48 -5q138 -13 138 -128q0 -69 -47.5 -109t-135.5 -40z" />
    <glyph glyph-name="Scedilla" unicode="&#x15e;" horiz-adv-x="596" 
d="M266 -148h-31q-10 0 -7 10l50 128q-61 2 -119 25t-94 54q-7 7 -1 14l24 30q7 8 14 1q90 -70 195 -70q81 0 128.5 38t47.5 101q0 54 -37 87.5t-126 44.5l-31 4q-196 25 -196 180q0 88 58 139.5t156 51.5q115 0 194 -57q9 -5 2 -14l-20 -31q-6 -7 -14 -2q-82 50 -165 50
q-72 0 -113 -36.5t-41 -96.5q0 -54 38 -86t122 -43l31 -4q199 -26 199 -183q0 -82 -53 -134.5t-152 -60.5l-43 -130q-4 -10 -16 -10z" />
    <glyph glyph-name="scedilla" unicode="&#x15f;" horiz-adv-x="481" 
d="M212 -148h-31q-10 0 -7 10l50 128q-97 5 -169 67q-7 7 0 14l22 25q6 6 14 0q69 -56 155 -56q61 0 92.5 25t31.5 67q0 38 -23 57.5t-86 26.5l-48 5q-139 14 -139 127q0 65 44.5 102t123.5 37q89 0 159 -46q8 -6 2 -14l-18 -24q-5 -8 -14 -3q-64 37 -132 37
q-54 0 -82.5 -22.5t-28.5 -62.5q0 -36 25 -55t85 -25l48 -5q138 -13 138 -128q0 -62 -39 -101.5t-114 -46.5l-43 -129q-4 -10 -16 -10z" />
    <glyph glyph-name="Scaron" unicode="&#x160;" horiz-adv-x="596" 
d="M290 -10q-64 0 -125.5 23t-99.5 56q-7 7 -1 14l24 30q7 8 14 1q90 -70 195 -70q81 0 128.5 38t47.5 101q0 54 -37 87.5t-126 44.5l-31 4q-196 25 -196 180q0 88 58 139.5t156 51.5q115 0 194 -57q9 -5 2 -14l-20 -31q-6 -7 -14 -2q-82 50 -165 50q-72 0 -113 -36.5
t-41 -96.5q0 -54 38 -86t122 -43l31 -4q199 -26 199 -183q0 -89 -62.5 -143t-177.5 -54zM309 754h-23q-10 0 -16 9l-90 122q-3 4 -1.5 7t5.5 3h25q8 0 17 -10l70 -85h2l71 85q7 10 17 10h25q5 0 6 -3t-2 -7l-91 -122q-6 -9 -15 -9z" />
    <glyph glyph-name="scaron" unicode="&#x161;" horiz-adv-x="481" 
d="M253 558h-23q-10 0 -16 9l-90 122q-3 4 -1.5 7t5.5 3h25q8 0 17 -10l70 -85h2l71 85q7 10 17 10h25q5 0 6 -3t-2 -7l-91 -122q-6 -9 -15 -9zM241 -10q-106 0 -186 67q-7 7 0 14l22 25q6 6 14 0q69 -56 155 -56q61 0 92.5 25t31.5 67q0 38 -23 57.5t-86 26.5l-48 5
q-139 14 -139 127q0 65 44.5 102t123.5 37q89 0 159 -46q8 -6 2 -14l-18 -24q-5 -8 -14 -3q-64 37 -132 37q-54 0 -82.5 -22.5t-28.5 -62.5q0 -36 25 -55t85 -25l48 -5q138 -13 138 -128q0 -69 -47.5 -109t-135.5 -40z" />
    <glyph glyph-name="uni0162" unicode="&#x162;" horiz-adv-x="525" 
d="M243 -195q-9 0 -9 9v120q0 10 10 10h37q10 0 10 -10v-42q0 -12 -5 -22l-32 -57q-4 -8 -11 -8zM281 0h-37q-10 0 -10 10v610q0 6 -6 6h-196q-10 0 -10 10v34q0 10 10 10h461q10 0 10 -10v-34q0 -10 -10 -10h-196q-6 0 -6 -6v-610q0 -10 -10 -10z" />
    <glyph glyph-name="uni0163" unicode="&#x163;" horiz-adv-x="311" 
d="M161 -195q-9 0 -9 9v120q0 10 10 10h37q10 0 10 -10v-42q0 -12 -5 -22l-32 -57q-4 -8 -11 -8zM255 -3h-26q-68 0 -96 29.5t-28 99.5v297q0 6 -6 6h-50q-10 0 -10 10v28q0 10 10 10h50q6 0 6 6v137q0 10 10 10h34q10 0 10 -10v-137q0 -6 6 -6h90q10 0 10 -10v-28
q0 -10 -10 -10h-90q-6 0 -6 -6v-294q0 -47 17 -63.5t60 -16.5h19q10 0 10 -10v-32q0 -10 -10 -10z" />
    <glyph glyph-name="Tcaron" unicode="&#x164;" horiz-adv-x="525" 
d="M274 754h-23q-10 0 -16 9l-90 122q-3 4 -2 7t6 3h25q8 0 17 -10l70 -85h2l71 85q8 10 17 10h25q4 0 5.5 -3t-1.5 -7l-91 -122q-6 -9 -15 -9zM281 0h-37q-10 0 -10 10v610q0 6 -6 6h-196q-10 0 -10 10v34q0 10 10 10h461q10 0 10 -10v-34q0 -10 -10 -10h-196q-6 0 -6 -6
v-610q0 -10 -10 -10z" />
    <glyph glyph-name="tcaron" unicode="&#x165;" horiz-adv-x="311" 
d="M255 535q-9 0 -9 10v125q0 10 10 10h37q10 0 10 -10v-48q0 -11 -5 -21l-32 -57q-4 -9 -11 -9zM255 -3h-26q-68 0 -96 29.5t-28 99.5v297q0 6 -6 6h-50q-10 0 -10 10v28q0 10 10 10h50q6 0 6 6v137q0 10 10 10h34q10 0 10 -10v-137q0 -6 6 -6h90q10 0 10 -10v-28
q0 -10 -10 -10h-90q-6 0 -6 -6v-294q0 -47 17 -63.5t60 -16.5h19q10 0 10 -10v-32q0 -10 -10 -10z" />
    <glyph glyph-name="Tbar" unicode="&#x166;" horiz-adv-x="525" 
d="M281 0h-37q-10 0 -10 10v384q0 6 -6 6h-105q-10 0 -10 10v30q0 10 10 10h105q6 0 6 6v164q0 6 -6 6h-196q-10 0 -10 10v34q0 10 10 10h461q10 0 10 -10v-34q0 -10 -10 -10h-196q-6 0 -6 -6v-164q0 -6 6 -6h105q10 0 10 -10v-30q0 -10 -10 -10h-105q-6 0 -6 -6v-384
q0 -10 -10 -10z" />
    <glyph glyph-name="tbar" unicode="&#x167;" horiz-adv-x="311" 
d="M255 -3h-26q-68 0 -96 29.5t-28 99.5v169q0 6 -6 6h-40q-10 0 -10 10v26q0 10 10 10h40q6 0 6 6v70q0 6 -6 6h-50q-10 0 -10 10v28q0 10 10 10h50q6 0 6 6v137q0 10 10 10h34q10 0 10 -10v-137q0 -6 6 -6h90q10 0 10 -10v-28q0 -10 -10 -10h-90q-6 0 -6 -6v-70q0 -6 6 -6
h77q10 0 10 -10v-26q0 -10 -10 -10h-77q-6 0 -6 -6v-166q0 -47 17 -63.5t60 -16.5h19q10 0 10 -10v-32q0 -10 -10 -10z" />
    <glyph glyph-name="Utilde" unicode="&#x168;" horiz-adv-x="635" 
d="M371 782q-26 0 -60 21q-29 18 -49 18q-25 0 -58 -33q-9 -7 -9 3v30q0 7 8 15q27 30 61 30q26 0 60 -20q26 -18 49 -18q28 0 59 33q3 3 5.5 2t2.5 -5v-30q0 -8 -7 -16q-30 -30 -62 -30zM144 670v-436q0 -94 45 -142t128 -48t128.5 48t45.5 142v436q0 10 10 10h37
q10 0 10 -10v-435q0 -122 -61 -183.5t-170 -61.5q-108 0 -169 62t-61 183v435q0 10 10 10h37q10 0 10 -10z" />
    <glyph glyph-name="utilde" unicode="&#x169;" horiz-adv-x="535" 
d="M433 0h-34q-10 0 -10 10v56h-1q-39 -76 -139 -76q-79 0 -122 47.5t-43 133.5v296q0 10 10 10h34q10 0 10 -10v-282q0 -143 123 -143q55 0 91.5 36t36.5 97v292q0 10 10 10h34q10 0 10 -10v-457q0 -10 -10 -10zM320 596q-26 0 -60 21q-29 18 -49 18q-25 0 -58 -33
q-9 -7 -9 3v30q0 7 8 15q27 30 61 30q26 0 60 -20q26 -18 49 -18q28 0 59 33q3 3 5.5 2t2.5 -5v-30q0 -8 -7 -16q-30 -30 -62 -30z" />
    <glyph glyph-name="Umacron" unicode="&#x16a;" horiz-adv-x="635" 
d="M437 800h-240q-10 0 -10 10v26q0 10 10 10h240q10 0 10 -10v-26q0 -10 -10 -10zM144 670v-436q0 -94 45 -142t128 -48t128.5 48t45.5 142v436q0 10 10 10h37q10 0 10 -10v-435q0 -122 -61 -183.5t-170 -61.5q-108 0 -169 62t-61 183v435q0 10 10 10h37q10 0 10 -10z" />
    <glyph glyph-name="umacron" unicode="&#x16b;" horiz-adv-x="535" 
d="M433 0h-34q-10 0 -10 10v56h-1q-39 -76 -139 -76q-79 0 -122 47.5t-43 133.5v296q0 10 10 10h34q10 0 10 -10v-282q0 -143 123 -143q55 0 91.5 36t36.5 97v292q0 10 10 10h34q10 0 10 -10v-457q0 -10 -10 -10zM386 618h-240q-10 0 -10 10v26q0 10 10 10h240q10 0 10 -10
v-26q0 -10 -10 -10z" />
    <glyph glyph-name="Ubreve" unicode="&#x16c;" horiz-adv-x="635" 
d="M317 768q-51 0 -84.5 28.5t-39.5 74.5q-2 10 9 10h19q9 0 12 -10q17 -59 84 -59q68 0 86 59q3 10 11 10h19q11 0 9 -10q-7 -46 -40.5 -74.5t-84.5 -28.5zM144 670v-436q0 -94 45 -142t128 -48t128.5 48t45.5 142v436q0 10 10 10h37q10 0 10 -10v-435q0 -122 -61 -183.5
t-170 -61.5q-108 0 -169 62t-61 183v435q0 10 10 10h37q10 0 10 -10z" />
    <glyph glyph-name="ubreve" unicode="&#x16d;" horiz-adv-x="535" 
d="M433 0h-34q-10 0 -10 10v56h-1q-39 -76 -139 -76q-79 0 -122 47.5t-43 133.5v296q0 10 10 10h34q10 0 10 -10v-282q0 -143 123 -143q55 0 91.5 36t36.5 97v292q0 10 10 10h34q10 0 10 -10v-457q0 -10 -10 -10zM266 570q-50 0 -84 29t-40 75q-2 10 9 10h19q9 0 12 -10
q17 -60 84 -60q68 0 86 60q3 10 11 10h19q11 0 9 -10q-7 -47 -40.5 -75.5t-84.5 -28.5z" />
    <glyph glyph-name="Uring" unicode="&#x16e;" horiz-adv-x="635" 
d="M144 670v-436q0 -94 45 -142t128 -48t128.5 48t45.5 142v436q0 10 10 10h37q10 0 10 -10v-435q0 -122 -61 -183.5t-170 -61.5q-108 0 -169 62t-61 183v435q0 10 10 10h37q10 0 10 -10zM405 826q0 -38 -25 -63t-63 -25t-63 25t-25 63t25 63t63 25t63 -25t25 -63zM370 826
q0 24 -14.5 40t-38.5 16t-38.5 -16t-14.5 -40t14.5 -40t38.5 -16t38.5 16t14.5 40z" />
    <glyph glyph-name="uring" unicode="&#x16f;" horiz-adv-x="535" 
d="M354 629q0 -38 -25 -63t-63 -25t-63 25t-25 63t25 63t63 25t63 -25t25 -63zM319 629q0 24 -14.5 40t-38.5 16t-38.5 -16t-14.5 -40t14.5 -40t38.5 -16t38.5 16t14.5 40zM433 0h-34q-10 0 -10 10v56h-1q-39 -76 -139 -76q-79 0 -122 47.5t-43 133.5v296q0 10 10 10h34
q10 0 10 -10v-282q0 -143 123 -143q55 0 91.5 36t36.5 97v292q0 10 10 10h34q10 0 10 -10v-457q0 -10 -10 -10z" />
    <glyph glyph-name="Uhungarumlaut" unicode="&#x170;" horiz-adv-x="635" 
d="M144 670v-436q0 -94 45 -142t128 -48t128.5 48t45.5 142v436q0 10 10 10h37q10 0 10 -10v-435q0 -122 -61 -183.5t-170 -61.5q-108 0 -169 62t-61 183v435q0 10 10 10h37q10 0 10 -10zM386 764h-25q-5 0 -6 3t2 7l67 105q7 10 16 10h34q4 0 5.5 -3t-1.5 -7l-76 -105
q-7 -10 -16 -10zM262 764h-25q-5 0 -6 3t2 7l67 105q6 10 16 10h33q5 0 6 -3t-2 -7l-75 -105q-7 -10 -16 -10z" />
    <glyph glyph-name="uhungarumlaut" unicode="&#x171;" horiz-adv-x="535" 
d="M433 0h-34q-10 0 -10 10v56h-1q-39 -76 -139 -76q-79 0 -122 47.5t-43 133.5v296q0 10 10 10h34q10 0 10 -10v-282q0 -143 123 -143q55 0 91.5 36t36.5 97v292q0 10 10 10h34q10 0 10 -10v-457q0 -10 -10 -10zM330 558h-24q-10 0 -5 10l67 122q6 10 16 10h32q11 0 5 -10
l-76 -123q-6 -9 -15 -9zM206 558h-24q-11 0 -6 10l67 122q6 10 16 10h33q11 0 5 -10l-76 -123q-6 -9 -15 -9z" />
    <glyph glyph-name="Uogonek" unicode="&#x172;" horiz-adv-x="635" 
d="M325 -172q-32 0 -51 18t-19 50q0 41 49 94q-102 4 -159.5 65.5t-57.5 179.5v435q0 10 10 10h37q10 0 10 -10v-436q0 -94 45 -142t128 -48t128.5 48t45.5 142v436q0 10 10 10h37q10 0 10 -10v-435q0 -109 -50 -170t-140 -72q-54 -59 -54 -90q0 -28 29 -28q13 0 28 9
q8 5 13 -3l11 -21q3 -7 -4 -13q-25 -19 -56 -19z" />
    <glyph glyph-name="uogonek" unicode="&#x173;" horiz-adv-x="535" 
d="M376 -172q-32 0 -51 18t-19 50q0 52 83 111v59h-1q-39 -76 -139 -76q-79 0 -122 47.5t-43 133.5v296q0 10 10 10h34q10 0 10 -10v-282q0 -143 123 -143q55 0 91.5 36t36.5 97v292q0 10 10 10h34q10 0 10 -10v-457q0 -6 -5 -10q-83 -60 -83 -97q0 -28 29 -28q13 0 28 9
q8 5 13 -3l11 -21q3 -7 -4 -13q-25 -19 -56 -19z" />
    <glyph glyph-name="Wcircumflex" unicode="&#x174;" horiz-adv-x="817" 
d="M613 0h-33q-8 0 -11 10l-159 557h-2l-160 -557q-3 -10 -11 -10h-32q-9 0 -12 10l-161 659q-3 11 8 11h36q12 0 13 -10l134 -560h2l157 560q3 10 12 10h30q9 0 12 -10l159 -560h2l131 560q2 10 13 10h36q11 0 8 -11l-161 -659q-2 -10 -11 -10zM522 754h-25q-9 0 -17 10
l-71 85h-2l-70 -85q-9 -10 -17 -10h-25q-5 0 -6 3t2 7l90 123q6 9 16 9h23q9 0 15 -9l91 -123q3 -4 1.5 -7t-5.5 -3z" />
    <glyph glyph-name="wcircumflex" unicode="&#x175;" horiz-adv-x="736" 
d="M481 558h-25q-10 0 -17 10l-71 85h-2l-70 -85q-9 -10 -17 -10h-25q-4 0 -5.5 3t1.5 7l90 123q6 9 16 9h23q9 0 15 -9l91 -123q3 -4 2 -7t-6 -3zM536 0h-31q-9 0 -12 10l-124 381h-1l-126 -381q-3 -10 -12 -10h-30q-9 0 -12 10l-149 457q-3 10 7 10h36q9 0 13 -10
l122 -381h1l124 381q3 10 12 10h29q9 0 12 -10l126 -381h1l119 381q4 10 13 10h36q10 0 7 -10l-149 -457q-3 -10 -12 -10z" />
    <glyph glyph-name="Ycircumflex" unicode="&#x176;" horiz-adv-x="515" 
d="M276 0h-37q-10 0 -10 10v269l-204 390q-4 11 8 11h39q10 0 15 -10l171 -325h3l168 325q5 10 15 10h38q12 0 8 -11l-204 -390v-269q0 -10 -10 -10zM371 754h-25q-10 0 -17 10l-71 85h-2l-70 -85q-9 -10 -17 -10h-25q-4 0 -5.5 3t1.5 7l90 123q6 9 16 9h23q9 0 15 -9
l91 -123q3 -4 2 -7t-6 -3z" />
    <glyph glyph-name="ycircumflex" unicode="&#x177;" horiz-adv-x="467" 
d="M103 -180h-21q-10 0 -10 10v32q0 10 10 10h18q32 0 51 18t39 71l19 49l-176 457q-3 10 7 10h38q9 0 13 -10l145 -383h1l141 383q3 10 12 10h38q10 0 7 -10l-195 -513q-30 -80 -59 -107t-78 -27zM348 558h-25q-9 0 -17 10l-71 85h-2l-70 -85q-9 -10 -17 -10h-25q-5 0 -6 3
t2 7l90 123q6 9 16 9h23q9 0 15 -9l91 -123q3 -4 1.5 -7t-5.5 -3z" />
    <glyph glyph-name="Ydieresis" unicode="&#x178;" horiz-adv-x="515" 
d="M276 0h-37q-10 0 -10 10v269l-204 390q-4 11 8 11h39q10 0 15 -10l171 -325h3l168 325q5 10 15 10h38q12 0 8 -11l-204 -390v-269q0 -10 -10 -10zM377 786h-39q-10 0 -10 10v56q0 10 10 10h39q10 0 10 -10v-56q0 -10 -10 -10zM177 786h-39q-10 0 -10 10v56q0 10 10 10h39
q10 0 10 -10v-56q0 -10 -10 -10z" />
    <glyph glyph-name="Zacute" unicode="&#x179;" horiz-adv-x="540" 
d="M476 0h-413q-10 0 -10 10v33q0 7 5 15l361 567v1h-343q-10 0 -10 10v34q0 10 10 10h400q10 0 10 -10v-33q0 -7 -5 -15l-361 -567v-1h356q10 0 10 -10v-34q0 -10 -10 -10zM258 764h-26q-12 0 -4 10l82 104q7 10 18 10h40q4 0 5.5 -3t-1.5 -7l-96 -105q-8 -9 -18 -9z" />
    <glyph glyph-name="zacute" unicode="&#x17a;" horiz-adv-x="467" 
d="M230 558h-25q-11 0 -6 10l77 122q6 10 17 10h38q5 0 6.5 -3t-1.5 -7l-88 -122q-9 -10 -18 -10zM401 0h-333q-10 0 -10 10v30q0 7 5 13l283 371v1h-265q-10 0 -10 10v32q0 10 10 10h320q10 0 10 -10v-32q0 -7 -5 -13l-282 -369v-2h277q10 0 10 -10v-31q0 -10 -10 -10z" />
    <glyph glyph-name="Zdotaccent" unicode="&#x17b;" horiz-adv-x="540" 
d="M292 786h-44q-10 0 -10 10v56q0 10 10 10h44q10 0 10 -10v-56q0 -10 -10 -10zM476 0h-413q-10 0 -10 10v33q0 7 5 15l361 567v1h-343q-10 0 -10 10v34q0 10 10 10h400q10 0 10 -10v-33q0 -7 -5 -15l-361 -567v-1h356q10 0 10 -10v-34q0 -10 -10 -10z" />
    <glyph glyph-name="zdotaccent" unicode="&#x17c;" horiz-adv-x="467" 
d="M401 0h-333q-10 0 -10 10v30q0 7 5 13l283 371v1h-265q-10 0 -10 10v32q0 10 10 10h320q10 0 10 -10v-32q0 -7 -5 -13l-282 -369v-2h277q10 0 10 -10v-31q0 -10 -10 -10zM258 604h-44q-10 0 -10 10v56q0 10 10 10h44q10 0 10 -10v-56q0 -10 -10 -10z" />
    <glyph glyph-name="Zcaron" unicode="&#x17d;" horiz-adv-x="540" 
d="M282 754h-23q-10 0 -16 9l-90 122q-3 4 -2 7t6 3h25q8 0 17 -10l70 -85h2l71 85q8 10 17 10h25q4 0 5.5 -3t-1.5 -7l-91 -122q-6 -9 -15 -9zM476 0h-413q-10 0 -10 10v33q0 7 5 15l361 567v1h-343q-10 0 -10 10v34q0 10 10 10h400q10 0 10 -10v-33q0 -7 -5 -15l-361 -567
v-1h356q10 0 10 -10v-34q0 -10 -10 -10z" />
    <glyph glyph-name="zcaron" unicode="&#x17e;" horiz-adv-x="467" 
d="M246 558h-23q-10 0 -16 9l-90 122q-3 4 -2 7t6 3h25q8 0 17 -10l70 -85h2l71 85q8 10 17 10h25q4 0 5.5 -3t-1.5 -7l-91 -122q-6 -9 -15 -9zM401 0h-333q-10 0 -10 10v30q0 7 5 13l283 371v1h-265q-10 0 -10 10v32q0 10 10 10h320q10 0 10 -10v-32q0 -7 -5 -13l-282 -369
v-2h277q10 0 10 -10v-31q0 -10 -10 -10z" />
    <glyph glyph-name="florin" unicode="&#x192;" 
d="M415 348h-107l-59 -385q-13 -80 -45.5 -111.5t-100.5 -31.5h-21q-10 0 -10 10v31q0 10 10 10h23q42 0 62 19t28 70l59 388h-86q-10 0 -10 10v27q0 10 10 10h94l22 143q12 78 44.5 110t100.5 32h21q10 0 10 -10v-31q0 -10 -10 -10h-24q-41 0 -61 -19.5t-27 -69.5l-23 -145
h100q10 0 10 -10v-27q0 -10 -10 -10z" />
    <glyph glyph-name="Scommaaccent" unicode="&#x218;" horiz-adv-x="596" 
d="M279 -195q-9 0 -9 9v120q0 10 10 10h37q10 0 10 -10v-42q0 -12 -5 -22l-32 -57q-4 -8 -11 -8zM290 -10q-64 0 -125.5 23t-99.5 56q-7 7 -1 14l24 30q7 8 14 1q90 -70 195 -70q81 0 128.5 38t47.5 101q0 54 -37 87.5t-126 44.5l-31 4q-196 25 -196 180q0 88 58 139.5
t156 51.5q115 0 194 -57q9 -5 2 -14l-20 -31q-6 -7 -14 -2q-82 50 -165 50q-72 0 -113 -36.5t-41 -96.5q0 -54 38 -86t122 -43l31 -4q199 -26 199 -183q0 -89 -62.5 -143t-177.5 -54z" />
    <glyph glyph-name="scommaaccent" unicode="&#x219;" horiz-adv-x="481" 
d="M220 -195q-9 0 -9 9v120q0 10 10 10h37q10 0 10 -10v-42q0 -12 -5 -22l-32 -57q-4 -8 -11 -8zM241 -10q-106 0 -186 67q-7 7 0 14l22 25q6 6 14 0q69 -56 155 -56q61 0 92.5 25t31.5 67q0 38 -23 57.5t-86 26.5l-48 5q-139 14 -139 127q0 65 44.5 102t123.5 37
q89 0 159 -46q8 -6 2 -14l-18 -24q-5 -8 -14 -3q-64 37 -132 37q-54 0 -82.5 -22.5t-28.5 -62.5q0 -36 25 -55t85 -25l48 -5q138 -13 138 -128q0 -69 -47.5 -109t-135.5 -40z" />
    <glyph glyph-name="uni021A" unicode="&#x21a;" horiz-adv-x="525" 
d="M243 -195q-9 0 -9 9v120q0 10 10 10h37q10 0 10 -10v-42q0 -12 -5 -22l-32 -57q-4 -8 -11 -8zM281 0h-37q-10 0 -10 10v610q0 6 -6 6h-196q-10 0 -10 10v34q0 10 10 10h461q10 0 10 -10v-34q0 -10 -10 -10h-196q-6 0 -6 -6v-610q0 -10 -10 -10z" />
    <glyph glyph-name="uni021B" unicode="&#x21b;" horiz-adv-x="311" 
d="M161 -195q-9 0 -9 9v120q0 10 10 10h37q10 0 10 -10v-42q0 -12 -5 -22l-32 -57q-4 -8 -11 -8zM255 -3h-26q-68 0 -96 29.5t-28 99.5v297q0 6 -6 6h-50q-10 0 -10 10v28q0 10 10 10h50q6 0 6 6v137q0 10 10 10h34q10 0 10 -10v-137q0 -6 6 -6h90q10 0 10 -10v-28
q0 -10 -10 -10h-90q-6 0 -6 -6v-294q0 -47 17 -63.5t60 -16.5h19q10 0 10 -10v-32q0 -10 -10 -10z" />
    <glyph glyph-name="dotlessj" unicode="&#x237;" horiz-adv-x="238" 
d="M23 -180h-11q-10 0 -10 10v32q0 10 10 10h9q41 0 56 14.5t15 58.5v522q0 10 10 10h34q10 0 10 -10v-521q0 -69 -28 -97.5t-95 -28.5z" />
    <glyph glyph-name="circumflex" unicode="&#x2c6;" horiz-adv-x="421" 
d="M324 558h-25q-9 0 -17 10l-71 85h-2l-70 -85q-9 -10 -17 -10h-25q-5 0 -6 3t2 7l90 123q6 9 16 9h23q9 0 15 -9l91 -123q3 -4 1.5 -7t-5.5 -3z" />
    <glyph glyph-name="caron" unicode="&#x2c7;" horiz-adv-x="421" 
d="M222 558h-23q-10 0 -16 9l-90 122q-3 4 -2 7t6 3h25q8 0 17 -10l70 -85h2l71 85q8 10 17 10h25q4 0 5.5 -3t-1.5 -7l-91 -122q-6 -9 -15 -9z" />
    <glyph glyph-name="uni02C9" unicode="&#x2c9;" horiz-adv-x="421" 
d="M332 800h-244q-10 0 -10 10v26q0 10 10 10h244q10 0 10 -10v-26q0 -10 -10 -10z" />
    <glyph glyph-name="breve" unicode="&#x2d8;" horiz-adv-x="421" 
d="M210 570q-50 0 -84 29t-40 75q-2 10 9 10h19q9 0 12 -10q17 -60 84 -60q68 0 86 60q3 10 11 10h19q11 0 9 -10q-7 -47 -40.5 -75.5t-84.5 -28.5z" />
    <glyph glyph-name="dotaccent" unicode="&#x2d9;" horiz-adv-x="421" 
d="M232 604h-44q-10 0 -10 10v56q0 10 10 10h44q10 0 10 -10v-56q0 -10 -10 -10z" />
    <glyph glyph-name="ring" unicode="&#x2da;" horiz-adv-x="421" 
d="M298 629q0 -38 -25 -63t-63 -25t-63 25t-25 63t25 63t63 25t63 -25t25 -63zM263 629q0 24 -14.5 40t-38.5 16t-38.5 -16t-14.5 -40t14.5 -40t38.5 -16t38.5 16t14.5 40z" />
    <glyph glyph-name="ogonek" unicode="&#x2db;" horiz-adv-x="421" 
d="M210 -172q-32 0 -51 18t-19 50q0 50 72 104q13 10 24 10h34q4 0 5 -4t-3 -6q-83 -60 -83 -97q0 -28 29 -28q13 0 28 9q8 5 13 -3l11 -21q3 -7 -4 -13q-25 -19 -56 -19z" />
    <glyph glyph-name="tilde" unicode="&#x2dc;" horiz-adv-x="421" 
d="M263 596q-26 0 -60 21q-29 18 -49 18q-25 0 -58 -33q-9 -7 -9 3v30q0 7 8 15q27 30 61 30q26 0 60 -20q26 -18 49 -18q28 0 59 33q3 3 5.5 2t2.5 -5v-30q0 -8 -7 -16q-30 -30 -62 -30z" />
    <glyph glyph-name="hungarumlaut" unicode="&#x2dd;" horiz-adv-x="421" 
d="M243 558h-24q-10 0 -5 10l67 122q6 10 16 10h32q11 0 5 -10l-76 -123q-6 -9 -15 -9zM119 558h-24q-11 0 -6 10l67 122q6 10 16 10h33q11 0 5 -10l-76 -123q-6 -9 -15 -9z" />
    <glyph glyph-name="uni0394" unicode="&#x394;" horiz-adv-x="600" 
d="M559 0h-518q-11 0 -8 10l238 660q3 10 12 10h36q8 0 11 -10l237 -660q3 -10 -8 -10zM487 51q7 0 5 6l-190 531h-3l-192 -531q-1 -6 6 -6h374z" />
    <glyph glyph-name="uni03A9" unicode="&#x3a9;" horiz-adv-x="612" 
d="M529 0h-174q-10 0 -10 10v36q0 9 10 12q79 29 106.5 86.5t27.5 195.5q0 127 -18 181q-38 115 -165 115t-165 -115q-18 -54 -18 -181q0 -138 27.5 -195.5t106.5 -86.5q10 -3 10 -12v-36q0 -10 -10 -10h-174q-10 0 -10 10v34q0 10 10 10h87v2q-58 32 -81.5 93t-23.5 191
q0 134 20 196q49 154 221 154t221 -154q20 -62 20 -196q0 -130 -23.5 -191t-81.5 -93v-2h87q10 0 10 -10v-34q0 -10 -10 -10z" />
    <glyph glyph-name="uni03BC" unicode="&#x3bc;" horiz-adv-x="541" 
d="M401 76h-1q-13 -33 -47.5 -59.5t-90.5 -26.5q-80 0 -114 53h-2v-213q0 -10 -10 -10h-34q-10 0 -10 10v637q0 10 10 10h34q10 0 10 -10v-292q0 -65 31.5 -99t91.5 -34q56 0 92 37t36 99v289q0 10 10 10h35q9 0 9 -10v-386q0 -20 7 -26t22 -6q11 0 11 -10v-32
q0 -10 -11 -10h-4q-36 0 -52 15t-21 48z" />
    <glyph glyph-name="pi" unicode="&#x3c0;" horiz-adv-x="595" 
d="M519 -3h-17q-46 0 -70.5 27t-24.5 72v323q0 6 -6 6h-222q-6 0 -6 -6v-409q0 -10 -10 -10h-34q-10 0 -10 10v409q0 6 -7 6h-62q-10 0 -10 10v32q0 10 10 10h480q10 0 10 -10v-32q0 -10 -10 -10h-63q-6 0 -6 -6v-311q0 -59 51 -59h7q10 0 10 -10v-32q0 -10 -10 -10z" />
    <glyph glyph-name="uni0400" unicode="&#x400;" horiz-adv-x="556" 
d="M104 0q-10 0 -10 10v660q0 10 10 10h389q10 0 10 -10v-34q0 -10 -10 -10h-336q-6 0 -6 -6v-242q0 -6 6 -6h289q10 0 10 -10v-34q0 -10 -10 -10h-289q-6 0 -6 -6v-252q0 -6 6 -6h336q10 0 10 -10v-34q0 -10 -10 -10h-389zM328 764h-26q-10 0 -18 9l-96 105q-3 4 -1.5 7
t5.5 3h40q11 0 18 -10l82 -104q8 -10 -4 -10z" />
    <glyph glyph-name="uni0401" unicode="&#x401;" horiz-adv-x="556" 
d="M104 0q-10 0 -10 10v660q0 10 10 10h389q10 0 10 -10v-34q0 -10 -10 -10h-336q-6 0 -6 -6v-242q0 -6 6 -6h289q10 0 10 -10v-34q0 -10 -10 -10h-289q-6 0 -6 -6v-252q0 -6 6 -6h336q10 0 10 -10v-34q0 -10 -10 -10h-389zM413 786h-39q-10 0 -10 10v56q0 10 10 10h39
q10 0 10 -10v-56q0 -10 -10 -10zM213 786h-39q-10 0 -10 10v56q0 10 10 10h39q10 0 10 -10v-56q0 -10 -10 -10z" />
    <glyph glyph-name="uni0402" unicode="&#x402;" horiz-adv-x="726" 
d="M244 0q-10 0 -10 10v610q0 6 -6 6h-196q-10 0 -10 10v34q0 10 10 10h461q10 0 10 -10v-34q0 -10 -10 -10h-196q-6 0 -6 -6v-233q0 -4 1.5 -5.5t4.5 -0.5q100 34 179 34q96 0 150 -53t54 -151q0 -104 -59 -157.5t-160 -53.5h-30q-6 0 -6 10v31q0 10 10 10h30q74 0 116 40
t42 119q0 151 -154 151q-83 0 -170 -34q-8 -3 -8 -11v-306q0 -10 -9 -10h-38z" />
    <glyph glyph-name="uni0403" unicode="&#x403;" horiz-adv-x="500" 
d="M104 0q-10 0 -10 10v661q0 9 10 9h377q9 0 9 -9v-36q0 -9 -9 -9h-324q-6 0 -6 -6v-610q0 -10 -9 -10h-38zM282 764h-26q-12 0 -4 10l82 104q7 10 18 10h40q4 0 5.5 -3t-1.5 -7l-96 -105q-8 -9 -18 -9z" />
    <glyph glyph-name="uni0404" unicode="&#x404;" horiz-adv-x="565" 
d="M307 -10q-147 0 -205 111q-23 43 -30 97.5t-7 148.5q0 127 20 190q50 153 222 153q146 0 205 -126q4 -9 -3 -13l-33 -16q-8 -5 -13 4q-52 97 -156 97q-129 0 -167 -116q-17 -51 -17 -142q0 -6 6 -6h245q9 0 9 -9v-36q0 -9 -9 -9h-245q-6 0 -6 -6q0 -116 27 -175
q43 -93 157 -93q104 0 156 97q5 9 13 4l33 -16q7 -4 3 -13q-59 -126 -205 -126z" />
    <glyph glyph-name="uni0405" unicode="&#x405;" horiz-adv-x="596" 
d="M290 -10q-64 0 -125.5 23t-99.5 56q-7 7 -1 14l24 30q7 8 14 1q90 -70 195 -70q81 0 128.5 38t47.5 101q0 54 -37 87.5t-126 44.5l-31 4q-196 25 -196 180q0 88 58 139.5t156 51.5q115 0 194 -57q9 -5 2 -14l-20 -31q-6 -7 -14 -2q-82 50 -165 50q-72 0 -113 -36.5
t-41 -96.5q0 -54 38 -86t122 -43l31 -4q199 -26 199 -183q0 -89 -62.5 -143t-177.5 -54z" />
    <glyph glyph-name="uni0406" unicode="&#x406;" horiz-adv-x="245" 
d="M104 0q-10 0 -10 10v660q0 10 10 10h37q10 0 10 -10v-660q0 -10 -10 -10h-37z" />
    <glyph glyph-name="uni0407" unicode="&#x407;" horiz-adv-x="245" 
d="M104 0q-10 0 -10 10v660q0 10 10 10h37q10 0 10 -10v-660q0 -10 -10 -10h-37zM243 786h-39q-10 0 -10 10v56q0 10 10 10h39q10 0 10 -10v-56q0 -10 -10 -10zM43 786h-39q-10 0 -10 10v56q0 10 10 10h39q10 0 10 -10v-56q0 -10 -10 -10z" />
    <glyph glyph-name="uni0408" unicode="&#x408;" horiz-adv-x="474" 
d="M187 -10q-89 0 -147 56q-8 8 -1 14l27 25q7 7 15 0q49 -41 107 -41q141 0 141 160v466q0 10 10 10h37q10 0 10 -10v-466q0 -107 -52.5 -160.5t-146.5 -53.5z" />
    <glyph glyph-name="uni0409" unicode="&#x409;" horiz-adv-x="1012" 
d="M14 -3q-9 0 -9 10v34q0 10 9 10h9q36 0 62 14.5t48 52.5t33 111t11 182v260q0 9 10 9h367q10 0 10 -9v-271q0 -6 6 -6h189q94 0 150.5 -54t56.5 -143t-57 -143t-150 -54h-243q-9 0 -9 10v610q0 6 -6 6h-261q-6 0 -6 -6v-234q0 -208 -50 -298.5t-149 -90.5h-21zM570 54
h184q74 0 114 37t40 106t-40 106t-114 37h-184q-6 0 -6 -6v-274q0 -6 6 -6z" />
    <glyph glyph-name="uni040A" unicode="&#x40a;" horiz-adv-x="1004" 
d="M104 0q-10 0 -10 10v660q0 10 10 10h37q10 0 10 -10v-270q0 -6 6 -6h336q6 0 6 6v270q0 10 10 10h37q10 0 10 -10v-270q0 -6 6 -6h189q94 0 150.5 -54t56.5 -143t-57 -143t-150 -54h-242q-10 0 -10 10v324q0 6 -6 6h-336q-6 0 -6 -6v-324q0 -10 -10 -10h-37zM562 54h184
q74 0 114 37t40 106t-40 106t-114 37h-184q-6 0 -6 -6v-274q0 -6 6 -6z" />
    <glyph glyph-name="uni040B" unicode="&#x40b;" horiz-adv-x="749" 
d="M244 0q-10 0 -10 10v610q0 6 -6 6h-196q-10 0 -10 10v34q0 10 10 10h461q10 0 10 -10v-34q0 -10 -10 -10h-196q-6 0 -6 -6v-229q0 -12 12 -8q103 32 173 32q194 0 194 -172v-233q0 -10 -10 -10h-38q-9 0 -9 10v225q0 74 -39 100t-105 26q-79 0 -163 -31q-15 -5 -15 -19
v-301q0 -10 -9 -10h-38z" />
    <glyph glyph-name="uni040C" unicode="&#x40c;" horiz-adv-x="597" 
d="M104 0q-10 0 -10 10v660q0 10 10 10h37q10 0 10 -10v-292q0 -6 6 -6h99q36 0 63 26t41 61l54 134q19 48 45.5 69t72.5 21h17q10 0 10 -10v-34q0 -10 -10 -10h-5q-38 0 -52 -12.5t-29 -50.5l-40 -102q-38 -96 -83 -112v-4q30 -5 49.5 -26.5t35.5 -59.5l60 -142
q19 -44 32 -56.5t49 -12.5h15q10 0 10 -10v-34q0 -10 -10 -10h-27q-48 0 -74 22t-48 72l-70 163q-13 30 -36.5 47t-48.5 17h-120q-6 0 -6 -6v-302q0 -10 -10 -10h-37zM292 764h-26q-12 0 -4 10l82 104q7 10 18 10h40q4 0 5.5 -3t-1.5 -7l-96 -105q-8 -9 -18 -9z" />
    <glyph glyph-name="uni040D" unicode="&#x40d;" horiz-adv-x="669" 
d="M104 0q-10 0 -10 10v661q0 9 10 9h38q9 0 9 -9v-569h3l362 575q2 3 8 3h41q10 0 10 -9v-661q0 -10 -10 -10h-37q-10 0 -10 10v569h-3l-363 -575q-2 -4 -7 -4h-41zM358 764h-26q-10 0 -18 9l-96 105q-3 4 -1.5 7t5.5 3h40q11 0 18 -10l82 -104q8 -10 -4 -10z" />
    <glyph glyph-name="uni040E" unicode="&#x40e;" horiz-adv-x="540" 
d="M96 -3q-9 0 -9 10v34q0 10 9 10h32q36 0 57 17.5t38 57.5l28 65l-224 480q-4 9 4 9h45q9 0 13 -9l189 -412h3l171 412q4 9 14 9h44q7 0 3 -9l-242 -567q-46 -107 -130 -107h-45zM280 768q-105 0 -129 97q-3 13 6 15l25 5q9 2 12 -6q22 -67 86 -67q62 0 86 67q3 9 13 6
l23 -5q9 -3 6 -15q-26 -97 -128 -97z" />
    <glyph glyph-name="uni040F" unicode="&#x40f;" horiz-adv-x="645" 
d="M304 -161q-10 0 -10 9v146q0 6 -6 6h-184q-10 0 -10 9v661q0 10 10 10h38q9 0 9 -10v-610q0 -6 6 -6h331q6 0 6 6v610q0 10 9 10h40q8 0 8 -10v-661q0 -9 -9 -9h-185q-6 0 -6 -6v-146q0 -9 -10 -9h-37z" />
    <glyph glyph-name="uni0410" unicode="&#x410;" horiz-adv-x="596" 
d="M38 0q-10 0 -7 10l238 660q3 10 12 10h36q9 0 12 -10l236 -660q3 -10 -7 -10h-39q-9 0 -13 10l-60 167h-296l-60 -167q-4 -10 -13 -10h-39zM169 232h258l-127 356h-3z" />
    <glyph glyph-name="uni0411" unicode="&#x411;" horiz-adv-x="602" 
d="M104 0q-10 0 -10 10v661q0 9 10 9h392q10 0 10 -9v-36q0 -9 -10 -9h-339q-6 0 -6 -6v-231q0 -6 6 -6h184q90 0 145.5 -52.5t55.5 -139.5q0 -86 -55.5 -138.5t-145.5 -52.5h-237zM157 54h177q72 0 111 35t39 102t-39 102.5t-111 35.5h-177q-6 0 -6 -6v-263q0 -6 6 -6z" />
    <glyph glyph-name="uni0412" unicode="&#x412;" horiz-adv-x="601" 
d="M104 0q-10 0 -10 10v660q0 10 10 10h228q95 0 146.5 -47t51.5 -129q0 -120 -105 -152v-4q44 -9 80 -51t36 -110q0 -88 -54.5 -137.5t-154.5 -49.5h-228zM157 54h179q71 0 109.5 35.5t38.5 96.5t-38.5 97t-109.5 36h-179q-6 0 -6 -6v-253q0 -6 6 -6zM157 373h174
q67 0 104.5 34.5t37.5 91.5q0 59 -37 93t-105 34h-174q-6 0 -6 -6v-241q0 -6 6 -6z" />
    <glyph glyph-name="uni0413" unicode="&#x413;" horiz-adv-x="500" 
d="M104 0q-10 0 -10 10v661q0 9 10 9h377q9 0 9 -9v-36q0 -9 -9 -9h-324q-6 0 -6 -6v-610q0 -10 -9 -10h-38z" />
    <glyph glyph-name="uni0414" unicode="&#x414;" horiz-adv-x="664" 
d="M29 -161q-9 0 -9 9v196q0 10 10 10h43q9 0 13 7q48 82 67 201.5t19 398.5v10q0 9 10 9h363q9 0 9 -9v-611q0 -6 6 -6h65q10 0 10 -10v-196q0 -9 -9 -9h-39q-9 0 -9 9v146q0 6 -6 6h-489q-6 0 -6 -6v-146q0 -9 -9 -9h-39zM154 54h337q6 0 6 6v560q0 6 -6 6h-256
q-6 0 -6 -6v-4q0 -247 -18 -364t-60 -192q-4 -6 3 -6z" />
    <glyph glyph-name="uni0415" unicode="&#x415;" horiz-adv-x="556" 
d="M104 0q-10 0 -10 10v660q0 10 10 10h389q10 0 10 -10v-34q0 -10 -10 -10h-336q-6 0 -6 -6v-242q0 -6 6 -6h289q10 0 10 -10v-34q0 -10 -10 -10h-289q-6 0 -6 -6v-252q0 -6 6 -6h336q10 0 10 -10v-34q0 -10 -10 -10h-389z" />
    <glyph glyph-name="uni0416" unicode="&#x416;" horiz-adv-x="891" 
d="M16 -3q-10 0 -10 10v34q0 10 10 10h15q36 0 49 12.5t32 56.5l60 142q17 39 36.5 61t53.5 25v4q-48 11 -88 112l-40 102q-15 38 -29 50.5t-52 12.5h-5q-10 0 -10 10v34q0 10 10 10h17q46 0 72.5 -21t45.5 -69l54 -134q14 -35 41 -61t63 -26h70q6 0 6 6v292q0 10 10 10h37
q10 0 10 -10v-292q0 -6 6 -6h70q36 0 63 26t41 61l54 134q19 48 45.5 69t72.5 21h17q10 0 10 -10v-34q0 -10 -10 -10h-5q-38 0 -52 -12.5t-29 -50.5l-40 -102q-40 -101 -88 -112v-4q34 -3 53.5 -25t36.5 -61l60 -142q19 -44 32 -56.5t49 -12.5h15q10 0 10 -10v-34
q0 -10 -10 -10h-27q-48 0 -74 22t-48 72l-70 163q-13 30 -36.5 47t-48.5 17h-91q-6 0 -6 -6v-302q0 -10 -10 -10h-37q-10 0 -10 10v302q0 6 -6 6h-91q-25 0 -48.5 -17t-36.5 -47l-70 -163q-22 -50 -48 -72t-74 -22h-27z" />
    <glyph glyph-name="uni0417" unicode="&#x417;" horiz-adv-x="563" 
d="M274 -10q-132 0 -222 90q-7 6 0 14l24 25q7 7 13 0q46 -40 87.5 -58t102.5 -18q75 0 121.5 39.5t46.5 102.5q0 134 -157 134h-70q-10 0 -10 10v35q0 9 10 9h73q67 0 104.5 36t37.5 100q0 62 -42 95t-114 33q-93 0 -163 -67q-7 -9 -14 -1l-24 26q-8 8 0 14q84 81 201 81
q100 0 156.5 -48.5t56.5 -130.5q0 -120 -104 -159v-4q56 -14 85.5 -56t29.5 -105q0 -89 -60.5 -143t-168.5 -54z" />
    <glyph glyph-name="uni0418" unicode="&#x418;" horiz-adv-x="669" 
d="M104 0q-10 0 -10 10v661q0 9 10 9h38q9 0 9 -9v-569h3l362 575q2 3 8 3h41q10 0 10 -9v-661q0 -10 -10 -10h-37q-10 0 -10 10v569h-3l-363 -575q-2 -4 -7 -4h-41z" />
    <glyph glyph-name="uni0419" unicode="&#x419;" horiz-adv-x="669" 
d="M104 0q-10 0 -10 10v661q0 9 10 9h38q9 0 9 -9v-569h3l362 575q2 3 8 3h41q10 0 10 -9v-661q0 -10 -10 -10h-37q-10 0 -10 10v569h-3l-363 -575q-2 -4 -7 -4h-41zM337 768q-105 0 -129 97q-3 13 6 15l25 5q9 2 12 -6q22 -67 86 -67q62 0 86 67q3 9 13 6l23 -5q9 -3 6 -15
q-26 -97 -128 -97z" />
    <glyph glyph-name="uni041A" unicode="&#x41a;" horiz-adv-x="597" 
d="M104 0q-10 0 -10 10v660q0 10 10 10h37q10 0 10 -10v-292q0 -6 6 -6h99q36 0 63 26t41 61l54 134q19 48 45.5 69t72.5 21h17q10 0 10 -10v-34q0 -10 -10 -10h-5q-38 0 -52 -12.5t-29 -50.5l-40 -102q-38 -96 -83 -112v-4q30 -5 49.5 -26.5t35.5 -59.5l60 -142
q19 -44 32 -56.5t49 -12.5h15q10 0 10 -10v-34q0 -10 -10 -10h-27q-48 0 -74 22t-48 72l-70 163q-13 30 -36.5 47t-48.5 17h-120q-6 0 -6 -6v-302q0 -10 -10 -10h-37z" />
    <glyph glyph-name="uni041B" unicode="&#x41b;" horiz-adv-x="658" 
d="M14 -3q-9 0 -9 10v34q0 10 9 10h9q36 0 62 14.5t48 52.5t33 111t11 182v260q0 9 10 9h367q10 0 10 -9v-661q0 -10 -9 -10h-39q-9 0 -9 10v610q0 6 -6 6h-261q-6 0 -6 -6v-234q0 -208 -50 -298.5t-149 -90.5h-21z" />
    <glyph glyph-name="uni041C" unicode="&#x41c;" horiz-adv-x="755" 
d="M104 0q-10 0 -10 10v660q0 10 10 10h38q11 0 15 -10l221 -487h4l216 487q4 10 14 10h39q10 0 10 -10v-660q0 -10 -10 -10h-37q-10 0 -10 10v532h-3l-196 -431q-5 -11 -18 -11h-20q-11 0 -17 11l-196 431h-3v-532q0 -10 -10 -10h-37z" />
    <glyph glyph-name="uni041D" unicode="&#x41d;" horiz-adv-x="650" 
d="M104 0q-10 0 -10 10v660q0 10 10 10h37q10 0 10 -10v-292q0 -6 6 -6h336q6 0 6 6v292q0 10 10 10h37q10 0 10 -10v-660q0 -10 -10 -10h-37q-10 0 -10 10v302q0 6 -6 6h-336q-6 0 -6 -6v-302q0 -10 -10 -10h-37z" />
    <glyph glyph-name="uni041E" unicode="&#x41e;" horiz-adv-x="609" 
d="M305 -10q-170 0 -220 153q-20 60 -20 197t20 197q50 153 220 153q169 0 219 -153q20 -60 20 -197t-20 -197q-50 -153 -219 -153zM305 44q126 0 164 115q17 51 17 181t-17 181q-38 115 -164 115q-127 0 -165 -115q-17 -51 -17 -181t17 -181q38 -115 165 -115z" />
    <glyph glyph-name="uni041F" unicode="&#x41f;" horiz-adv-x="645" 
d="M104 0q-10 0 -10 10v661q0 9 10 9h438q9 0 9 -9v-661q0 -10 -8 -10h-40q-9 0 -9 10v610q0 6 -6 6h-331q-6 0 -6 -6v-610q0 -10 -9 -10h-38z" />
    <glyph glyph-name="uni0420" unicode="&#x420;" horiz-adv-x="585" 
d="M104 0q-10 0 -10 10v660q0 10 10 10h227q97 0 153 -52t56 -141t-56 -140.5t-153 -51.5h-174q-6 0 -6 -6v-279q0 -10 -10 -10h-37zM157 349h172q74 0 114 36t40 102t-40 102.5t-114 36.5h-172q-6 0 -6 -6v-265q0 -6 6 -6z" />
    <glyph glyph-name="uni0421" unicode="&#x421;" horiz-adv-x="556" 
d="M298 -10q-164 0 -215 152q-18 56 -18 198t18 198q51 152 215 152q146 0 205 -126q4 -9 -3 -13l-33 -16q-8 -5 -13 4q-52 97 -156 97q-120 0 -160 -113q-15 -45 -15 -183t15 -183q40 -113 160 -113q104 0 156 97q5 9 13 4l33 -16q7 -4 3 -13q-59 -126 -205 -126z" />
    <glyph glyph-name="uni0422" unicode="&#x422;" horiz-adv-x="525" 
d="M244 0q-10 0 -10 10v610q0 6 -6 6h-196q-10 0 -10 10v34q0 10 10 10h461q10 0 10 -10v-34q0 -10 -10 -10h-196q-6 0 -6 -6v-610q0 -10 -10 -10h-37z" />
    <glyph glyph-name="uni0423" unicode="&#x423;" horiz-adv-x="540" 
d="M96 -3q-9 0 -9 10v34q0 10 9 10h32q36 0 57 17.5t38 57.5l28 65l-224 480q-4 9 4 9h45q9 0 13 -9l189 -412h3l171 412q4 9 14 9h44q7 0 3 -9l-242 -567q-46 -107 -130 -107h-45z" />
    <glyph glyph-name="uni0424" unicode="&#x424;" horiz-adv-x="740" 
d="M350 -10q-9 0 -9 10v76q0 6 -6 6q-141 4 -212.5 73.5t-71.5 198.5q0 130 72.5 198.5t211.5 73.5q6 0 6 6v49q0 9 10 9h38q10 0 10 -9v-49q0 -6 6 -6q139 -5 211.5 -73.5t72.5 -198.5q0 -129 -71.5 -198.5t-212.5 -73.5q-6 0 -6 -6v-76q0 -10 -10 -10h-39zM335 132
q6 0 6 6v432q0 6 -6 6q-226 -4 -226 -223q0 -103 56 -161t170 -60zM405 132q114 2 170 60t56 161q0 219 -226 223q-6 0 -6 -6v-432q0 -6 6 -6z" />
    <glyph glyph-name="uni0425" unicode="&#x425;" horiz-adv-x="545" 
d="M38 0q-10 0 -5 11l207 346l-186 312q-7 11 5 11h45q8 0 13 -9l155 -257h1l155 257q6 9 13 9h45q10 0 5 -11l-187 -312l208 -346q6 -11 -6 -11h-45q-9 0 -13 9l-175 291h-1l-176 -291q-4 -9 -13 -9h-45z" />
    <glyph glyph-name="uni0426" unicode="&#x426;" horiz-adv-x="661" 
d="M584 -161q-9 0 -9 9v146q0 6 -6 6h-465q-10 0 -10 10v661q0 9 10 9h38q9 0 9 -9v-611q0 -6 6 -6h331q6 0 6 6v611q0 9 9 9h39q9 0 9 -9v-611q0 -6 6 -6h65q10 0 10 -10v-196q0 -9 -9 -9h-39z" />
    <glyph glyph-name="uni0427" unicode="&#x427;" horiz-adv-x="611" 
d="M469 0q-9 0 -9 10v273q0 6 -8 4q-93 -33 -180 -33q-193 0 -193 172v245q0 9 10 9h37q10 0 10 -9v-234q0 -39 11.5 -66t32.5 -40t44.5 -18t53.5 -5q91 0 175 35q7 3 7 11v317q0 9 9 9h38q10 0 10 -9v-661q0 -10 -9 -10h-39z" />
    <glyph glyph-name="uni0428" unicode="&#x428;" horiz-adv-x="935" 
d="M104 0q-10 0 -10 10v661q0 9 10 9h38q9 0 9 -9v-611q0 -6 6 -6h276q6 0 6 6v611q0 9 9 9h39q9 0 9 -9v-611q0 -6 6 -6h276q6 0 6 6v611q0 9 8 9h39q10 0 10 -9v-661q0 -10 -10 -10h-727z" />
    <glyph glyph-name="uni0429" unicode="&#x429;" horiz-adv-x="951" 
d="M874 -161q-9 0 -9 9v146q0 6 -6 6h-755q-10 0 -10 10v661q0 9 10 9h38q9 0 9 -9v-611q0 -6 6 -6h276q6 0 6 6v611q0 9 9 9h39q9 0 9 -9v-611q0 -6 6 -6h276q6 0 6 6v611q0 9 8 9h39q10 0 10 -9v-611q0 -6 6 -6h65q10 0 10 -10v-196q0 -9 -9 -9h-39z" />
    <glyph glyph-name="uni042A" unicode="&#x42a;" horiz-adv-x="701" 
d="M206 0q-10 0 -10 10v610q0 6 -6 6h-161q-9 0 -9 9v36q0 9 9 9h215q9 0 9 -9v-271q0 -6 6 -6h189q94 0 150.5 -54t56.5 -143t-57 -143t-150 -54h-242zM259 54h184q74 0 114 37t40 106t-40 106t-114 37h-184q-6 0 -6 -6v-274q0 -6 6 -6z" />
    <glyph glyph-name="uni042B" unicode="&#x42b;" horiz-adv-x="790" 
d="M104 0q-10 0 -10 10v661q0 9 10 9h38q9 0 9 -9v-271q0 -6 6 -6h179q94 0 150.5 -54t56.5 -143t-57 -143t-150 -54h-232zM157 54h174q74 0 114 37t40 106t-40 106t-114 37h-174q-6 0 -6 -6v-274q0 -6 6 -6zM649 0q-10 0 -10 10v661q0 9 10 9h37q10 0 10 -9v-661
q0 -10 -10 -10h-37z" />
    <glyph glyph-name="uni042C" unicode="&#x42c;" horiz-adv-x="599" 
d="M104 0q-10 0 -10 10v661q0 9 10 9h38q9 0 9 -9v-271q0 -6 6 -6h189q94 0 150.5 -54t56.5 -143t-57 -143t-150 -54h-242zM157 54h184q74 0 114 37t40 106t-40 106t-114 37h-184q-6 0 -6 -6v-274q0 -6 6 -6z" />
    <glyph glyph-name="uni042D" unicode="&#x42d;" horiz-adv-x="565" 
d="M258 -10q-146 0 -205 126q-4 9 3 13l33 16q8 5 13 -4q52 -97 156 -97q114 0 157 93q27 59 27 175q0 6 -6 6h-244q-9 0 -9 9v36q0 9 9 9h244q6 0 6 6q0 91 -17 142q-38 116 -167 116q-104 0 -156 -97q-5 -9 -13 -4l-33 16q-7 4 -3 13q59 126 205 126q172 0 222 -153
q20 -63 20 -190q0 -94 -7 -148.5t-30 -97.5q-58 -111 -205 -111z" />
    <glyph glyph-name="uni042E" unicode="&#x42e;" horiz-adv-x="810" 
d="M520 -10q-77 0 -130 37t-76 107q-18 52 -19 178q0 6 -6 6h-131q-6 0 -6 -6v-302q0 -10 -9 -10h-38q-10 0 -10 10v661q0 9 10 9h38q9 0 9 -9v-293q0 -6 6 -6h131q6 0 6 6q0 115 19 168q23 70 76 107t130 37t130 -37t76 -107q19 -55 19 -206t-19 -206q-23 -70 -76 -107
t-130 -37zM520 43q117 0 152 105q16 52 16 192q0 141 -16 191q-36 106 -152 106q-117 0 -152 -106q-16 -50 -16 -191q0 -140 16 -192q35 -105 152 -105z" />
    <glyph glyph-name="uni042F" unicode="&#x42f;" horiz-adv-x="620" 
d="M28 -3q-10 0 -10 10v34q0 10 10 10h13q37 0 49.5 12t32.5 57l53 121q20 46 47 67v4q-154 19 -154 180q0 87 55 137.5t142 50.5h250q10 0 10 -10v-660q0 -10 -10 -10h-37q-10 0 -10 10v286q0 6 -6 6h-131q-63 0 -91 -65l-62 -146q-21 -50 -47.5 -72t-74.5 -22h-29z
M273 356h190q6 0 6 6v258q0 6 -6 6h-190q-67 0 -107 -34t-40 -101t40 -101t107 -34z" />
    <glyph glyph-name="uni0430" unicode="&#x430;" horiz-adv-x="513" 
d="M226 -10q-74 0 -117 36.5t-43 104.5q0 141 181 141h121q6 0 6 6v49q0 60 -26.5 85t-97.5 25q-76 0 -120 -36q-9 -7 -15 1l-17 25q-5 8 3 14q54 46 152 46q94 0 134 -35.5t40 -122.5v-319q0 -10 -10 -10h-32q-10 0 -10 10v50h-1q-15 -31 -53.5 -50.5t-94.5 -19.5zM237 40
q62 0 99.5 29t37.5 78v73q0 6 -6 6h-114q-70 0 -102.5 -23t-32.5 -71q0 -45 30.5 -68.5t87.5 -23.5z" />
    <glyph glyph-name="uni0431" unicode="&#x431;" horiz-adv-x="522" 
d="M266 -10q-126 0 -169 101q-25 58 -25 191q0 146 11 207.5t59 107.5q7 7 16.5 13t18 10.5t21.5 9t20.5 7t23 5t22.5 4t24.5 3.5t22.5 2.5t23.5 2t21.5 1.5q32 3 35 25q2 10 11 10h35q10 0 8 -10q-4 -35 -23 -51.5t-57 -20.5q-11 -1 -40.5 -4t-44.5 -5t-38 -7.5t-40 -14.5
t-32 -23q-48 -46 -48 -162h3q18 37 59 58.5t89 21.5q93 0 141 -61t48 -177q0 -244 -196 -244zM266 42q140 0 140 188q0 190 -140 190q-138 0 -138 -189t138 -189z" />
    <glyph glyph-name="uni0432" unicode="&#x432;" horiz-adv-x="510" 
d="M102 0q-10 0 -10 10v458q0 9 10 9h190q67 0 106.5 -32t39.5 -84q0 -89 -72 -113v-4q80 -22 80 -113q0 -62 -39.5 -96.5t-112.5 -34.5h-192zM152 50h142q47 0 73 22.5t26 62.5t-26 62t-73 22h-142q-6 0 -6 -6v-157q0 -6 6 -6zM152 269h140q44 0 68.5 22.5t24.5 59.5
q0 76 -93 76h-140q-6 0 -6 -5v-148q0 -5 6 -5z" />
    <glyph glyph-name="uni0433" unicode="&#x433;" horiz-adv-x="400" 
d="M101 0q-9 0 -9 10v458q0 9 9 9h278q10 0 10 -9v-32q0 -10 -10 -10h-227q-6 0 -6 -6v-410q0 -10 -10 -10h-35z" />
    <glyph glyph-name="uni0434" unicode="&#x434;" horiz-adv-x="556" 
d="M29 -135q-9 0 -9 10v167q0 9 10 9h34q15 0 22 12q29 48 44.5 110.5t15.5 173.5v121q0 9 10 9h289q10 0 10 -9v-411q0 -6 6 -6h56q10 0 10 -9v-167q0 -10 -9 -10h-36q-9 0 -9 10v119q0 6 -6 6h-386q-6 0 -6 -6v-119q0 -10 -9 -10h-37zM148 51h247q6 0 6 6v363q0 6 -6 6
h-189q-6 0 -6 -6v-90q0 -183 -55 -273q-4 -6 3 -6z" />
    <glyph glyph-name="uni0435" unicode="&#x435;" horiz-adv-x="502" 
d="M257 -10q-142 0 -183 126q-14 45 -14 123q0 79 14 124q19 60 65.5 92t111.5 32t112 -32t66 -92q14 -42 14 -127q0 -10 -11 -10h-311q-6 0 -6 -7q0 -53 10 -84q32 -93 135 -93q84 0 133 61q6 8 14 2l23 -21q7 -6 1 -14q-60 -80 -174 -80zM121 272h261q6 0 6 6q0 40 -9 69
q-29 90 -128 90q-98 0 -127 -90q-9 -29 -9 -69q0 -6 6 -6z" />
    <glyph glyph-name="uni0436" unicode="&#x436;" horiz-adv-x="736" 
d="M35 -3q-10 0 -10 10v31q0 10 10 10h4q35 0 47 11.5t27 48.5l30 73q24 57 68 67v4q-36 22 -52 62l-23 61q-12 33 -27.5 44.5t-42.5 11.5h-11q-10 0 -10 10v29q0 10 10 10h22q40 0 64.5 -17.5t40.5 -58.5l25 -67q11 -30 34.5 -48.5t56.5 -18.5h37q6 0 6 6v192q0 9 10 9h34
q10 0 10 -9v-192q0 -6 6 -6h37q33 0 56.5 18.5t34.5 48.5l25 67q15 41 40 58.5t65 17.5h22q10 0 10 -10v-29q0 -10 -10 -10h-11q-27 0 -42.5 -11.5t-27.5 -44.5l-23 -61q-16 -40 -52 -62v-4q44 -10 68 -67l30 -73q15 -37 27 -48.5t47 -11.5h4q10 0 10 -10v-31q0 -10 -10 -10
h-25q-44 0 -66 20t-40 68l-29 77q-21 57 -95 57h-45q-6 0 -6 -6v-203q0 -10 -10 -10h-34q-10 0 -10 10v203q0 6 -6 6h-45q-74 0 -95 -57l-29 -77q-18 -48 -40 -68t-66 -20h-25z" />
    <glyph glyph-name="uni0437" unicode="&#x437;" horiz-adv-x="470" 
d="M225 -10q-107 0 -180 64q-7 6 0 15l22 24q6 8 15 -1q35 -29 65 -40.5t73 -11.5q59 0 95 24.5t36 67.5q0 44 -28.5 66.5t-78.5 22.5h-63q-9 0 -9 11v30q0 10 9 10h65q44 0 70.5 21t26.5 62q0 39 -31.5 60t-85.5 21q-69 0 -128 -41q-9 -6 -13 0l-19 26q-6 10 0 15
q68 51 165 51q75 0 121.5 -34t46.5 -97q0 -37 -21 -65t-60 -41v-4q39 -5 63.5 -35t24.5 -71q0 -70 -51.5 -110t-129.5 -40z" />
    <glyph glyph-name="uni0438" unicode="&#x438;" horiz-adv-x="556" 
d="M102 0q-10 0 -10 10v458q0 9 10 9h34q10 0 10 -9v-380h3l258 384q3 5 10 5h37q10 0 10 -9v-458q0 -10 -10 -10h-33q-10 0 -10 10v380h-3l-258 -384q-4 -6 -11 -6h-37z" />
    <glyph glyph-name="uni0439" unicode="&#x439;" horiz-adv-x="556" 
d="M102 0q-10 0 -10 10v458q0 9 10 9h34q10 0 10 -9v-380h3l258 384q3 5 10 5h37q10 0 10 -9v-458q0 -10 -10 -10h-33q-10 0 -10 10v380h-3l-258 -384q-4 -6 -11 -6h-37zM278 570q-103 0 -127 97q-3 12 6 15l23 5q9 2 12 -6q22 -68 86 -68q62 0 86 68q3 9 13 6l21 -5
q9 -3 6 -15q-26 -97 -126 -97z" />
    <glyph glyph-name="uni043A" unicode="&#x43a;" horiz-adv-x="505" 
d="M102 0q-10 0 -10 10v458q0 9 10 9h34q10 0 10 -9v-192q0 -6 6 -6h55q33 0 56.5 18.5t34.5 48.5l25 67q16 41 40.5 58.5t64.5 17.5h22q10 0 10 -10v-29q0 -10 -10 -10h-11q-27 0 -42.5 -11.5t-27.5 -44.5l-23 -61q-18 -47 -52 -62v-4q44 -10 68 -67l30 -73q14 -36 27 -48
t47 -12h4q10 0 10 -10v-31q0 -10 -10 -10h-25q-44 0 -66 20t-40 68l-29 77q-21 57 -95 57h-63q-6 0 -6 -6v-203q0 -10 -10 -10h-34z" />
    <glyph glyph-name="uni043B" unicode="&#x43b;" horiz-adv-x="546" 
d="M28 -3q-9 0 -9 10v32q0 9 9 9h10q20 0 35.5 6.5t33.5 26t28 67t10 118.5v202q0 9 10 9h290q9 0 9 -9v-458q0 -10 -9 -10h-35q-10 0 -10 10v410q0 6 -6 6h-189q-6 0 -6 -6v-173q0 -250 -151 -250h-20z" />
    <glyph glyph-name="uni043C" unicode="&#x43c;" horiz-adv-x="627" 
d="M102 0q-10 0 -10 10v458q0 9 10 9h38q8 0 12 -7l160 -338h3l160 338q3 7 12 7h38q10 0 10 -9v-458q0 -10 -10 -10h-34q-10 0 -10 10v354h-3l-138 -287q-5 -10 -14 -10h-27q-7 0 -12 10l-138 287h-3v-354q0 -10 -10 -10h-34z" />
    <glyph glyph-name="uni043D" unicode="&#x43d;" horiz-adv-x="547" 
d="M102 0q-10 0 -10 10v458q0 9 10 9h34q10 0 10 -9v-192q0 -6 6 -6h243q6 0 6 6v192q0 9 10 9h34q10 0 10 -9v-458q0 -10 -10 -10h-34q-10 0 -10 10v203q0 6 -6 6h-243q-6 0 -6 -6v-203q0 -10 -10 -10h-34z" />
    <glyph glyph-name="uni043E" unicode="&#x43e;" horiz-adv-x="509" 
d="M254 -10q-65 0 -112 32.5t-66 91.5q-16 51 -16 125q0 73 16 124q19 59 66 91.5t112 32.5q66 0 113 -32.5t66 -91.5q16 -51 16 -124q0 -74 -16 -125q-19 -59 -66 -91.5t-113 -32.5zM254 42q97 0 127 89q13 39 13 108q0 68 -13 107q-30 89 -127 89q-96 0 -126 -89
q-13 -39 -13 -107q0 -69 13 -108q30 -89 126 -89z" />
    <glyph glyph-name="uni043F" unicode="&#x43f;" horiz-adv-x="541" 
d="M102 0q-10 0 -10 10v458q0 9 10 9h337q10 0 10 -9v-458q0 -10 -10 -10h-34q-10 0 -10 10v410q0 6 -6 6h-237q-6 0 -6 -6v-410q0 -10 -10 -10h-34z" />
    <glyph glyph-name="uni0440" unicode="&#x440;" horiz-adv-x="531" 
d="M102 -180q-10 0 -10 10v637q0 10 10 10h34q10 0 10 -10v-58h1q40 78 145 78q124 0 162 -114q17 -55 17 -135q0 -79 -17 -134q-38 -114 -162 -114q-105 0 -145 78h-1v-238q0 -10 -10 -10h-34zM281 42q94 0 122 84q13 39 13 112q0 74 -13 113q-28 84 -122 84
q-95 0 -122 -84q-13 -38 -13 -113q0 -74 13 -112q27 -84 122 -84z" />
    <glyph glyph-name="uni0441" unicode="&#x441;" horiz-adv-x="470" 
d="M253 -10q-66 0 -112.5 32.5t-65.5 91.5q-15 50 -15 124q0 75 15 125q19 59 65.5 91.5t112.5 32.5q107 0 161 -90q5 -8 -3 -13l-28 -18q-8 -5 -13 4q-41 65 -117 65q-96 0 -125 -90q-13 -38 -13 -107q0 -68 13 -106q29 -90 125 -90q76 0 117 65q5 9 13 4l28 -18
q8 -5 3 -13q-54 -90 -161 -90z" />
    <glyph glyph-name="uni0442" unicode="&#x442;" horiz-adv-x="414" 
d="M190 0q-10 0 -10 10v410q0 6 -6 6h-149q-10 0 -10 10v32q0 9 10 9h365q9 0 9 -9v-32q0 -10 -9 -10h-150q-6 0 -6 -6v-410q0 -10 -10 -10h-34z" />
    <glyph glyph-name="uni0443" unicode="&#x443;" horiz-adv-x="467" 
d="M82 -180q-10 0 -10 10v32q0 10 10 10h18q32 0 51 18t39 71l19 49l-176 457q-3 10 7 10h38q9 0 13 -10l145 -383h1l141 383q3 10 12 10h38q10 0 7 -10l-195 -513q-30 -80 -59 -107t-78 -27h-21z" />
    <glyph glyph-name="uni0444" unicode="&#x444;" horiz-adv-x="650" 
d="M307 -180q-9 0 -9 10v158q0 6 -6 6q-112 2 -176 64.5t-64 180.5q0 238 240 244q6 0 6 6v181q0 10 9 10h36q9 0 9 -10v-181q0 -6 6 -6q240 -6 240 -244q0 -118 -64 -180.5t-176 -64.5q-6 0 -6 -6v-158q0 -10 -9 -10h-36zM292 45q6 0 6 6v375q0 6 -6 6q-185 -5 -185 -194
q0 -184 185 -193zM358 45q185 9 185 193q0 189 -185 194q-6 0 -6 -6v-375q0 -6 6 -6z" />
    <glyph glyph-name="uni0445" unicode="&#x445;" horiz-adv-x="463" 
d="M44 0q-12 0 -6 10l163 240l-147 217q-6 10 6 10h41q9 0 14 -8l116 -172h1l117 172q5 8 14 8h40q12 0 6 -10l-148 -217l164 -240q6 -10 -6 -10h-41q-9 0 -14 8l-132 194h-1l-133 -194q-5 -8 -14 -8h-40z" />
    <glyph glyph-name="uni0446" unicode="&#x446;" horiz-adv-x="550" 
d="M476 -135q-9 0 -9 10v119q0 6 -6 6h-359q-10 0 -10 9v458q0 10 10 10h34q10 0 10 -10v-410q0 -6 6 -6h237q6 0 6 6v410q0 10 10 10h34q10 0 10 -10v-410q0 -6 6 -6h56q10 0 10 -9v-167q0 -10 -9 -10h-36z" />
    <glyph glyph-name="uni0447" unicode="&#x447;" horiz-adv-x="518" 
d="M382 0q-10 0 -10 10v182q0 4 -6 3q-81 -27 -143 -27q-146 0 -146 135v165q0 9 10 9h34q10 0 10 -9v-155q0 -52 26 -73t74 -21q66 0 136 28q5 3 5 7v214q0 9 10 9h34q10 0 10 -9v-458q0 -10 -10 -10h-34z" />
    <glyph glyph-name="uni0448" unicode="&#x448;" horiz-adv-x="760" 
d="M102 0q-10 0 -10 9v458q0 10 10 10h34q10 0 10 -10v-410q0 -6 6 -6h195q6 0 6 6v410q0 10 10 10h34q10 0 10 -10v-410q0 -6 6 -6h195q6 0 6 6v410q0 10 10 10h34q10 0 10 -10v-458q0 -9 -10 -9h-556z" />
    <glyph glyph-name="uni0449" unicode="&#x449;" horiz-adv-x="770" 
d="M695 -135q-9 0 -9 10v119q0 6 -6 6h-578q-10 0 -10 9v458q0 10 10 10h34q10 0 10 -10v-410q0 -6 6 -6h195q6 0 6 6v410q0 10 10 10h34q10 0 10 -10v-410q0 -6 6 -6h195q6 0 6 6v410q0 10 10 10h34q10 0 10 -10v-410q0 -6 6 -6h56q10 0 10 -9v-167q0 -10 -9 -10h-36z" />
    <glyph glyph-name="uni044A" unicode="&#x44a;" horiz-adv-x="546" 
d="M158 0q-10 0 -10 10v410q0 6 -6 6h-118q-9 0 -9 10v32q0 9 9 9h168q10 0 10 -9v-180q0 -6 6 -6h143q71 0 112 -38t41 -103q0 -64 -42.5 -102.5t-109.5 -38.5h-194zM208 51h139q47 0 72.5 23.5t25.5 66.5t-25.5 66.5t-72.5 23.5h-139q-6 0 -6 -6v-168q0 -6 6 -6z" />
    <glyph glyph-name="uni044B" unicode="&#x44b;" horiz-adv-x="666" 
d="M102 0q-10 0 -10 10v458q0 9 10 9h34q10 0 10 -9v-180q0 -6 6 -6h133q71 0 112 -38t41 -103q0 -64 -42.5 -102.5t-109.5 -38.5h-184zM152 51h129q47 0 72.5 23.5t25.5 66.5t-25.5 66.5t-72.5 23.5h-129q-6 0 -6 -6v-168q0 -6 6 -6zM530 0q-10 0 -10 10v457q0 10 10 10h34
q10 0 10 -10v-457q0 -10 -10 -10h-34z" />
    <glyph glyph-name="uni044C" unicode="&#x44c;" horiz-adv-x="490" 
d="M102 0q-10 0 -10 10v458q0 9 10 9h34q10 0 10 -9v-180q0 -6 6 -6h143q71 0 112 -38t41 -103q0 -64 -42.5 -102.5t-109.5 -38.5h-194zM152 51h139q47 0 72.5 23.5t25.5 66.5t-25.5 66.5t-72.5 23.5h-139q-6 0 -6 -6v-168q0 -6 6 -6z" />
    <glyph glyph-name="uni044D" unicode="&#x44d;" horiz-adv-x="474" 
d="M221 -10q-110 0 -163 88q-5 8 3 13l28 18q8 5 13 -4q41 -64 119 -64q96 0 125 91q12 35 13 82q0 6 -6 6h-182q-10 0 -10 10v30q0 10 10 10h181q6 0 6 5q-3 43 -12 70q-29 91 -125 91q-78 0 -119 -64q-5 -9 -13 -4l-28 18q-8 5 -3 13q53 88 163 88q66 0 112.5 -32.5
t65.5 -91.5q15 -50 15 -125q0 -74 -15 -124q-19 -59 -65.5 -91.5t-112.5 -32.5z" />
    <glyph glyph-name="uni044E" unicode="&#x44e;" horiz-adv-x="699" 
d="M444 -10q-65 0 -112 32.5t-66 91.5q-15 44 -16 99q0 6 -6 6h-92q-6 0 -6 -6v-203q0 -10 -10 -10h-34q-10 0 -10 10v458q0 9 10 9h34q10 0 10 -9v-192q0 -6 6 -6h93q6 0 6 6q5 57 15 87q19 59 66 91.5t112 32.5q66 0 113 -32.5t66 -91.5q16 -51 16 -124q0 -74 -16 -125
q-19 -59 -66 -91.5t-113 -32.5zM444 42q97 0 127 89q13 39 13 108q0 68 -13 107q-30 89 -127 89q-96 0 -126 -89q-13 -39 -13 -107q0 -69 13 -108q30 -89 126 -89z" />
    <glyph glyph-name="uni044F" unicode="&#x44f;" horiz-adv-x="520" 
d="M58 -3q-9 0 -9 10v32q0 9 9 9h12q30 0 42 10.5t26 45.5l19 46q17 45 36 53v4q-52 5 -83.5 40t-31.5 94q0 62 41 99t108 37h192q9 0 9 -9v-458q0 -10 -9 -10h-35q-10 0 -10 10v182q0 6 -6 6h-65q-20 0 -32.5 -2t-30 -15.5t-27.5 -39.5l-24 -60q-19 -47 -42 -65.5
t-68 -18.5h-21zM237 248h131q6 0 6 6v167q0 6 -6 6h-131q-103 0 -103 -86q0 -93 103 -93z" />
    <glyph glyph-name="uni0450" unicode="&#x450;" horiz-adv-x="502" 
d="M257 -10q-142 0 -183 126q-14 45 -14 123q0 79 14 124q19 60 65.5 92t111.5 32t112 -32t66 -92q14 -42 14 -127q0 -10 -11 -10h-311q-6 0 -6 -7q0 -53 10 -84q32 -93 135 -93q84 0 133 61q6 8 14 2l23 -21q7 -6 1 -14q-60 -80 -174 -80zM121 272h261q6 0 6 6q0 40 -9 69
q-29 90 -128 90q-98 0 -127 -90q-9 -29 -9 -69q0 -6 6 -6zM280 558h-25q-9 0 -18 10l-88 122q-3 4 -1.5 7t6.5 3h38q10 0 16 -10l77 -122q7 -10 -5 -10z" />
    <glyph glyph-name="uni0451" unicode="&#x451;" horiz-adv-x="502" 
d="M257 -10q-142 0 -183 126q-14 45 -14 123q0 79 14 124q19 60 65.5 92t111.5 32t112 -32t66 -92q14 -42 14 -127q0 -10 -11 -10h-311q-6 0 -6 -7q0 -53 10 -84q32 -93 135 -93q84 0 133 61q6 8 14 2l23 -21q7 -6 1 -14q-60 -80 -174 -80zM121 272h261q6 0 6 6q0 40 -9 69
q-29 90 -128 90q-98 0 -127 -90q-9 -29 -9 -69q0 -6 6 -6zM370 604h-40q-10 0 -10 10v56q0 10 10 10h40q10 0 10 -10v-56q0 -10 -10 -10zM171 604h-40q-10 0 -10 10v56q0 10 10 10h40q10 0 10 -10v-56q0 -10 -10 -10z" />
    <glyph glyph-name="uni0452" unicode="&#x452;" horiz-adv-x="541" 
d="M321 -180q-10 0 -10 10v32q0 10 10 10h9q41 0 56 14.5t15 58.5v347q0 143 -125 143q-56 0 -93 -36t-37 -97v-292q0 -10 -10 -10h-34q-10 0 -10 10v547q0 6 -6 6h-70q-10 0 -10 10v26q0 10 10 10h70q6 0 6 6v55q0 10 10 10h34q10 0 10 -10v-55q0 -6 6 -6h121q10 0 10 -10
v-26q0 -10 -10 -10h-121q-6 0 -6 -6v-147h1q39 77 141 77q80 0 123.5 -47.5t43.5 -134.5v-359q0 -69 -28 -97.5t-95 -28.5h-11z" />
    <glyph glyph-name="uni0453" unicode="&#x453;" horiz-adv-x="400" 
d="M101 0q-9 0 -9 10v458q0 9 9 9h278q10 0 10 -9v-32q0 -10 -10 -10h-227q-6 0 -6 -6v-410q0 -10 -10 -10h-35zM224 558h-25q-11 0 -6 10l77 122q6 10 17 10h38q5 0 6.5 -3t-1.5 -7l-88 -122q-9 -10 -18 -10z" />
    <glyph glyph-name="uni0454" unicode="&#x454;" horiz-adv-x="474" 
d="M253 -10q-66 0 -112.5 32.5t-65.5 91.5q-15 50 -15 124q0 75 15 125q19 59 65.5 91.5t112.5 32.5q110 0 163 -88q5 -8 -3 -13l-28 -18q-8 -5 -13 4q-41 64 -119 64q-96 0 -125 -91q-9 -27 -12 -70q0 -5 6 -5h181q10 0 10 -10v-30q0 -10 -10 -10h-182q-6 0 -6 -6
q1 -47 13 -82q29 -91 125 -91q78 0 119 64q5 9 13 4l28 -18q8 -5 3 -13q-53 -88 -163 -88z" />
    <glyph glyph-name="uni0455" unicode="&#x455;" horiz-adv-x="481" 
d="M241 -10q-106 0 -186 67q-7 7 0 14l22 25q6 6 14 0q69 -56 155 -56q61 0 92.5 25t31.5 67q0 38 -23 57.5t-86 26.5l-48 5q-139 14 -139 127q0 65 44.5 102t123.5 37q89 0 159 -46q8 -6 2 -14l-18 -24q-5 -8 -14 -3q-64 37 -132 37q-54 0 -82.5 -22.5t-28.5 -62.5
q0 -36 25 -55t85 -25l48 -5q138 -13 138 -128q0 -69 -47.5 -109t-135.5 -40z" />
    <glyph glyph-name="uni0456" unicode="&#x456;" horiz-adv-x="238" 
d="M102 0q-10 0 -10 10v457q0 10 10 10h34q10 0 10 -10v-457q0 -10 -10 -10h-34zM97 604q-10 0 -10 10v56q0 10 10 10h44q10 0 10 -10v-56q0 -10 -10 -10h-44z" />
    <glyph glyph-name="uni0457" unicode="&#x457;" horiz-adv-x="238" 
d="M239 604h-40q-10 0 -10 10v56q0 10 10 10h40q10 0 10 -10v-56q0 -10 -10 -10zM40 604h-40q-10 0 -10 10v56q0 10 10 10h40q10 0 10 -10v-56q0 -10 -10 -10zM136 0h-34q-10 0 -10 10v457q0 10 10 10h34q10 0 10 -10v-457q0 -10 -10 -10z" />
    <glyph glyph-name="uni0458" unicode="&#x458;" horiz-adv-x="238" 
d="M12 -180q-10 0 -10 10v32q0 10 10 10h9q41 0 56 14.5t15 58.5v522q0 10 10 10h34q10 0 10 -10v-521q0 -69 -28 -97.5t-95 -28.5h-11zM97 604q-10 0 -10 10v56q0 10 10 10h44q10 0 10 -10v-56q0 -10 -10 -10h-44z" />
    <glyph glyph-name="uni0459" unicode="&#x459;" horiz-adv-x="798" 
d="M28 -3q-9 0 -9 10v32q0 9 9 9h10q20 0 35.5 6.5t33.5 26t28 67t10 118.5v202q0 9 10 9h290q9 0 9 -9v-180q0 -6 6 -6h143q71 0 112 -38t41 -103q0 -64 -42.5 -102.5t-109.5 -38.5h-194q-10 0 -10 10v410q0 6 -6 6h-189q-6 0 -6 -6v-173q0 -250 -151 -250h-20zM460 51h139
q47 0 72.5 23.5t25.5 66.5t-25.5 66.5t-72.5 23.5h-139q-6 0 -6 -6v-168q0 -6 6 -6z" />
    <glyph glyph-name="uni045A" unicode="&#x45a;" horiz-adv-x="799" 
d="M102 0q-10 0 -10 10v458q0 9 10 9h34q10 0 10 -9v-189q0 -6 6 -6h243q6 0 6 6v189q0 9 10 9h34q10 0 10 -9v-189q0 -6 6 -6h143q72 0 112.5 -36t40.5 -101q0 -63 -42 -99.5t-110 -36.5h-194q-10 0 -10 10v206q0 6 -6 6h-243q-6 0 -6 -6v-206q0 -10 -10 -10h-34zM461 51
h139q98 0 98 85q0 86 -98 86h-139q-6 0 -6 -6v-159q0 -6 6 -6z" />
    <glyph glyph-name="uni045B" unicode="&#x45b;" horiz-adv-x="541" 
d="M102 0q-10 0 -10 10v547q0 6 -6 6h-70q-10 0 -10 10v26q0 10 10 10h70q6 0 6 6v55q0 10 10 10h34q10 0 10 -10v-55q0 -6 6 -6h121q10 0 10 -10v-26q0 -10 -10 -10h-121q-6 0 -6 -6v-147h1q39 77 141 77q80 0 123.5 -47.5t43.5 -134.5v-295q0 -10 -10 -10h-34
q-10 0 -10 10v282q0 143 -125 143q-56 0 -93 -36t-37 -97v-292q0 -10 -10 -10h-34z" />
    <glyph glyph-name="uni045C" unicode="&#x45c;" horiz-adv-x="505" 
d="M102 0q-10 0 -10 10v458q0 9 10 9h34q10 0 10 -9v-192q0 -6 6 -6h55q33 0 56.5 18.5t34.5 48.5l25 67q16 41 40.5 58.5t64.5 17.5h22q10 0 10 -10v-29q0 -10 -10 -10h-11q-27 0 -42.5 -11.5t-27.5 -44.5l-23 -61q-18 -47 -52 -62v-4q44 -10 68 -67l30 -73q14 -36 27 -48
t47 -12h4q10 0 10 -10v-31q0 -10 -10 -10h-25q-44 0 -66 20t-40 68l-29 77q-21 57 -95 57h-63q-6 0 -6 -6v-203q0 -10 -10 -10h-34zM252 558h-25q-11 0 -6 10l77 122q6 10 17 10h38q5 0 6.5 -3t-1.5 -7l-88 -122q-9 -10 -18 -10z" />
    <glyph glyph-name="uni045D" unicode="&#x45d;" horiz-adv-x="556" 
d="M102 0q-10 0 -10 10v458q0 9 10 9h34q10 0 10 -9v-380h3l258 384q3 5 10 5h37q10 0 10 -9v-458q0 -10 -10 -10h-33q-10 0 -10 10v380h-3l-258 -384q-4 -6 -11 -6h-37zM311 558h-25q-9 0 -18 10l-88 122q-3 4 -1.5 7t6.5 3h38q10 0 16 -10l77 -122q7 -10 -5 -10z" />
    <glyph glyph-name="uni045E" unicode="&#x45e;" horiz-adv-x="467" 
d="M82 -180q-10 0 -10 10v32q0 10 10 10h18q32 0 51 18t39 71l19 49l-176 457q-3 10 7 10h38q9 0 13 -10l145 -383h1l141 383q3 10 12 10h38q10 0 7 -10l-195 -513q-30 -80 -59 -107t-78 -27h-21zM237 570q-103 0 -127 97q-3 12 6 15l23 5q9 2 12 -6q22 -68 86 -68
q62 0 86 68q3 9 13 6l21 -5q9 -3 6 -15q-26 -97 -126 -97z" />
    <glyph glyph-name="uni045F" unicode="&#x45f;" horiz-adv-x="541" 
d="M252 -135q-9 0 -9 10v119q0 6 -6 6h-135q-10 0 -10 9v458q0 10 10 10h34q10 0 10 -10v-410q0 -6 6 -6h237q6 0 6 6v410q0 10 10 10h34q10 0 10 -10v-458q0 -9 -10 -9h-136q-6 0 -6 -6v-119q0 -10 -10 -10h-35z" />
    <glyph glyph-name="uni0490" unicode="&#x490;" horiz-adv-x="500" 
d="M104 0q-10 0 -10 10v661q0 9 10 9h320q9 0 9 9v114q0 9 10 9h38q9 0 9 -9v-168q0 -9 -9 -9h-324q-6 0 -6 -6v-610q0 -10 -10 -10h-37z" />
    <glyph glyph-name="uni0491" unicode="&#x491;" horiz-adv-x="400" 
d="M101 0q-9 0 -9 10v458q0 9 9 9h229q6 0 6 6v92q0 10 10 10h33q10 0 10 -10v-139q0 -10 -10 -10h-227q-6 0 -6 -6v-410q0 -10 -10 -10h-35z" />
    <glyph glyph-name="Wgrave" unicode="&#x1e80;" horiz-adv-x="817" 
d="M423 764h-26q-10 0 -18 9l-96 105q-3 4 -2 7t6 3h40q11 0 18 -10l82 -104q8 -10 -4 -10zM613 0h-33q-8 0 -11 10l-159 557h-2l-160 -557q-3 -10 -11 -10h-32q-9 0 -12 10l-161 659q-3 11 8 11h36q12 0 13 -10l134 -560h2l157 560q3 10 12 10h30q9 0 12 -10l159 -560h2
l131 560q2 10 13 10h36q11 0 8 -11l-161 -659q-2 -10 -11 -10z" />
    <glyph glyph-name="wgrave" unicode="&#x1e81;" horiz-adv-x="736" 
d="M536 0h-31q-9 0 -12 10l-124 381h-1l-126 -381q-3 -10 -12 -10h-30q-9 0 -12 10l-149 457q-3 10 7 10h36q9 0 13 -10l122 -381h1l124 381q3 10 12 10h29q9 0 12 -10l126 -381h1l119 381q4 10 13 10h36q10 0 7 -10l-149 -457q-3 -10 -12 -10zM378 558h-25q-9 0 -18 10
l-88 122q-3 4 -1.5 7t6.5 3h38q10 0 16 -10l77 -122q7 -10 -5 -10z" />
    <glyph glyph-name="Wacute" unicode="&#x1e82;" horiz-adv-x="817" 
d="M421 764h-26q-12 0 -4 10l82 104q7 10 18 10h40q5 0 6 -3t-2 -7l-96 -105q-8 -9 -18 -9zM613 0h-33q-8 0 -11 10l-159 557h-2l-160 -557q-3 -10 -11 -10h-32q-9 0 -12 10l-161 659q-3 11 8 11h36q12 0 13 -10l134 -560h2l157 560q3 10 12 10h30q9 0 12 -10l159 -560h2
l131 560q2 10 13 10h36q11 0 8 -11l-161 -659q-2 -10 -11 -10z" />
    <glyph glyph-name="wacute" unicode="&#x1e83;" horiz-adv-x="736" 
d="M381 558h-25q-11 0 -6 10l77 122q6 10 17 10h38q5 0 6.5 -3t-1.5 -7l-88 -122q-9 -10 -18 -10zM536 0h-31q-9 0 -12 10l-124 381h-1l-126 -381q-3 -10 -12 -10h-30q-9 0 -12 10l-149 457q-3 10 7 10h36q9 0 13 -10l122 -381h1l124 381q3 10 12 10h29q9 0 12 -10l126 -381
h1l119 381q4 10 13 10h36q10 0 7 -10l-149 -457q-3 -10 -12 -10z" />
    <glyph glyph-name="Wdieresis" unicode="&#x1e84;" horiz-adv-x="817" 
d="M527 786h-39q-10 0 -10 10v56q0 10 10 10h39q10 0 10 -10v-56q0 -10 -10 -10zM327 786h-39q-10 0 -10 10v56q0 10 10 10h39q10 0 10 -10v-56q0 -10 -10 -10zM613 0h-33q-8 0 -11 10l-159 557h-2l-160 -557q-3 -10 -11 -10h-32q-9 0 -12 10l-161 659q-3 11 8 11h36
q12 0 13 -10l134 -560h2l157 560q3 10 12 10h30q9 0 12 -10l159 -560h2l131 560q2 10 13 10h36q11 0 8 -11l-161 -659q-2 -10 -11 -10z" />
    <glyph glyph-name="wdieresis" unicode="&#x1e85;" horiz-adv-x="736" 
d="M487 604h-40q-10 0 -10 10v56q0 10 10 10h40q10 0 10 -10v-56q0 -10 -10 -10zM288 604h-40q-10 0 -10 10v56q0 10 10 10h40q10 0 10 -10v-56q0 -10 -10 -10zM536 0h-31q-9 0 -12 10l-124 381h-1l-126 -381q-3 -10 -12 -10h-30q-9 0 -12 10l-149 457q-3 10 7 10h36
q9 0 13 -10l122 -381h1l124 381q3 10 12 10h29q9 0 12 -10l126 -381h1l119 381q4 10 13 10h36q10 0 7 -10l-149 -457q-3 -10 -12 -10z" />
    <glyph glyph-name="Ygrave" unicode="&#x1ef2;" horiz-adv-x="515" 
d="M276 0h-37q-10 0 -10 10v269l-204 390q-4 11 8 11h39q10 0 15 -10l171 -325h3l168 325q5 10 15 10h38q12 0 8 -11l-204 -390v-269q0 -10 -10 -10zM283 764h-26q-10 0 -18 9l-96 105q-3 4 -2 7t6 3h40q11 0 18 -10l82 -104q8 -10 -4 -10z" />
    <glyph glyph-name="ygrave" unicode="&#x1ef3;" horiz-adv-x="467" 
d="M103 -180h-21q-10 0 -10 10v32q0 10 10 10h18q32 0 51 18t39 71l19 49l-176 457q-3 10 7 10h38q9 0 13 -10l145 -383h1l141 383q3 10 12 10h38q10 0 7 -10l-195 -513q-30 -80 -59 -107t-78 -27zM270 558h-25q-9 0 -18 10l-88 122q-3 4 -1.5 7t6.5 3h38q10 0 16 -10
l77 -122q7 -10 -5 -10z" />
    <glyph glyph-name="uni2010" unicode="&#x2010;" horiz-adv-x="374" 
d="M59 241q-10 0 -10 10v31q0 10 10 10h256q10 0 10 -10v-31q0 -10 -10 -10h-256z" />
    <glyph glyph-name="endash" unicode="&#x2013;" horiz-adv-x="504" 
d="M467 242h-430q-10 0 -10 10v29q0 10 10 10h430q10 0 10 -10v-29q0 -10 -10 -10z" />
    <glyph glyph-name="emdash" unicode="&#x2014;" horiz-adv-x="830" 
d="M793 242h-756q-10 0 -10 10v29q0 10 10 10h756q10 0 10 -10v-29q0 -10 -10 -10z" />
    <glyph glyph-name="quoteleft" unicode="&#x2018;" horiz-adv-x="207" 
d="M124 681q9 0 9 -10v-140q0 -10 -10 -10h-39q-10 0 -10 10v69q0 14 5 22l34 52q5 7 11 7z" />
    <glyph glyph-name="quoteright" unicode="&#x2019;" horiz-adv-x="207" 
d="M83 520q-9 0 -9 10v140q0 10 10 10h39q10 0 10 -10v-69q0 -15 -5 -22l-34 -52q-5 -7 -11 -7z" />
    <glyph glyph-name="quotesinglbase" unicode="&#x201a;" horiz-adv-x="207" 
d="M83 -83q-9 0 -9 10v140q0 10 10 10h39q10 0 10 -10v-69q0 -14 -5 -22l-34 -52q-5 -7 -11 -7z" />
    <glyph glyph-name="quotedblleft" unicode="&#x201c;" horiz-adv-x="346" 
d="M263 681q9 0 9 -10v-140q0 -10 -10 -10h-39q-10 0 -10 10v69q0 14 5 22l34 52q5 7 11 7zM124 681q9 0 9 -10v-140q0 -10 -10 -10h-39q-10 0 -10 10v69q0 14 5 22l34 52q5 7 11 7z" />
    <glyph glyph-name="quotedblright" unicode="&#x201d;" horiz-adv-x="346" 
d="M222 520q-9 0 -9 10v140q0 10 10 10h39q10 0 10 -10v-69q0 -15 -5 -22l-34 -52q-5 -7 -11 -7zM83 520q-9 0 -9 10v140q0 10 10 10h39q10 0 10 -10v-69q0 -15 -5 -22l-34 -52q-5 -7 -11 -7z" />
    <glyph glyph-name="quotedblbase" unicode="&#x201e;" horiz-adv-x="346" 
d="M222 -56q-9 0 -9 10v140q0 10 10 10h39q10 0 10 -10v-69q0 -15 -5 -22l-34 -52q-5 -7 -11 -7zM83 -56q-9 0 -9 10v140q0 10 10 10h39q10 0 10 -10v-69q0 -15 -5 -22l-34 -52q-5 -7 -11 -7z" />
    <glyph glyph-name="dagger" unicode="&#x2020;" horiz-adv-x="447" 
d="M240 -180h-33q-10 0 -10 10v544q0 6 -6 6h-137q-10 0 -10 10v29q0 10 10 10h137q6 0 6 6v235q0 10 10 10h33q10 0 10 -10v-235q0 -6 6 -6h137q10 0 10 -10v-29q0 -10 -10 -10h-137q-6 0 -6 -6v-544q0 -10 -10 -10z" />
    <glyph glyph-name="daggerdbl" unicode="&#x2021;" horiz-adv-x="447" 
d="M240 -180h-33q-10 0 -10 10v208q0 6 -6 6h-137q-10 0 -10 10v29q0 10 10 10h137q6 0 6 6v304q0 6 -6 6h-137q-10 0 -10 10v29q0 10 10 10h137q6 0 6 6v206q0 10 10 10h33q10 0 10 -10v-206q0 -6 6 -6h137q10 0 10 -10v-29q0 -10 -10 -10h-137q-6 0 -6 -6v-304q0 -6 6 -6
h137q10 0 10 -10v-29q0 -10 -10 -10h-137q-6 0 -6 -6v-208q0 -10 -10 -10z" />
    <glyph glyph-name="bullet" unicode="&#x2022;" horiz-adv-x="423" 
d="M211 192q-49 0 -81.5 33t-32.5 83t32.5 83t81.5 33q50 0 82.5 -33t32.5 -83t-32.5 -83t-82.5 -33z" />
    <glyph glyph-name="ellipsis" unicode="&#x2026;" horiz-adv-x="657" 
d="M572 0h-49q-10 0 -10 10v67q0 10 10 10h49q10 0 10 -10v-67q0 -10 -10 -10zM353 0h-49q-10 0 -10 10v67q0 10 10 10h49q10 0 10 -10v-67q0 -10 -10 -10zM134 0h-49q-10 0 -10 10v67q0 10 10 10h49q10 0 10 -10v-67q0 -10 -10 -10z" />
    <glyph glyph-name="perthousand" unicode="&#x2030;" horiz-adv-x="1073" 
d="M197 -10h-27q-11 0 -6 10l394 680q6 10 14 10h27q11 0 6 -10l-394 -680q-6 -10 -14 -10zM205 330q-85 0 -109 74q-8 32 -8 105t8 105q24 74 109 74q40 0 68.5 -19.5t39.5 -54.5q8 -32 8 -105t-8 -105q-11 -35 -39.5 -54.5t-68.5 -19.5zM205 371q51 0 64 43q7 18 7 95
t-7 95q-13 43 -64 43q-52 0 -65 -43q-7 -18 -7 -95t7 -95q13 -43 65 -43zM869 -8q-40 0 -68.5 19.5t-39.5 54.5q-8 24 -8 105q0 79 8 105q11 35 39.5 54.5t68.5 19.5t68.5 -19.5t39.5 -54.5q8 -26 8 -105q0 -81 -8 -105q-11 -35 -39.5 -54.5t-68.5 -19.5zM566 -8
q-40 0 -68.5 19.5t-39.5 54.5q-8 24 -8 105q0 79 8 105q11 35 39.5 54.5t68.5 19.5t68.5 -19.5t39.5 -54.5q8 -26 8 -105q0 -81 -8 -105q-11 -35 -39.5 -54.5t-68.5 -19.5zM869 33q50 0 65 43q7 23 7 95q0 73 -7 94q-15 43 -65 43t-65 -43q-7 -21 -7 -94q0 -72 7 -95
q15 -43 65 -43zM566 33q50 0 65 43q7 23 7 95q0 73 -7 94q-15 43 -65 43t-65 -43q-7 -21 -7 -94q0 -72 7 -95q15 -43 65 -43z" />
    <glyph glyph-name="guilsinglleft" unicode="&#x2039;" horiz-adv-x="326" 
d="M240 81l-171 176q-7 7 0 14l171 176q3 3 6.5 1.5t3.5 -5.5v-45q0 -11 -7 -18l-111 -112q-4 -4 0 -8l111 -112q7 -7 7 -18v-45q0 -4 -3.5 -5.5t-6.5 1.5z" />
    <glyph glyph-name="guilsinglright" unicode="&#x203a;" horiz-adv-x="326" 
d="M257 257l-171 -176q-3 -3 -6.5 -1.5t-3.5 5.5v45q0 11 7 18l111 112q4 4 0 8l-111 112q-7 7 -7 18v45q0 4 3.5 5.5t6.5 -1.5l171 -176q7 -7 0 -14z" />
    <glyph glyph-name="interrobang" unicode="&#x203d;" horiz-adv-x="446" 
d="M196 184v37l-7 256q0 10 10 10h39q10 0 10 -10l-4 -144h2l38 51q60 80 60 141q0 53 -33 83t-85 30q-49 0 -81 -29t-43 -83q-2 -10 -11 -8l-34 6q-10 2 -8 12q11 69 58 111.5t120 42.5q77 0 124.5 -46t47.5 -119q0 -39 -14 -70t-47 -74l-57 -74q-19 -24 -24.5 -41
t-5.5 -47v-35q0 -10 -10 -10h-35q-10 0 -10 10zM188 10v67q0 10 10 10h50q10 0 10 -10v-67q0 -10 -10 -10h-50q-10 0 -10 10z" />
    <glyph glyph-name="fraction" unicode="&#x2044;" horiz-adv-x="151" 
d="M-112 -10h-27q-11 0 -6 10l394 680q6 10 14 10h27q11 0 6 -10l-394 -680q-6 -10 -14 -10z" />
    <glyph glyph-name="zero.superior" unicode="&#x2070;" horiz-adv-x="331" 
d="M166 423q-90 0 -117 80q-9 32 -9 130t9 130q27 80 117 80q91 0 116 -80q9 -27 9 -130t-9 -130q-25 -80 -116 -80zM166 466q55 0 72 50q6 21 6 117t-6 117q-17 50 -72 50t-72 -50q-7 -24 -7 -117t7 -117q17 -50 72 -50z" />
    <glyph glyph-name="four.superior" unicode="&#x2074;" horiz-adv-x="331" 
d="M240 430h-25q-10 0 -10 10v60q0 6 -6 6h-161q-10 0 -10 10v22q0 8 4 16l133 272q4 10 13 10h29q5 0 6.5 -3t-0.5 -7l-133 -276v-1h119q6 0 6 6v98q0 10 10 10h25q10 0 10 -10v-98q0 -6 6 -6h36q10 0 10 -10v-23q0 -10 -10 -10h-36q-6 0 -6 -6v-60q0 -10 -10 -10z" />
    <glyph glyph-name="five.superior" unicode="&#x2075;" horiz-adv-x="331" 
d="M170 423q-49 0 -78.5 22t-38.5 58q-3 10 6 13l24 9q9 3 12 -5q20 -53 76 -53q55 0 68 45q5 17 5 49q0 35 -5 49q-14 44 -67 44q-49 0 -65 -37q-5 -9 -12 -9h-26q-10 0 -10 10v208q0 10 10 10h204q10 0 10 -10v-23q0 -10 -10 -10h-163q-6 0 -6 -6v-120h1q22 30 74 30
q82 0 104 -68q7 -21 7 -68q0 -42 -8 -66q-25 -72 -112 -72z" />
    <glyph glyph-name="six.superior" unicode="&#x2076;" horiz-adv-x="331" 
d="M166 423q-57 0 -92.5 34.5t-35.5 90.5q0 45 28 95l102 184q6 9 14 9h30q4 0 6 -3t0 -7l-92 -165l1 -1q17 12 47 12q53 0 86.5 -34.5t33.5 -89.5q0 -56 -35.5 -90.5t-92.5 -34.5zM166 466q37 0 59.5 22.5t22.5 59.5q0 36 -22.5 58.5t-59.5 22.5t-59.5 -22.5t-22.5 -58.5
q0 -37 22.5 -59.5t59.5 -22.5z" />
    <glyph glyph-name="seven.superior" unicode="&#x2077;" horiz-adv-x="331" 
d="M127 430h-28q-11 0 -6 11l149 351v1h-140q-6 0 -6 -6v-42q0 -10 -10 -10h-26q-10 0 -10 10v81q0 10 10 10h221q10 0 10 -10v-28q0 -7 -3 -13l-148 -347q-4 -8 -13 -8z" />
    <glyph glyph-name="eight.superior" unicode="&#x2078;" horiz-adv-x="331" 
d="M166 423q-57 0 -93.5 33t-36.5 87q0 35 17.5 61.5t44.5 38.5v2q-52 28 -52 86q0 48 33.5 80t86.5 32q52 0 85.5 -32t33.5 -80q0 -58 -52 -86v-2q27 -12 45 -38t18 -62q0 -54 -36.5 -87t-93.5 -33zM166 663q31 0 52 19.5t21 48.5q0 30 -21 49.5t-52 19.5t-52.5 -19.5
t-21.5 -49.5q0 -29 21.5 -48.5t52.5 -19.5zM166 466q37 0 60.5 22t23.5 56t-23.5 56t-60.5 22t-60.5 -22t-23.5 -56t23.5 -56t60.5 -22z" />
    <glyph glyph-name="nine.superior" unicode="&#x2079;" horiz-adv-x="331" 
d="M150 430h-31q-5 0 -6.5 3t0.5 7l92 165l-1 1q-15 -12 -46 -12q-53 0 -86.5 34.5t-33.5 89.5q0 56 35.5 90.5t92.5 34.5t92.5 -34.5t35.5 -90.5q0 -43 -29 -95l-102 -184q-5 -9 -13 -9zM166 637q37 0 59.5 22.5t22.5 58.5q0 37 -22.5 59.5t-59.5 22.5t-59.5 -22.5
t-22.5 -59.5q0 -36 22.5 -58.5t59.5 -22.5z" />
    <glyph glyph-name="zero.inferior" unicode="&#x2080;" horiz-adv-x="331" 
d="M166 -163q-90 0 -117 80q-9 32 -9 130t9 130q27 80 117 80q91 0 116 -80q9 -27 9 -130t-9 -130q-25 -80 -116 -80zM166 -120q55 0 72 50q6 21 6 117t-6 117q-17 50 -72 50t-72 -50q-7 -24 -7 -117t7 -117q17 -50 72 -50z" />
    <glyph glyph-name="one.inferior" unicode="&#x2081;" horiz-adv-x="331" 
d="M196 -156h-26q-10 0 -10 10v339h-1l-69 -47q-10 -6 -10 5v32q0 10 7 14l68 47q9 6 16 6h25q10 0 10 -10v-386q0 -10 -10 -10z" />
    <glyph glyph-name="two.inferior" unicode="&#x2082;" horiz-adv-x="331" 
d="M278 -156h-225q-10 0 -10 10v23q0 7 6 14l156 181q34 39 34 74q0 30 -19 49t-51 19q-60 0 -75 -60q-2 -10 -12 -8l-23 5q-10 2 -9 12q7 38 38.5 66t80.5 28q54 0 85 -31.5t31 -79.5t-44 -101l-137 -156v-2h174q10 0 10 -10v-23q0 -10 -10 -10z" />
    <glyph glyph-name="three.inferior" unicode="&#x2083;" horiz-adv-x="331" 
d="M166 -163q-49 0 -81.5 22.5t-43.5 60.5q-3 9 6 12l25 7q8 3 12 -6q23 -53 81 -53q36 0 57.5 21.5t21.5 54.5t-22.5 55t-58.5 22h-18q-10 0 -10 10v23q0 10 10 10h15q34 0 54.5 19t20.5 51q0 31 -19.5 49.5t-53.5 18.5q-54 0 -73 -47q-3 -9 -11 -8l-23 6q-10 2 -8 11
q8 34 38 57.5t78 23.5q54 0 86 -30.5t32 -78.5q0 -57 -52 -90v-1q24 -10 42.5 -36t18.5 -64q0 -53 -34.5 -86.5t-89.5 -33.5z" />
    <glyph glyph-name="four.inferior" unicode="&#x2084;" horiz-adv-x="331" 
d="M240 -156h-25q-10 0 -10 10v60q0 6 -6 6h-161q-10 0 -10 10v22q0 8 4 16l133 272q4 10 13 10h29q5 0 6.5 -3t-0.5 -7l-133 -276v-1h119q6 0 6 6v98q0 10 10 10h25q10 0 10 -10v-98q0 -6 6 -6h36q10 0 10 -10v-23q0 -10 -10 -10h-36q-6 0 -6 -6v-60q0 -10 -10 -10z" />
    <glyph glyph-name="five.inferior" unicode="&#x2085;" horiz-adv-x="331" 
d="M170 -163q-49 0 -78.5 22t-38.5 58q-3 10 6 13l24 9q9 3 12 -5q20 -53 76 -53q55 0 68 45q5 17 5 49q0 35 -5 49q-14 44 -67 44q-49 0 -65 -37q-5 -9 -12 -9h-26q-10 0 -10 10v208q0 10 10 10h204q10 0 10 -10v-23q0 -10 -10 -10h-163q-6 0 -6 -6v-120h1q22 30 74 30
q82 0 104 -68q7 -21 7 -68q0 -42 -8 -66q-25 -72 -112 -72z" />
    <glyph glyph-name="six.inferior" unicode="&#x2086;" horiz-adv-x="331" 
d="M166 -163q-57 0 -92.5 34.5t-35.5 90.5q0 45 28 95l102 184q6 9 14 9h30q4 0 6 -3t0 -7l-92 -165l1 -1q17 12 47 12q53 0 86.5 -34.5t33.5 -89.5q0 -56 -35.5 -90.5t-92.5 -34.5zM166 -120q37 0 59.5 22.5t22.5 59.5q0 36 -22.5 58.5t-59.5 22.5t-59.5 -22.5t-22.5 -58.5
q0 -37 22.5 -59.5t59.5 -22.5z" />
    <glyph glyph-name="seven.inferior" unicode="&#x2087;" horiz-adv-x="331" 
d="M127 -156h-28q-11 0 -6 11l149 351v1h-140q-6 0 -6 -6v-42q0 -10 -10 -10h-26q-10 0 -10 10v81q0 10 10 10h221q10 0 10 -10v-28q0 -7 -3 -13l-148 -347q-4 -8 -13 -8z" />
    <glyph glyph-name="eight.inferior" unicode="&#x2088;" horiz-adv-x="331" 
d="M166 -163q-57 0 -93.5 33t-36.5 87q0 35 17.5 61.5t44.5 38.5v2q-52 28 -52 86q0 48 33.5 80t86.5 32q52 0 85.5 -32t33.5 -80q0 -58 -52 -86v-2q27 -12 45 -38t18 -62q0 -54 -36.5 -87t-93.5 -33zM166 77q31 0 52 19.5t21 48.5q0 30 -21 49.5t-52 19.5t-52.5 -19.5
t-21.5 -49.5q0 -29 21.5 -48.5t52.5 -19.5zM166 -120q37 0 60.5 22t23.5 56t-23.5 56t-60.5 22t-60.5 -22t-23.5 -56t23.5 -56t60.5 -22z" />
    <glyph glyph-name="nine.inferior" unicode="&#x2089;" horiz-adv-x="331" 
d="M150 -156h-31q-5 0 -6.5 3t0.5 7l92 165l-1 1q-15 -12 -46 -12q-53 0 -86.5 34.5t-33.5 89.5q0 56 35.5 90.5t92.5 34.5t92.5 -34.5t35.5 -90.5q0 -43 -29 -95l-102 -184q-5 -9 -13 -9zM166 51q37 0 59.5 22.5t22.5 58.5q0 37 -22.5 59.5t-59.5 22.5t-59.5 -22.5
t-22.5 -59.5q0 -36 22.5 -58.5t59.5 -22.5z" />
    <glyph glyph-name="Euro" unicode="&#x20ac;" 
d="M302 -10q-138 0 -180 127q-13 43 -13 136q0 6 -6 6h-47q-10 0 -10 10v25q0 10 10 10h47q6 0 6 6v66q0 6 -6 6h-47q-10 0 -10 10v25q0 10 10 10h47q6 0 6 6q0 87 13 130q42 127 180 127q66 0 110.5 -32.5t65.5 -83.5q5 -9 -5 -13l-27 -15q-8 -3 -13 6q-44 86 -131 86
q-97 0 -126 -88q-12 -32 -12 -117q0 -6 6 -6h213q5 0 7 -3.5t1 -7.5l-8 -24q-3 -10 -12 -10h-201q-6 0 -6 -6v-66q0 -6 6 -6h183q5 0 7 -3.5t1 -7.5l-8 -24q-3 -10 -12 -10h-171q-6 0 -6 -6q0 -91 12 -123q29 -88 126 -88q87 0 131 86q5 9 13 6l27 -15q10 -4 5 -13
q-21 -51 -65.5 -83.5t-110.5 -32.5z" />
    <glyph glyph-name="afii61248" unicode="&#x2105;" horiz-adv-x="770" 
d="M164 0l394 680q6 10 14 10h27q11 0 6 -10l-394 -680q-6 -10 -14 -10h-27q-11 0 -6 10zM575 -8q-93 0 -121 88q-11 36 -11 90t11 89q13 43 45 67t76 24q45 0 76.5 -23.5t45.5 -67.5q11 -35 11 -89t-11 -90q-28 -88 -122 -88zM575 31q62 0 78 64q8 24 8 75q0 52 -8 76
q-16 65 -78 65q-60 0 -77 -65q-8 -29 -8 -76q0 -46 8 -75q17 -64 77 -64zM83 509q0 54 10 89q26 90 118 90q72 0 107 -65q4 -5 -2 -9l-25 -17q-4 -3 -8 3q-24 48 -74 48q-55 0 -72 -62q-7 -27 -7 -77t7 -77q17 -62 73 -62q52 0 73 47q3 6 8 3l25 -16q6 -4 2 -9
q-36 -65 -107 -65q-90 0 -118 89q-10 37 -10 90z" />
    <glyph glyph-name="afii61289" unicode="&#x2113;" horiz-adv-x="371" 
d="M83 211q-8 -5 -14 2l-16 23q-6 7 1 14l62 53v211q0 176 105 176q43 0 68.5 -32.5t25.5 -92.5q0 -71 -33.5 -138t-111.5 -147v-177q0 -61 48 -61q32 0 61 29q7 7 14 -1l15 -21q6 -7 -1 -14q-42 -45 -97 -45q-94 0 -94 114v135zM170 517v-168q52 59 74 109.5t22 106.5
q0 36 -12.5 56.5t-32.5 20.5q-51 0 -51 -125z" />
    <glyph glyph-name="uni2116" unicode="&#x2116;" horiz-adv-x="930" 
d="M103 0q-10 0 -10 10v661q0 9 10 9h44q7 0 8 -3l325 -563h3v557q0 9 9 9h38q10 0 10 -9v-661q0 -10 -10 -10h-46q-5 0 -7 4l-324 564h-3v-558q0 -10 -10 -10h-37zM643 153q-9 0 -9 10v29q0 10 9 10h214q10 0 10 -10v-29q0 -10 -10 -10h-214zM750 249q-129 0 -129 151
t129 151t129 -151t-129 -151zM750 292q81 0 81 108t-81 108t-81 -108t81 -108z" />
    <glyph glyph-name="published" unicode="&#x2117;" horiz-adv-x="830" 
d="M415 -10q-149 0 -249.5 100.5t-100.5 249.5t100.5 249.5t249.5 100.5t249.5 -100.5t100.5 -249.5t-100.5 -249.5t-249.5 -100.5zM415 32q131 0 219 88t88 220t-88 220t-219 88t-219 -88t-88 -220t88 -220t219 -88zM338 140h-27q-9 0 -9 9v368q0 9 9 9h98q160 0 160 -118
q0 -71 -42 -100t-118 -29h-57q-5 0 -5 -5v-125q0 -9 -9 -9zM402 318q59 0 88.5 17.5t29.5 68.5q0 46 -29.5 63.5t-88.5 17.5h-51q-4 0 -4 -5v-157q0 -5 4 -5h51z" />
    <glyph glyph-name="trademark" unicode="&#x2122;" horiz-adv-x="817" 
d="M756 286h-22q-10 0 -10 10v283h-2l-112 -229q-4 -8 -12 -8h-19q-8 0 -12 8l-112 229h-2v-283q0 -10 -10 -10h-22q-10 0 -10 10v374q0 10 10 10h23q8 0 13 -9l131 -274h3l129 274q4 9 12 9h24q10 0 10 -10v-374q0 -10 -10 -10zM201 286h-24q-10 0 -10 10v337q0 6 -6 6
h-110q-10 0 -10 10v21q0 10 10 10h276q10 0 10 -10v-21q0 -10 -10 -10h-110q-6 0 -6 -6v-337q0 -10 -10 -10z" />
    <glyph glyph-name="Omega" unicode="&#x2126;" horiz-adv-x="612" 
d="M529 0h-174q-10 0 -10 10v36q0 9 10 12q79 29 106.5 86.5t27.5 195.5q0 127 -18 181q-38 115 -165 115t-165 -115q-18 -54 -18 -181q0 -138 27.5 -195.5t106.5 -86.5q10 -3 10 -12v-36q0 -10 -10 -10h-174q-10 0 -10 10v34q0 10 10 10h87v2q-58 32 -81.5 93t-23.5 191
q0 134 20 196q49 154 221 154t221 -154q20 -62 20 -196q0 -130 -23.5 -191t-81.5 -93v-2h87q10 0 10 -10v-34q0 -10 -10 -10z" />
    <glyph glyph-name="estimated" unicode="&#x212e;" horiz-adv-x="643" 
d="M320 -10q-103 0 -167 71.5t-64 177.5t64 177t167 71q104 0 168.5 -69t65.5 -179h-363v-164q53 -51 129 -51q110 0 173 108l33 -21q-43 -65 -89.5 -93t-116.5 -28zM452 272v130q-58 55 -132 55q-77 0 -129 -55v-130h261z" />
    <glyph glyph-name="onethird" unicode="&#x2153;" horiz-adv-x="868" 
d="M214 274h-26q-10 0 -10 10v339h-1l-69 -47q-10 -6 -10 5v32q0 10 7 14l68 47q9 6 16 6h25q10 0 10 -10v-386q0 -10 -10 -10zM646 -7q-49 0 -81.5 22.5t-43.5 60.5q-3 9 6 12l25 7q8 3 12 -6q23 -53 81 -53q36 0 57.5 21.5t21.5 54.5t-22.5 55t-58.5 22h-18q-10 0 -10 10
v23q0 10 10 10h15q34 0 54.5 19t20.5 51q0 31 -19.5 49.5t-53.5 18.5q-54 0 -73 -47q-3 -9 -11 -8l-23 6q-10 2 -8 11q8 34 38 57.5t78 23.5q54 0 86 -30.5t32 -78.5q0 -57 -52 -90v-1q24 -10 42.5 -36t18.5 -64q0 -53 -34.5 -86.5t-89.5 -33.5zM212 -10h-27q-11 0 -6 10
l394 680q6 10 14 10h27q11 0 6 -10l-394 -680q-6 -10 -14 -10z" />
    <glyph glyph-name="twothirds" unicode="&#x2154;" horiz-adv-x="963" 
d="M332 274h-225q-10 0 -10 10v23q0 7 6 14l156 181q34 39 34 74q0 30 -19 49t-51 19q-60 0 -75 -60q-2 -10 -12 -8l-23 5q-10 2 -9 12q7 38 38.5 66t80.5 28q54 0 85 -31.5t31 -79.5t-44 -101l-137 -156v-2h174q10 0 10 -10v-23q0 -10 -10 -10zM741 -7q-49 0 -81.5 22.5
t-43.5 60.5q-3 9 6 12l25 7q8 3 12 -6q23 -53 81 -53q36 0 57.5 21.5t21.5 54.5t-22.5 55t-58.5 22h-18q-10 0 -10 10v23q0 10 10 10h15q34 0 54.5 19t20.5 51q0 31 -19.5 49.5t-53.5 18.5q-54 0 -73 -47q-3 -9 -11 -8l-23 6q-10 2 -8 11q8 34 38 57.5t78 23.5
q54 0 86 -30.5t32 -78.5q0 -57 -52 -90v-1q24 -10 42.5 -36t18.5 -64q0 -53 -34.5 -86.5t-89.5 -33.5zM307 -10h-27q-11 0 -6 10l394 680q6 10 14 10h27q11 0 6 -10l-394 -680q-6 -10 -14 -10z" />
    <glyph glyph-name="oneeighth" unicode="&#x215b;" horiz-adv-x="869" 
d="M214 274h-26q-10 0 -10 10v339h-1l-69 -47q-10 -6 -10 5v32q0 10 7 14l68 47q9 6 16 6h25q10 0 10 -10v-386q0 -10 -10 -10zM642 -7q-57 0 -93.5 33t-36.5 87q0 35 17.5 61.5t44.5 38.5v2q-52 28 -52 86q0 48 33.5 80t86.5 32q52 0 85.5 -32t33.5 -80q0 -58 -52 -86v-2
q27 -12 45 -38t18 -62q0 -54 -36.5 -87t-93.5 -33zM642 233q31 0 52 19.5t21 48.5q0 30 -21 49.5t-52 19.5t-52.5 -19.5t-21.5 -49.5q0 -29 21.5 -48.5t52.5 -19.5zM642 36q37 0 60.5 22t23.5 56t-23.5 56t-60.5 22t-60.5 -22t-23.5 -56t23.5 -56t60.5 -22zM212 -10h-27
q-11 0 -6 10l394 680q6 10 14 10h27q11 0 6 -10l-394 -680q-6 -10 -14 -10z" />
    <glyph glyph-name="threeeighths" unicode="&#x215c;" horiz-adv-x="938" 
d="M711 -7q-57 0 -93.5 33t-36.5 87q0 35 17.5 61.5t44.5 38.5v2q-52 28 -52 86q0 48 33.5 80t86.5 32q52 0 85.5 -32t33.5 -80q0 -58 -52 -86v-2q27 -12 45 -38t18 -62q0 -54 -36.5 -87t-93.5 -33zM711 233q31 0 52 19.5t21 48.5q0 30 -21 49.5t-52 19.5t-52.5 -19.5
t-21.5 -49.5q0 -29 21.5 -48.5t52.5 -19.5zM711 36q37 0 60.5 22t23.5 56t-23.5 56t-60.5 22t-60.5 -22t-23.5 -56t23.5 -56t60.5 -22zM223 267q-49 0 -81.5 22.5t-43.5 60.5q-3 9 6 12l25 7q8 3 12 -6q23 -53 81 -53q36 0 57.5 21.5t21.5 54.5t-22.5 55t-58.5 22h-18
q-10 0 -10 10v23q0 10 10 10h15q34 0 54.5 19t20.5 51q0 31 -19.5 49.5t-53.5 18.5q-54 0 -73 -47q-3 -9 -11 -8l-23 6q-10 2 -8 11q8 34 38 57.5t78 23.5q54 0 86 -30.5t32 -78.5q0 -57 -52 -90v-1q24 -10 42.5 -36t18.5 -64q0 -53 -34.5 -86.5t-89.5 -33.5zM281 -10h-27
q-11 0 -6 10l394 680q6 10 14 10h27q11 0 6 -10l-394 -680q-6 -10 -14 -10z" />
    <glyph glyph-name="fiveeighths" unicode="&#x215d;" horiz-adv-x="930" 
d="M703 -7q-57 0 -93.5 33t-36.5 87q0 35 17.5 61.5t44.5 38.5v2q-52 28 -52 86q0 48 33.5 80t86.5 32q52 0 85.5 -32t33.5 -80q0 -58 -52 -86v-2q27 -12 45 -38t18 -62q0 -54 -36.5 -87t-93.5 -33zM703 233q31 0 52 19.5t21 48.5q0 30 -21 49.5t-52 19.5t-52.5 -19.5
t-21.5 -49.5q0 -29 21.5 -48.5t52.5 -19.5zM703 36q37 0 60.5 22t23.5 56t-23.5 56t-60.5 22t-60.5 -22t-23.5 -56t23.5 -56t60.5 -22zM215 267q-49 0 -78.5 22t-38.5 58q-3 10 6 13l24 9q9 3 12 -5q20 -53 76 -53q54 0 68 45q5 17 5 49q0 35 -5 49q-14 44 -67 44
q-49 0 -65 -37q-5 -9 -12 -9h-26q-10 0 -10 10v208q0 10 10 10h204q10 0 10 -10v-23q0 -10 -10 -10h-163q-6 0 -6 -6v-120h1q22 30 74 30q82 0 104 -68q7 -21 7 -68q0 -42 -8 -66q-25 -72 -112 -72zM273 -10h-27q-11 0 -6 10l394 680q6 10 14 10h27q11 0 6 -10l-394 -680
q-6 -10 -14 -10z" />
    <glyph glyph-name="seveneighths" unicode="&#x215e;" horiz-adv-x="856" 
d="M629 -7q-57 0 -93.5 33t-36.5 87q0 35 17.5 61.5t44.5 38.5v2q-52 28 -52 86q0 48 33.5 80t86.5 32q52 0 85.5 -32t33.5 -80q0 -58 -52 -86v-2q27 -12 45 -38t18 -62q0 -54 -36.5 -87t-93.5 -33zM629 233q31 0 52 19.5t21 48.5q0 30 -21 49.5t-52 19.5t-52.5 -19.5
t-21.5 -49.5q0 -29 21.5 -48.5t52.5 -19.5zM629 36q37 0 60.5 22t23.5 56t-23.5 56t-60.5 22t-60.5 -22t-23.5 -56t23.5 -56t60.5 -22zM173 274h-28q-11 0 -6 11l149 351v1h-140q-6 0 -6 -6v-42q0 -10 -10 -10h-26q-10 0 -10 10v81q0 10 10 10h221q10 0 10 -10v-28
q0 -7 -3 -13l-148 -347q-4 -8 -13 -8zM199 -10h-27q-11 0 -6 10l394 680q6 10 14 10h27q11 0 6 -10l-394 -680q-6 -10 -14 -10z" />
    <glyph glyph-name="partialdiff" unicode="&#x2202;" horiz-adv-x="537" 
d="M250 -10q-87 0 -138.5 59t-51.5 153q0 92 55 152t140 60q105 0 169 -86h1q3 136 -42.5 224t-135.5 88q-58 0 -117 -45q-8 -5 -13 3l-16 25q-5 8 3 14q67 53 144 53q113 0 171 -95.5t58 -244.5q0 -171 -57.5 -265.5t-169.5 -94.5zM254 42q75 0 117 60t50 171
q-61 92 -157 92q-70 0 -110 -44t-40 -119q0 -72 38 -116t102 -44z" />
    <glyph glyph-name="Delta" unicode="&#x2206;" horiz-adv-x="600" 
d="M559 0h-518q-11 0 -8 10l238 660q3 10 12 10h36q8 0 11 -10l237 -660q3 -10 -8 -10zM487 51q7 0 5 6l-190 531h-3l-192 -531q-1 -6 6 -6h374z" />
    <glyph glyph-name="product" unicode="&#x220f;" horiz-adv-x="637" 
d="M538 -180h-37q-10 0 -10 10v849q0 6 -6 6h-333q-6 0 -6 -6v-849q0 -10 -10 -10h-37q-10 0 -10 10v900q0 10 10 10h439q10 0 10 -10v-900q0 -10 -10 -10z" />
    <glyph glyph-name="summation" unicode="&#x2211;" horiz-adv-x="531" 
d="M474 -180h-403q-10 0 -10 10v31q0 5 2 9l195 452l-190 362q-3 6 -3 11v35q0 10 10 10h389q10 0 10 -10v-35q0 -10 -10 -10h-333l186 -352q3 -7 0 -14l-192 -444h349q10 0 10 -10v-35q0 -10 -10 -10z" />
    <glyph glyph-name="minus" unicode="&#x2212;" 
d="M456 251h-380q-10 0 -10 10v30q0 10 10 10h380q10 0 10 -10v-30q0 -10 -10 -10z" />
    <glyph glyph-name="uni2215" unicode="&#x2215;" horiz-adv-x="151" 
d="M-112 -10h-27q-11 0 -6 10l394 680q6 10 14 10h27q11 0 6 -10l-394 -680q-6 -10 -14 -10z" />
    <glyph glyph-name="uni2219" unicode="&#x2219;" horiz-adv-x="219" 
d="M134 222h-49q-10 0 -10 10v67q0 10 10 10h49q10 0 10 -10v-67q0 -10 -10 -10z" />
    <glyph glyph-name="radical" unicode="&#x221a;" horiz-adv-x="616" 
d="M333 -180h-29q-9 0 -12 10l-147 299q-3 6 -9 3l-72 -34q-10 -5 -13 4l-12 26q-5 10 4 13l115 57q10 5 14 -4l140 -291h3l231 827q3 10 12 10h30q11 0 8 -10l-251 -900q-3 -10 -12 -10z" />
    <glyph glyph-name="infinity" unicode="&#x221e;" horiz-adv-x="769" 
d="M570 89q-48 0 -91.5 29t-94.5 92q-51 -63 -94 -92t-92 -29q-66 0 -108.5 44t-42.5 114t42 113.5t110 43.5q47 0 89.5 -29t95.5 -92q53 64 96 92.5t89 28.5q68 0 110.5 -43t42.5 -114q0 -69 -42.5 -113.5t-109.5 -44.5zM568 134q49 0 79 34t30 80q0 48 -29 80t-80 32
q-36 0 -70.5 -26t-84.5 -88q53 -64 85.5 -88t69.5 -24zM200 134q37 0 71.5 26t83.5 87q-50 62 -84.5 87.5t-70.5 25.5q-50 0 -79 -31.5t-29 -80.5t30.5 -81.5t77.5 -32.5z" />
    <glyph glyph-name="integral" unicode="&#x222b;" horiz-adv-x="382" 
d="M94 -180q-23 0 -31 2q-10 2 -10 10v31q0 5 2.5 8t7.5 2q9 -1 25 -1q39 0 57.5 26.5t18.5 86.5v577q0 94 30 135.5t95 43.5q14 0 30 -2q10 -2 10 -10v-32q0 -5 -3 -8t-7 -2q-9 2 -25 2q-39 0 -57.5 -26.5t-18.5 -86.5v-577q0 -94 -29.5 -135.5t-94.5 -43.5z" />
    <glyph glyph-name="approxequal" unicode="&#x2248;" 
d="M351 312q-43 0 -98 39q-46 32 -74 32q-47 0 -81 -57q-5 -8 -14 -2l-20 13q-7 5 -3 14q19 37 50.5 58t68.5 21q43 0 98 -39q46 -32 74 -32q46 0 81 57q5 9 15 2l19 -12q8 -5 3 -14q-41 -80 -119 -80zM351 122q-43 0 -98 39q-46 32 -74 32q-47 0 -81 -57q-5 -8 -14 -2
l-20 13q-7 5 -3 14q19 37 50.5 58t68.5 21q43 0 98 -39q46 -32 74 -32q46 0 81 57q5 9 15 2l19 -12q8 -5 3 -14q-41 -80 -119 -80z" />
    <glyph glyph-name="notequal" unicode="&#x2260;" 
d="M456 154h-234l-57 -102q-6 -10 -15 -10h-29q-4 0 -5.5 3.5t0.5 7.5l56 101h-96q-10 0 -10 10v30q0 10 10 10h124l81 144h-205q-10 0 -10 10v30q0 10 10 10h233l58 102q6 10 14 10h30q4 0 5.5 -3.5t-0.5 -7.5l-57 -101h97q10 0 10 -10v-30q0 -10 -10 -10h-125l-81 -144
h206q10 0 10 -10v-30q0 -10 -10 -10z" />
    <glyph glyph-name="lessequal" unicode="&#x2264;" 
d="M456 128l-380 155q-10 4 -10 13v26q0 9 10 13l380 155q10 3 10 -7v-34q0 -9 -10 -13l-316 -126v-2l316 -125q10 -4 10 -13v-35q0 -10 -10 -7zM456 0h-380q-10 0 -10 10v30q0 10 10 10h380q10 0 10 -10v-30q0 -10 -10 -10z" />
    <glyph glyph-name="greaterequal" unicode="&#x2265;" 
d="M456 283l-380 -155q-10 -3 -10 7v35q0 9 10 13l316 125v2l-316 126q-10 4 -10 13v34q0 10 10 7l380 -155q10 -4 10 -13v-26q0 -9 -10 -13zM456 0h-380q-10 0 -10 10v30q0 10 10 10h380q10 0 10 -10v-30q0 -10 -10 -10z" />
    <glyph glyph-name="lozenge" unicode="&#x25ca;" horiz-adv-x="556" 
d="M294 -52h-32q-7 0 -12 10l-179 364q-3 7 0 14l179 364q5 10 12 10h32q7 0 12 -10l179 -364q3 -7 0 -14l-179 -364q-5 -10 -12 -10zM280 16l152 313l-153 313h-2l-152 -313l153 -313h2z" />
    <glyph glyph-name="f_i" unicode="&#xf001;" horiz-adv-x="546" 
d="M152 0h-34q-10 0 -10 10v413q0 6 -6 6h-51q-10 0 -10 10v28q0 10 10 10h51q6 0 6 6v51q0 84 29.5 115t103.5 31h28q10 0 10 -10v-32q0 -10 -10 -10h-21q-54 0 -70 -16.5t-16 -70.5v-58q0 -6 6 -6h101q10 0 10 -10v-28q0 -10 -10 -10h-101q-6 0 -6 -6v-413q0 -10 -10 -10z
M449 604h-44q-10 0 -10 10v56q0 10 10 10h44q10 0 10 -10v-56q0 -10 -10 -10zM444 0h-34q-10 0 -10 10v457q0 10 10 10h34q10 0 10 -10v-457q0 -10 -10 -10z" />
    <glyph glyph-name="f_l" unicode="&#xf002;" horiz-adv-x="570" 
d="M152 0h-34q-10 0 -10 10v413q0 6 -6 6h-51q-10 0 -10 10v28q0 10 10 10h51q6 0 6 6v51q0 84 29.5 115t103.5 31h28q10 0 10 -10v-32q0 -10 -10 -10h-21q-54 0 -70 -16.5t-16 -70.5v-58q0 -6 6 -6h101q10 0 10 -10v-28q0 -10 -10 -10h-101q-6 0 -6 -6v-413q0 -10 -10 -10z
M521 -3h-23q-54 0 -76.5 26t-22.5 86v561q0 10 10 10h34q10 0 10 -10v-559q0 -35 11.5 -48.5t39.5 -13.5h17q10 0 10 -10v-32q0 -10 -10 -10z" />
    <glyph glyph-name="uniF8FF" unicode="&#xf8ff;" horiz-adv-x="470" 
d="M460 0h-450q-10 0 -10 10v660q0 10 10 10h450q10 0 10 -10v-660q0 -10 -10 -10zM425 37q6 0 6 6v594q0 6 -6 6h-380q-6 0 -6 -6v-594q0 -6 6 -6h380zM237 224h-22q-10 0 -10 10v24q0 40 22 67l37 48q37 44 37 80q0 31 -20 50.5t-52 19.5q-62 0 -77 -67q-2 -9 -12 -8
l-21 4q-10 2 -8 11q8 44 40 71.5t79 27.5q50 0 81 -31t31 -78q0 -49 -38 -94l-37 -48q-20 -25 -20 -55v-22q0 -10 -10 -10zM241 113h-31q-10 0 -10 10v39q0 10 10 10h31q10 0 10 -10v-39q0 -10 -10 -10z" />
    <glyph glyph-name="grave.cap" horiz-adv-x="421" 
d="M281 764h-26q-10 0 -18 9l-96 105q-3 4 -2 7t6 3h40q11 0 18 -10l82 -104q8 -10 -4 -10z" />
    <glyph glyph-name="acute.cap" horiz-adv-x="421" 
d="M171 764h-26q-12 0 -4 10l82 104q7 10 18 10h40q5 0 6 -3t-2 -7l-96 -105q-8 -9 -18 -9z" />
    <glyph glyph-name="circumflex.cap" horiz-adv-x="421" 
d="M324 754h-25q-9 0 -17 10l-71 85h-2l-70 -85q-9 -10 -17 -10h-25q-5 0 -6 3t2 7l90 123q6 9 16 9h23q9 0 15 -9l91 -123q3 -4 1.5 -7t-5.5 -3z" />
    <glyph glyph-name="caron.cap" horiz-adv-x="421" 
d="M222 754h-23q-10 0 -16 9l-90 122q-3 4 -2 7t6 3h25q8 0 17 -10l70 -85h2l71 85q8 10 17 10h25q4 0 5.5 -3t-1.5 -7l-91 -122q-6 -9 -15 -9z" />
    <glyph glyph-name="caron.alt" horiz-adv-x="421" 
d="M190 535q-9 0 -9 10v125q0 10 10 10h37q10 0 10 -10v-48q0 -11 -5 -21l-32 -57q-5 -9 -11 -9z" />
    <glyph glyph-name="tilde.cap" horiz-adv-x="421" 
d="M263 782q-26 0 -60 21q-29 18 -49 18q-25 0 -58 -33q-9 -7 -9 3v30q0 7 8 15q27 30 61 30q26 0 60 -20q26 -18 49 -18q28 0 59 33q3 3 5.5 2t2.5 -5v-30q0 -8 -7 -16q-30 -30 -62 -30z" />
    <glyph glyph-name="dieresis.cap" horiz-adv-x="421" 
d="M330 786h-39q-10 0 -10 10v56q0 10 10 10h39q10 0 10 -10v-56q0 -10 -10 -10zM130 786h-39q-10 0 -10 10v56q0 10 10 10h39q10 0 10 -10v-56q0 -10 -10 -10z" />
    <glyph glyph-name="macron.cap" horiz-adv-x="421" 
d="M330 800h-240q-10 0 -10 10v26q0 10 10 10h240q10 0 10 -10v-26q0 -10 -10 -10z" />
    <glyph glyph-name="breve.cap" horiz-adv-x="421" 
d="M210 768q-51 0 -84.5 28.5t-39.5 74.5q-2 10 9 10h19q9 0 12 -10q17 -59 84 -59q68 0 86 59q3 10 11 10h19q11 0 9 -10q-7 -46 -40.5 -74.5t-84.5 -28.5z" />
    <glyph glyph-name="ring.cap" horiz-adv-x="421" 
d="M298 826q0 -38 -25 -63t-63 -25t-63 25t-25 63t25 63t63 25t63 -25t25 -63zM263 826q0 24 -14.5 40t-38.5 16t-38.5 -16t-14.5 -40t14.5 -40t38.5 -16t38.5 16t14.5 40z" />
    <glyph glyph-name="hungarumlaut.cap" horiz-adv-x="421" 
d="M257 764h-25q-4 0 -5.5 3t1.5 7l67 105q7 10 16 10h34q5 0 6 -3t-2 -7l-76 -105q-7 -10 -16 -10zM133 764h-25q-4 0 -5.5 3t1.5 7l67 105q6 10 16 10h33q4 0 5.5 -3t-1.5 -7l-75 -105q-7 -10 -16 -10z" />
    <glyph glyph-name="dotaccent.cap" horiz-adv-x="421" 
d="M232 786h-44q-10 0 -10 10v56q0 10 10 10h44q10 0 10 -10v-56q0 -10 -10 -10z" />
    <glyph glyph-name="commaaccent" horiz-adv-x="421" 
d="M191 -195q-9 0 -9 9v120q0 10 10 10h37q10 0 10 -10v-42q0 -12 -5 -22l-32 -57q-4 -8 -11 -8z" />
    <glyph glyph-name="commaaccent.alt" horiz-adv-x="421" 
d="M229 572h-37q-10 0 -10 10v46q0 12 5 22l32 57q4 8 11 8q9 0 9 -9v-124q0 -10 -10 -10z" />
    <glyph glyph-name="zero.denominator" horiz-adv-x="331" 
d="M166 -7q-90 0 -117 80q-9 32 -9 130t9 130q27 80 117 80q91 0 116 -80q9 -27 9 -130t-9 -130q-25 -80 -116 -80zM166 36q55 0 72 50q6 21 6 117t-6 117q-17 50 -72 50t-72 -50q-7 -24 -7 -117t7 -117q17 -50 72 -50z" />
    <glyph glyph-name="one.denominator" horiz-adv-x="331" 
d="M196 0h-26q-10 0 -10 10v339h-1l-69 -47q-10 -6 -10 5v32q0 10 7 14l68 47q9 6 16 6h25q10 0 10 -10v-386q0 -10 -10 -10z" />
    <glyph glyph-name="two.denominator" horiz-adv-x="331" 
d="M278 0h-225q-10 0 -10 10v23q0 7 6 14l156 181q34 39 34 74q0 30 -19 49t-51 19q-60 0 -75 -60q-2 -10 -12 -8l-23 5q-10 2 -9 12q7 38 38.5 66t80.5 28q54 0 85 -31.5t31 -79.5t-44 -101l-137 -156v-2h174q10 0 10 -10v-23q0 -10 -10 -10z" />
    <glyph glyph-name="three.denominator" horiz-adv-x="331" 
d="M166 -7q-49 0 -81.5 22.5t-43.5 60.5q-3 9 6 12l25 7q8 3 12 -6q23 -53 81 -53q36 0 57.5 21.5t21.5 54.5t-22.5 55t-58.5 22h-18q-10 0 -10 10v23q0 10 10 10h15q34 0 54.5 19t20.5 51q0 31 -19.5 49.5t-53.5 18.5q-54 0 -73 -47q-3 -9 -11 -8l-23 6q-10 2 -8 11
q8 34 38 57.5t78 23.5q54 0 86 -30.5t32 -78.5q0 -57 -52 -90v-1q24 -10 42.5 -36t18.5 -64q0 -53 -34.5 -86.5t-89.5 -33.5z" />
    <glyph glyph-name="four.denominator" horiz-adv-x="331" 
d="M240 0h-25q-10 0 -10 10v60q0 6 -6 6h-161q-10 0 -10 10v22q0 8 4 16l133 272q4 10 13 10h29q5 0 6.5 -3t-0.5 -7l-133 -276v-1h119q6 0 6 6v98q0 10 10 10h25q10 0 10 -10v-98q0 -6 6 -6h36q10 0 10 -10v-23q0 -10 -10 -10h-36q-6 0 -6 -6v-60q0 -10 -10 -10z" />
    <glyph glyph-name="five.denominator" horiz-adv-x="331" 
d="M170 -7q-49 0 -78.5 22t-38.5 58q-3 10 6 13l24 9q9 3 12 -5q20 -53 76 -53q55 0 68 45q5 17 5 49q0 35 -5 49q-14 44 -67 44q-49 0 -65 -37q-5 -9 -12 -9h-26q-10 0 -10 10v208q0 10 10 10h204q10 0 10 -10v-23q0 -10 -10 -10h-163q-6 0 -6 -6v-120h1q22 30 74 30
q82 0 104 -68q7 -21 7 -68q0 -42 -8 -66q-25 -72 -112 -72z" />
    <glyph glyph-name="six.denominator" horiz-adv-x="331" 
d="M166 -7q-57 0 -92.5 34.5t-35.5 90.5q0 45 28 95l102 184q6 9 14 9h30q4 0 6 -3t0 -7l-92 -165l1 -1q17 12 47 12q53 0 86.5 -34.5t33.5 -89.5q0 -56 -35.5 -90.5t-92.5 -34.5zM166 36q37 0 59.5 22.5t22.5 59.5q0 36 -22.5 58.5t-59.5 22.5t-59.5 -22.5t-22.5 -58.5
q0 -37 22.5 -59.5t59.5 -22.5z" />
    <glyph glyph-name="seven.denominator" horiz-adv-x="331" 
d="M127 0h-28q-11 0 -6 11l149 351v1h-140q-6 0 -6 -6v-42q0 -10 -10 -10h-26q-10 0 -10 10v81q0 10 10 10h221q10 0 10 -10v-28q0 -7 -3 -13l-148 -347q-4 -8 -13 -8z" />
    <glyph glyph-name="eight.denominator" horiz-adv-x="331" 
d="M166 -7q-57 0 -93.5 33t-36.5 87q0 35 17.5 61.5t44.5 38.5v2q-52 28 -52 86q0 48 33.5 80t86.5 32q52 0 85.5 -32t33.5 -80q0 -58 -52 -86v-2q27 -12 45 -38t18 -62q0 -54 -36.5 -87t-93.5 -33zM166 233q31 0 52 19.5t21 48.5q0 30 -21 49.5t-52 19.5t-52.5 -19.5
t-21.5 -49.5q0 -29 21.5 -48.5t52.5 -19.5zM166 36q37 0 60.5 22t23.5 56t-23.5 56t-60.5 22t-60.5 -22t-23.5 -56t23.5 -56t60.5 -22z" />
    <glyph glyph-name="nine.denominator" horiz-adv-x="331" 
d="M150 0h-31q-5 0 -6.5 3t0.5 7l92 165l-1 1q-15 -12 -46 -12q-53 0 -86.5 34.5t-33.5 89.5q0 56 35.5 90.5t92.5 34.5t92.5 -34.5t35.5 -90.5q0 -43 -29 -95l-102 -184q-5 -9 -13 -9zM166 207q37 0 59.5 22.5t22.5 58.5q0 37 -22.5 59.5t-59.5 22.5t-59.5 -22.5
t-22.5 -59.5q0 -36 22.5 -58.5t59.5 -22.5z" />
    <glyph glyph-name="zero.numerator" horiz-adv-x="331" 
d="M166 267q-90 0 -117 80q-9 32 -9 130t9 130q27 80 117 80q91 0 116 -80q9 -27 9 -130t-9 -130q-25 -80 -116 -80zM166 310q55 0 72 50q6 21 6 117t-6 117q-17 50 -72 50t-72 -50q-7 -24 -7 -117t7 -117q17 -50 72 -50z" />
    <glyph glyph-name="one.numerator" horiz-adv-x="331" 
d="M196 274h-26q-10 0 -10 10v339h-1l-69 -47q-10 -6 -10 5v32q0 10 7 14l68 47q9 6 16 6h25q10 0 10 -10v-386q0 -10 -10 -10z" />
    <glyph glyph-name="two.numerator" horiz-adv-x="331" 
d="M278 274h-225q-10 0 -10 10v23q0 7 6 14l156 181q34 39 34 74q0 30 -19 49t-51 19q-60 0 -75 -60q-2 -10 -12 -8l-23 5q-10 2 -9 12q7 38 38.5 66t80.5 28q54 0 85 -31.5t31 -79.5t-44 -101l-137 -156v-2h174q10 0 10 -10v-23q0 -10 -10 -10z" />
    <glyph glyph-name="three.numerator" horiz-adv-x="331" 
d="M166 267q-49 0 -81.5 22.5t-43.5 60.5q-3 9 6 12l25 7q8 3 12 -6q23 -53 81 -53q36 0 57.5 21.5t21.5 54.5t-22.5 55t-58.5 22h-18q-10 0 -10 10v23q0 10 10 10h15q34 0 54.5 19t20.5 51q0 31 -19.5 49.5t-53.5 18.5q-54 0 -73 -47q-3 -9 -11 -8l-23 6q-10 2 -8 11
q8 34 38 57.5t78 23.5q54 0 86 -30.5t32 -78.5q0 -57 -52 -90v-1q24 -10 42.5 -36t18.5 -64q0 -53 -34.5 -86.5t-89.5 -33.5z" />
    <glyph glyph-name="four.numerator" horiz-adv-x="331" 
d="M240 274h-25q-10 0 -10 10v60q0 6 -6 6h-161q-10 0 -10 10v22q0 8 4 16l133 272q4 10 13 10h29q5 0 6.5 -3t-0.5 -7l-133 -276v-1h119q6 0 6 6v98q0 10 10 10h25q10 0 10 -10v-98q0 -6 6 -6h36q10 0 10 -10v-23q0 -10 -10 -10h-36q-6 0 -6 -6v-60q0 -10 -10 -10z" />
    <glyph glyph-name="five.numerator" horiz-adv-x="331" 
d="M170 267q-49 0 -78.5 22t-38.5 58q-3 10 6 13l24 9q9 3 12 -5q20 -53 76 -53q55 0 68 45q5 17 5 49q0 35 -5 49q-14 44 -67 44q-49 0 -65 -37q-5 -9 -12 -9h-26q-10 0 -10 10v208q0 10 10 10h204q10 0 10 -10v-23q0 -10 -10 -10h-163q-6 0 -6 -6v-120h1q22 30 74 30
q82 0 104 -68q7 -21 7 -68q0 -42 -8 -66q-25 -72 -112 -72z" />
    <glyph glyph-name="six.numerator" horiz-adv-x="331" 
d="M166 267q-57 0 -92.5 34.5t-35.5 90.5q0 45 28 95l102 184q6 9 14 9h30q4 0 6 -3t0 -7l-92 -165l1 -1q17 12 47 12q53 0 86.5 -34.5t33.5 -89.5q0 -56 -35.5 -90.5t-92.5 -34.5zM166 310q37 0 59.5 22.5t22.5 59.5q0 36 -22.5 58.5t-59.5 22.5t-59.5 -22.5t-22.5 -58.5
q0 -37 22.5 -59.5t59.5 -22.5z" />
    <glyph glyph-name="seven.numerator" horiz-adv-x="331" 
d="M127 274h-28q-11 0 -6 11l149 351v1h-140q-6 0 -6 -6v-42q0 -10 -10 -10h-26q-10 0 -10 10v81q0 10 10 10h221q10 0 10 -10v-28q0 -7 -3 -13l-148 -347q-4 -8 -13 -8z" />
    <glyph glyph-name="eight.numerator" horiz-adv-x="331" 
d="M166 267q-57 0 -93.5 33t-36.5 87q0 35 17.5 61.5t44.5 38.5v2q-52 28 -52 86q0 48 33.5 80t86.5 32q52 0 85.5 -32t33.5 -80q0 -58 -52 -86v-2q27 -12 45 -38t18 -62q0 -54 -36.5 -87t-93.5 -33zM166 507q31 0 52 19.5t21 48.5q0 30 -21 49.5t-52 19.5t-52.5 -19.5
t-21.5 -49.5q0 -29 21.5 -48.5t52.5 -19.5zM166 310q37 0 60.5 22t23.5 56t-23.5 56t-60.5 22t-60.5 -22t-23.5 -56t23.5 -56t60.5 -22z" />
    <glyph glyph-name="nine.numerator" horiz-adv-x="331" 
d="M150 274h-31q-5 0 -6.5 3t0.5 7l92 165l-1 1q-15 -12 -46 -12q-53 0 -86.5 34.5t-33.5 89.5q0 56 35.5 90.5t92.5 34.5t92.5 -34.5t35.5 -90.5q0 -43 -29 -95l-102 -184q-5 -9 -13 -9zM166 481q37 0 59.5 22.5t22.5 58.5q0 37 -22.5 59.5t-59.5 22.5t-59.5 -22.5
t-22.5 -59.5q0 -36 22.5 -58.5t59.5 -22.5z" />
    <glyph glyph-name="cyrBreve" horiz-adv-x="421" 
d="M211 768q-105 0 -129 97q-3 13 6 15l25 5q9 2 12 -6q22 -67 86 -67q62 0 86 67q3 9 13 6l23 -5q9 -3 6 -15q-26 -97 -128 -97z" />
    <glyph glyph-name="cyrbreve" horiz-adv-x="421" 
d="M211 570q-103 0 -127 97q-3 12 6 15l23 5q9 2 12 -6q22 -68 86 -68q62 0 86 68q3 9 13 6l21 -5q9 -3 6 -15q-26 -97 -126 -97z" />
    <glyph glyph-name="grave.sc" horiz-adv-x="421" 
d="M273 598h-25q-9 0 -18 10l-88 122q-3 4 -1.5 7t6.5 3h38q10 0 16 -10l77 -122q7 -10 -5 -10z" />
    <glyph glyph-name="acute.sc" horiz-adv-x="421" 
d="M173 598h-25q-11 0 -6 10l77 122q6 10 17 10h38q5 0 6.5 -3t-1.5 -7l-88 -122q-9 -10 -18 -10z" />
    <glyph glyph-name="circumflex.sc" horiz-adv-x="421" 
d="M324 598h-25q-9 0 -17 10l-71 85h-2l-70 -85q-9 -10 -17 -10h-25q-5 0 -6 3t2 7l90 123q6 9 16 9h23q9 0 15 -9l91 -123q3 -4 1.5 -7t-5.5 -3z" />
    <glyph glyph-name="caron.sc" horiz-adv-x="421" 
d="M222 598h-23q-9 0 -16 10l-90 122q-3 4 -2 7t6 3h25q8 0 17 -10l70 -85h2l71 85q8 10 17 10h25q4 0 5.5 -3t-1.5 -7l-91 -122q-7 -10 -15 -10z" />
    <glyph glyph-name="tilde.sc" horiz-adv-x="421" 
d="M263 636q-24 0 -60 20q-29 18 -49 18q-27 0 -58 -33q-9 -7 -9 3v30q0 7 8 16q28 30 61 30q28 0 60 -21q29 -18 49 -18q26 0 59 33q3 3 5.5 2t2.5 -5v-30q0 -8 -7 -15q-28 -30 -62 -30z" />
    <glyph glyph-name="dieresis.sc" horiz-adv-x="421" 
d="M330 644h-40q-10 0 -10 10v56q0 10 10 10h40q10 0 10 -10v-56q0 -10 -10 -10zM131 644h-40q-10 0 -10 10v56q0 10 10 10h40q10 0 10 -10v-56q0 -10 -10 -10z" />
    <glyph glyph-name="macron.sc" horiz-adv-x="421" 
d="M330 658h-240q-10 0 -10 10v26q0 10 10 10h240q10 0 10 -10v-26q0 -10 -10 -10z" />
    <glyph glyph-name="breve.sc" horiz-adv-x="421" 
d="M210 610q-50 0 -84 29t-40 75q-2 10 9 10h19q9 0 12 -10q17 -60 84 -60q68 0 86 60q3 10 11 10h19q11 0 9 -10q-7 -47 -40.5 -75.5t-84.5 -28.5z" />
    <glyph glyph-name="ring.sc" horiz-adv-x="421" 
d="M210 580q-38 0 -63 25.5t-25 63.5t25 63.5t63 25.5t63 -25.5t25 -63.5t-25 -63.5t-63 -25.5zM210 614q24 0 39 15.5t15 39.5t-15 39.5t-39 15.5q-23 0 -38.5 -15.5t-15.5 -39.5t15.5 -39.5t38.5 -15.5z" />
    <glyph glyph-name="hungarumlaut.sc" horiz-adv-x="421" 
d="M243 598h-24q-10 0 -5 10l67 122q6 10 16 10h32q11 0 5 -10l-76 -123q-6 -9 -15 -9zM119 598h-24q-11 0 -6 10l67 122q6 10 16 10h33q11 0 5 -10l-76 -123q-6 -9 -15 -9z" />
    <glyph glyph-name="dotaccent.sc" horiz-adv-x="421" 
d="M232 644h-44q-10 0 -10 10v56q0 10 10 10h44q10 0 10 -10v-56q0 -10 -10 -10z" />
    <glyph glyph-name="exclamdown.sc" horiz-adv-x="260" 
d="M117 337h23q10 0 10 -10l8 -320q0 -10 -10 -10h-40q-10 0 -10 10l9 320q0 10 10 10zM104 514h50q10 0 10 -10v-67q0 -10 -10 -10h-50q-10 0 -10 10v67q0 10 10 10z" />
    <glyph glyph-name="questiondown.sc" horiz-adv-x="399" 
d="M183 380h35q10 0 10 -10v-26q0 -40 -29 -72l-44 -48q-27 -30 -37 -49t-10 -45q0 -36 25 -58.5t65 -22.5q77 0 95 78q2 9 12 8l33 -5q10 -2 8 -12q-9 -54 -48 -87.5t-102 -33.5q-64 0 -103.5 37t-39.5 93q0 35 11.5 60t39.5 55l42 46q16 17 21.5 29.5t5.5 33.5v19
q0 10 10 10zM176 524h50q10 0 10 -10v-67q0 -10 -10 -10h-50q-10 0 -10 10v67q0 10 10 10z" />
    <glyph glyph-name="Euro.sc" horiz-adv-x="446" 
d="M255 -10q-59 0 -100 27t-58 76q-12 38 -12 84q0 6 -6 6h-36q-10 0 -10 10v23q0 10 10 10h36q6 0 6 6v56q0 6 -6 6h-36q-10 0 -10 10v23q0 10 10 10h36q6 0 6 6q0 42 12 80q17 49 58 76t100 27q106 0 150 -87q5 -10 -4 -14l-26 -14q-10 -5 -14 4q-38 61 -107 61
q-80 0 -104 -65q-10 -30 -10 -68q0 -6 6 -6h176q4 0 7 -3.5t1 -8.5l-8 -21q-3 -10 -12 -10h-164q-6 0 -6 -6v-56q0 -6 6 -6h156q4 0 7 -4t1 -8l-8 -21q-3 -10 -12 -10h-144q-6 0 -6 -6q0 -42 10 -72q24 -65 104 -65q69 0 107 61q5 8 14 3l26 -13q9 -4 4 -14
q-44 -87 -150 -87z" />
    <glyph glyph-name="cent.sc" horiz-adv-x="446" 
d="M70 181q0 47 11 85q14 47 50 74.5t89 30.5v59q0 10 10 10h14q10 0 10 -10v-58q84 -5 126 -66q5 -9 -3 -14l-23 -20q-7 -4 -13 3q-32 44 -87 47v-281q55 3 87 46q6 9 13 3l23 -20q8 -5 3 -14q-40 -61 -126 -66v-57q0 -10 -10 -10h-14q-10 0 -10 10v58q-53 3 -89 30.5
t-50 74.5q-11 40 -11 85zM133 109q19 -61 87 -68v280q-68 -7 -87 -67q-9 -28 -9 -73t9 -72z" />
    <glyph glyph-name="sterling.sc" horiz-adv-x="446" 
d="M362 0h-281q-10 0 -10 10v32q0 5 5 10q19 18 26 35t7 49v81q0 6 -6 6h-38q-10 0 -10 10v26q0 10 10 10h38q6 0 6 6v104q0 70 34.5 109t96.5 39q50 0 82 -26.5t43 -70.5q2 -10 -8 -12l-31 -8q-10 -2 -12 7q-16 59 -74 59q-37 0 -57 -24.5t-20 -70.5v-106q0 -6 6 -6h111
q10 0 10 -10v-26q0 -10 -10 -10h-111q-6 0 -6 -6v-74q0 -60 -28 -90v-1h227q10 0 10 -10v-32q0 -10 -10 -10z" />
    <glyph glyph-name="florin.sc" horiz-adv-x="446" 
d="M358 288h-91l-55 -300q-12 -68 -42 -96.5t-91 -28.5h-19q-10 0 -10 10v31q0 10 10 10h20q37 0 54.5 15t24.5 56l55 303h-69q-10 0 -10 10v27q0 10 10 10h77l11 57q12 68 42 96.5t91 28.5h19q10 0 10 -10v-31q0 -10 -10 -10h-20q-36 0 -53.5 -15t-24.5 -56l-11 -60h82
q10 0 10 -10v-27q0 -10 -10 -10z" />
    <glyph glyph-name="yen.sc" horiz-adv-x="446" 
d="M240 0h-35q-10 0 -10 10v80q0 6 -6 6h-115q-10 0 -10 10v23q0 10 10 10h115q6 0 6 6v48q0 6 -6 6h-115q-10 0 -10 10v23q0 10 10 10h108v1l-137 260q-3 6 -0.5 10t7.5 4h34q10 0 16 -10l121 -236h2l120 236q6 10 15 10h34q5 0 7 -4t-1 -10l-137 -260v-1h108q10 0 10 -10
v-23q0 -10 -10 -10h-115q-6 0 -6 -6v-48q0 -6 6 -6h115q10 0 10 -10v-23q0 -10 -10 -10h-115q-6 0 -6 -6v-80q0 -10 -10 -10z" />
    </font>
</defs>
</svg>
